<svg width="447" height="187" viewBox="0 0 447 187" fill="none" xmlns="http://www.w3.org/2000/svg">
<g opacity="0.5" filter="url(#filter0_d_618_27924)">
<rect x="87.209" y="17.4692" width="337.291" height="76" rx="24" fill="white" shape-rendering="crispEdges"/>
<path fill-rule="evenodd" clip-rule="evenodd" d="M123.208 46.4692C118.237 46.4692 114.208 50.4987 114.208 55.4692C114.208 60.4398 118.237 64.4692 123.208 64.4692C128.179 64.4692 132.208 60.4398 132.208 55.4692C132.208 50.4987 128.179 46.4692 123.208 46.4692ZM112.208 55.4692C112.208 49.3941 117.133 44.4692 123.208 44.4692C129.283 44.4692 134.208 49.3941 134.208 55.4692C134.208 61.5444 129.283 66.4692 123.208 66.4692C117.133 66.4692 112.208 61.5444 112.208 55.4692Z" fill="#FFCC00"/>
<path fill-rule="evenodd" clip-rule="evenodd" d="M123.209 48.4692C123.761 48.4692 124.209 48.917 124.209 49.4692V54.4692H127.709C128.261 54.4692 128.709 54.917 128.709 55.4692C128.709 56.0215 128.261 56.4692 127.709 56.4692H123.209C122.657 56.4692 122.209 56.0215 122.209 55.4692V49.4692C122.209 48.917 122.657 48.4692 123.209 48.4692Z" fill="#FFCC00"/>
<path d="M152.601 49.4692V38.1572H154.377L160.281 47.5812V38.1572H161.673V49.4692H159.929L153.993 40.0772V49.4692H152.601ZM167.788 49.5652C166.892 49.5652 166.151 49.3839 165.564 49.0212C164.978 48.6479 164.54 48.1359 164.252 47.4852C163.964 46.8346 163.82 46.0932 163.82 45.2612C163.82 44.4186 163.97 43.6772 164.268 43.0372C164.578 42.3866 165.026 41.8746 165.612 41.5012C166.199 41.1279 166.919 40.9412 167.772 40.9412C168.434 40.9412 168.999 41.0692 169.468 41.3252C169.948 41.5706 170.343 41.9012 170.652 42.3172C170.962 42.7332 171.186 43.1919 171.324 43.6932C171.463 44.1839 171.522 44.6799 171.5 45.1812C171.49 45.2772 171.479 45.3732 171.468 45.4692C171.468 45.5652 171.463 45.6612 171.452 45.7572H165.196C165.239 46.2479 165.362 46.6906 165.564 47.0852C165.767 47.4799 166.055 47.7946 166.428 48.0292C166.802 48.2532 167.266 48.3652 167.82 48.3652C168.098 48.3652 168.375 48.3332 168.652 48.2692C168.94 48.1946 169.196 48.0719 169.42 47.9012C169.655 47.7306 169.82 47.5012 169.916 47.2132H171.308C171.18 47.7572 170.94 48.2052 170.588 48.5572C170.236 48.8986 169.815 49.1546 169.324 49.3252C168.834 49.4852 168.322 49.5652 167.788 49.5652ZM165.228 44.5732H170.108C170.098 44.0932 169.991 43.6719 169.788 43.3092C169.586 42.9466 169.308 42.6639 168.956 42.4612C168.615 42.2586 168.204 42.1572 167.724 42.1572C167.202 42.1572 166.759 42.2692 166.396 42.4932C166.044 42.7172 165.772 43.0106 165.58 43.3732C165.388 43.7359 165.271 44.1359 165.228 44.5732ZM172.308 49.4692L175.316 45.1652L172.452 41.0372H174.084L176.228 44.2372L178.308 41.0372H179.892L177.044 45.2132L180.1 49.4692H178.484L176.148 46.2532L173.844 49.4692H172.308ZM184.558 49.5652C183.673 49.5652 183.049 49.3252 182.686 48.8452C182.334 48.3652 182.158 47.6826 182.158 46.7972V42.2372H180.782V41.0372H182.158V38.5092H183.518V41.0372H186.11V42.2372H183.518V46.6212C183.518 46.9412 183.545 47.2346 183.598 47.5012C183.652 47.7572 183.764 47.9652 183.934 48.1252C184.105 48.2746 184.361 48.3546 184.702 48.3652C184.948 48.3652 185.161 48.3226 185.342 48.2372C185.534 48.1519 185.694 48.0506 185.822 47.9332L186.414 48.9252C186.233 49.0746 186.041 49.1972 185.838 49.2932C185.646 49.3892 185.444 49.4586 185.23 49.5012C185.028 49.5439 184.804 49.5652 184.558 49.5652ZM192.367 49.4692V38.1572H196.287C197.119 38.1572 197.833 38.2959 198.431 38.5732C199.028 38.8399 199.481 39.2506 199.791 39.8052C200.111 40.3599 200.271 41.0639 200.271 41.9172C200.271 42.7492 200.084 43.4532 199.711 44.0292C199.348 44.5946 198.847 45.0212 198.207 45.3092C197.567 45.5972 196.831 45.7412 195.999 45.7412H193.759V49.4692H192.367ZM193.759 44.4772H195.935C196.799 44.4772 197.497 44.2746 198.031 43.8692C198.575 43.4532 198.847 42.7812 198.847 41.8532C198.847 41.0426 198.628 40.4346 198.191 40.0292C197.753 39.6239 197.097 39.4212 196.223 39.4212H193.759V44.4772ZM204.516 49.5652C204.132 49.5652 203.759 49.5172 203.396 49.4212C203.044 49.3146 202.724 49.1599 202.436 48.9572C202.159 48.7439 201.935 48.4826 201.764 48.1732C201.604 47.8532 201.524 47.4852 201.524 47.0692C201.524 46.5892 201.61 46.1839 201.78 45.8532C201.962 45.5226 202.202 45.2612 202.5 45.0692C202.799 44.8772 203.146 44.7386 203.54 44.6532C203.935 44.5679 204.346 44.5252 204.772 44.5252H207.252C207.252 44.0452 207.183 43.6292 207.044 43.2772C206.916 42.9252 206.703 42.6532 206.404 42.4612C206.106 42.2586 205.711 42.1572 205.22 42.1572C204.922 42.1572 204.644 42.1892 204.388 42.2532C204.132 42.3172 203.914 42.4186 203.732 42.5572C203.551 42.6959 203.418 42.8826 203.332 43.1172H201.876C201.951 42.7332 202.095 42.4079 202.308 42.1412C202.532 41.8639 202.799 41.6399 203.108 41.4692C203.428 41.2879 203.77 41.1546 204.132 41.0692C204.495 40.9839 204.858 40.9412 205.22 40.9412C206.436 40.9412 207.3 41.2986 207.812 42.0132C208.324 42.7279 208.58 43.6932 208.58 44.9092V49.4692H207.444L207.364 48.3972C207.13 48.7172 206.847 48.9626 206.516 49.1332C206.186 49.3039 205.844 49.4159 205.492 49.4692C205.151 49.5332 204.826 49.5652 204.516 49.5652ZM204.644 48.3652C205.178 48.3652 205.636 48.2799 206.02 48.1092C206.415 47.9279 206.719 47.6666 206.932 47.3252C207.146 46.9839 207.252 46.5679 207.252 46.0772V45.6612H205.764C205.412 45.6612 205.066 45.6666 204.724 45.6772C204.383 45.6879 204.074 45.7306 203.796 45.8052C203.519 45.8799 203.295 46.0079 203.124 46.1892C202.964 46.3706 202.884 46.6319 202.884 46.9732C202.884 47.2932 202.964 47.5546 203.124 47.7572C203.295 47.9599 203.514 48.1146 203.78 48.2212C204.058 48.3172 204.346 48.3652 204.644 48.3652ZM214.399 53.2452C213.749 53.2452 213.119 53.1546 212.511 52.9732C211.914 52.7919 211.375 52.4772 210.895 52.0292L211.487 50.9572C211.903 51.2879 212.346 51.5492 212.815 51.7412C213.295 51.9332 213.797 52.0292 214.319 52.0292C215.194 52.0292 215.818 51.7732 216.191 51.2612C216.575 50.7599 216.767 50.1199 216.767 49.3412V48.3332C216.575 48.6212 216.33 48.8612 216.031 49.0532C215.743 49.2346 215.423 49.3732 215.071 49.4692C214.719 49.5546 214.357 49.5972 213.983 49.5972C213.151 49.5972 212.495 49.4319 212.015 49.1012C211.535 48.7706 211.194 48.3119 210.991 47.7252C210.789 47.1386 210.687 46.4612 210.687 45.6932V41.0372H212.047V45.3092C212.047 45.6932 212.069 46.0719 212.111 46.4452C212.165 46.8079 212.266 47.1386 212.415 47.4372C212.565 47.7252 212.783 47.9599 213.071 48.1412C213.359 48.3119 213.743 48.3972 214.223 48.3972C214.831 48.3972 215.317 48.2479 215.679 47.9492C216.053 47.6506 216.319 47.2506 216.479 46.7492C216.65 46.2479 216.735 45.6932 216.735 45.0852V41.0372H218.095V49.4692C218.095 50.0772 218.015 50.6159 217.855 51.0852C217.695 51.5546 217.455 51.9492 217.135 52.2692C216.815 52.5892 216.426 52.8292 215.967 52.9892C215.519 53.1599 214.997 53.2452 214.399 53.2452ZM220.234 49.4692V41.0372H221.546L221.61 42.0452C221.791 41.7892 221.994 41.5812 222.218 41.4212C222.453 41.2612 222.709 41.1439 222.986 41.0692C223.274 40.9839 223.578 40.9412 223.898 40.9412C224.485 40.9412 224.959 41.0692 225.322 41.3252C225.685 41.5706 225.957 41.8959 226.138 42.3012C226.33 42.0132 226.549 41.7679 226.794 41.5652C227.05 41.3626 227.333 41.2079 227.642 41.1012C227.962 40.9946 228.314 40.9412 228.698 40.9412C229.317 40.9412 229.813 41.0746 230.186 41.3412C230.57 41.6079 230.847 41.9706 231.018 42.4292C231.189 42.8772 231.274 43.3839 231.274 43.9492V49.4692H229.914V44.6372C229.914 44.3599 229.898 44.0772 229.866 43.7892C229.845 43.5012 229.781 43.2346 229.674 42.9892C229.567 42.7332 229.407 42.5306 229.194 42.3812C228.991 42.2212 228.703 42.1412 228.33 42.1412C227.978 42.1412 227.679 42.2266 227.434 42.3972C227.199 42.5572 227.007 42.7759 226.858 43.0532C226.709 43.3306 226.602 43.6292 226.538 43.9492C226.474 44.2586 226.442 44.5679 226.442 44.8772V49.4692H225.082V44.6212C225.082 44.3546 225.066 44.0772 225.034 43.7892C225.013 43.5012 224.954 43.2346 224.858 42.9892C224.773 42.7332 224.623 42.5306 224.41 42.3812C224.207 42.2212 223.925 42.1412 223.562 42.1412C223.05 42.1412 222.65 42.2906 222.362 42.5892C222.074 42.8772 221.871 43.2346 221.754 43.6612C221.647 44.0772 221.594 44.4879 221.594 44.8932V49.4692H220.234ZM236.991 49.5652C236.095 49.5652 235.354 49.3839 234.767 49.0212C234.181 48.6479 233.743 48.1359 233.455 47.4852C233.167 46.8346 233.023 46.0932 233.023 45.2612C233.023 44.4186 233.173 43.6772 233.471 43.0372C233.781 42.3866 234.229 41.8746 234.815 41.5012C235.402 41.1279 236.122 40.9412 236.975 40.9412C237.637 40.9412 238.202 41.0692 238.671 41.3252C239.151 41.5706 239.546 41.9012 239.855 42.3172C240.165 42.7332 240.389 43.1919 240.527 43.6932C240.666 44.1839 240.725 44.6799 240.703 45.1812C240.693 45.2772 240.682 45.3732 240.671 45.4692C240.671 45.5652 240.666 45.6612 240.655 45.7572H234.399C234.442 46.2479 234.565 46.6906 234.767 47.0852C234.97 47.4799 235.258 47.7946 235.631 48.0292C236.005 48.2532 236.469 48.3652 237.023 48.3652C237.301 48.3652 237.578 48.3332 237.855 48.2692C238.143 48.1946 238.399 48.0719 238.623 47.9012C238.858 47.7306 239.023 47.5012 239.119 47.2132H240.511C240.383 47.7572 240.143 48.2052 239.791 48.5572C239.439 48.8986 239.018 49.1546 238.527 49.3252C238.037 49.4852 237.525 49.5652 236.991 49.5652ZM234.431 44.5732H239.311C239.301 44.0932 239.194 43.6719 238.991 43.3092C238.789 42.9466 238.511 42.6639 238.159 42.4612C237.818 42.2586 237.407 42.1572 236.927 42.1572C236.405 42.1572 235.962 42.2692 235.599 42.4932C235.247 42.7172 234.975 43.0106 234.783 43.3732C234.591 43.7359 234.474 44.1359 234.431 44.5732ZM242.515 49.4692V41.0372H243.827L243.891 42.3172C244.083 42.0079 244.329 41.7519 244.627 41.5492C244.926 41.3466 245.251 41.1972 245.603 41.1012C245.966 40.9946 246.318 40.9412 246.659 40.9412C247.481 40.9412 248.121 41.1119 248.579 41.4532C249.049 41.7946 249.379 42.2586 249.571 42.8452C249.774 43.4212 249.875 44.0772 249.875 44.8132V49.4692H248.515V45.1812C248.515 44.7866 248.489 44.4079 248.435 44.0452C248.393 43.6826 248.297 43.3572 248.147 43.0692C248.009 42.7812 247.806 42.5572 247.539 42.3972C247.273 42.2266 246.915 42.1412 246.467 42.1412C245.913 42.1412 245.438 42.2959 245.043 42.6052C244.659 42.9146 244.366 43.3306 244.163 43.8532C243.971 44.3759 243.875 44.9626 243.875 45.6132V49.4692H242.515ZM255.136 49.5652C254.251 49.5652 253.627 49.3252 253.264 48.8452C252.912 48.3652 252.736 47.6826 252.736 46.7972V42.2372H251.36V41.0372H252.736V38.5092H254.096V41.0372H256.688V42.2372H254.096V46.6212C254.096 46.9412 254.123 47.2346 254.176 47.5012C254.23 47.7572 254.342 47.9652 254.512 48.1252C254.683 48.2746 254.939 48.3546 255.28 48.3652C255.526 48.3652 255.739 48.3226 255.92 48.2372C256.112 48.1519 256.272 48.0506 256.4 47.9332L256.992 48.9252C256.811 49.0746 256.619 49.1972 256.416 49.2932C256.224 49.3892 256.022 49.4586 255.808 49.5012C255.606 49.5439 255.382 49.5652 255.136 49.5652ZM265.793 49.5652C264.907 49.5652 264.283 49.3252 263.921 48.8452C263.569 48.3652 263.393 47.6826 263.393 46.7972V42.2372H262.017V41.0372H263.393V38.5092H264.753V41.0372H267.345V42.2372H264.753V46.6212C264.753 46.9412 264.779 47.2346 264.833 47.5012C264.886 47.7572 264.998 47.9652 265.169 48.1252C265.339 48.2746 265.595 48.3546 265.937 48.3652C266.182 48.3652 266.395 48.3226 266.577 48.2372C266.769 48.1519 266.929 48.0506 267.057 47.9332L267.649 48.9252C267.467 49.0746 267.275 49.1972 267.073 49.2932C266.881 49.3892 266.678 49.4586 266.465 49.5012C266.262 49.5439 266.038 49.5652 265.793 49.5652ZM272.648 49.5652C271.763 49.5652 271.022 49.3839 270.424 49.0212C269.827 48.6479 269.379 48.1359 269.08 47.4852C268.792 46.8346 268.648 46.0932 268.648 45.2612C268.648 44.4186 268.798 43.6772 269.096 43.0372C269.395 42.3866 269.843 41.8746 270.44 41.5012C271.038 41.1279 271.784 40.9412 272.68 40.9412C273.566 40.9412 274.302 41.1279 274.888 41.5012C275.486 41.8746 275.928 42.3866 276.216 43.0372C276.515 43.6772 276.664 44.4186 276.664 45.2612C276.664 46.0932 276.515 46.8346 276.216 47.4852C275.918 48.1359 275.47 48.6479 274.872 49.0212C274.286 49.3839 273.544 49.5652 272.648 49.5652ZM272.648 48.3652C273.267 48.3652 273.768 48.2266 274.152 47.9492C274.547 47.6719 274.835 47.2986 275.016 46.8292C275.208 46.3599 275.304 45.8372 275.304 45.2612C275.304 44.6852 275.208 44.1626 275.016 43.6932C274.835 43.2239 274.547 42.8506 274.152 42.5732C273.768 42.2959 273.267 42.1572 272.648 42.1572C272.04 42.1572 271.539 42.2959 271.144 42.5732C270.76 42.8506 270.472 43.2239 270.28 43.6932C270.099 44.1626 270.008 44.6852 270.008 45.2612C270.008 45.8372 270.099 46.3599 270.28 46.8292C270.472 47.2986 270.76 47.6719 271.144 47.9492C271.539 48.2266 272.04 48.3652 272.648 48.3652ZM283.067 49.4692V38.1572H291.051V39.9812H285.067V42.9572H290.267V44.7492H285.067V47.6452H291.051V49.4692H283.067ZM292.637 49.4692V41.0372H294.429L294.557 41.9972C294.771 41.7092 295 41.4906 295.245 41.3412C295.501 41.1812 295.763 41.0692 296.029 41.0052C296.307 40.9412 296.568 40.9092 296.813 40.9092C297.347 40.9092 297.8 41.0159 298.173 41.2292C298.557 41.4426 298.856 41.7626 299.069 42.1892C299.283 41.8906 299.523 41.6506 299.789 41.4692C300.056 41.2772 300.339 41.1386 300.637 41.0532C300.936 40.9572 301.251 40.9092 301.581 40.9092C302.232 40.9092 302.755 41.0479 303.149 41.3252C303.544 41.5919 303.832 41.9652 304.013 42.4452C304.195 42.9146 304.285 43.4532 304.285 44.0612V49.4692H302.333V44.6852C302.333 44.4719 302.323 44.2479 302.301 44.0132C302.28 43.7786 302.221 43.5599 302.125 43.3572C302.04 43.1546 301.912 42.9892 301.741 42.8612C301.571 42.7332 301.331 42.6692 301.021 42.6692C300.712 42.6692 300.456 42.7386 300.253 42.8772C300.061 43.0052 299.901 43.1812 299.773 43.4052C299.656 43.6186 299.571 43.8586 299.517 44.1252C299.475 44.3812 299.453 44.6372 299.453 44.8932V49.4692H297.501V44.6692C297.501 44.4666 297.485 44.2532 297.453 44.0292C297.432 43.7946 297.379 43.5759 297.293 43.3732C297.219 43.1599 297.091 42.9892 296.909 42.8612C296.739 42.7332 296.499 42.6692 296.189 42.6692C295.741 42.6692 295.4 42.7919 295.165 43.0372C294.941 43.2826 294.787 43.5812 294.701 43.9332C294.627 44.2852 294.589 44.6212 294.589 44.9412V49.4692H292.637ZM306.09 49.4692V41.0372H307.882L308.01 41.9972C308.224 41.7092 308.453 41.4906 308.698 41.3412C308.954 41.1812 309.216 41.0692 309.482 41.0052C309.76 40.9412 310.021 40.9092 310.266 40.9092C310.8 40.9092 311.253 41.0159 311.626 41.2292C312.01 41.4426 312.309 41.7626 312.522 42.1892C312.736 41.8906 312.976 41.6506 313.242 41.4692C313.509 41.2772 313.792 41.1386 314.09 41.0532C314.389 40.9572 314.704 40.9092 315.034 40.9092C315.685 40.9092 316.208 41.0479 316.602 41.3252C316.997 41.5919 317.285 41.9652 317.466 42.4452C317.648 42.9146 317.738 43.4532 317.738 44.0612V49.4692H315.786V44.6852C315.786 44.4719 315.776 44.2479 315.754 44.0132C315.733 43.7786 315.674 43.5599 315.578 43.3572C315.493 43.1546 315.365 42.9892 315.194 42.8612C315.024 42.7332 314.784 42.6692 314.474 42.6692C314.165 42.6692 313.909 42.7386 313.706 42.8772C313.514 43.0052 313.354 43.1812 313.226 43.4052C313.109 43.6186 313.024 43.8586 312.97 44.1252C312.928 44.3812 312.906 44.6372 312.906 44.8932V49.4692H310.954V44.6692C310.954 44.4666 310.938 44.2532 310.906 44.0292C310.885 43.7946 310.832 43.5759 310.746 43.3732C310.672 43.1599 310.544 42.9892 310.362 42.8612C310.192 42.7332 309.952 42.6692 309.642 42.6692C309.194 42.6692 308.853 42.7919 308.618 43.0372C308.394 43.2826 308.24 43.5812 308.154 43.9332C308.08 44.2852 308.042 44.6212 308.042 44.9412V49.4692H306.09ZM322.232 49.5812C321.837 49.5812 321.464 49.5279 321.112 49.4212C320.76 49.3146 320.445 49.1599 320.168 48.9572C319.89 48.7439 319.666 48.4826 319.496 48.1732C319.336 47.8532 319.256 47.4799 319.256 47.0532C319.256 46.5092 319.362 46.0666 319.576 45.7252C319.789 45.3732 320.077 45.1066 320.44 44.9252C320.813 44.7439 321.234 44.6212 321.704 44.5572C322.173 44.4826 322.664 44.4452 323.176 44.4452H324.824C324.824 44.0719 324.765 43.7519 324.648 43.4852C324.53 43.2079 324.344 42.9892 324.088 42.8292C323.842 42.6692 323.522 42.5892 323.128 42.5892C322.872 42.5892 322.632 42.6212 322.408 42.6852C322.194 42.7386 322.008 42.8292 321.848 42.9572C321.698 43.0746 321.592 43.2292 321.528 43.4212H319.528C319.602 42.9839 319.752 42.6106 319.976 42.3012C320.21 41.9812 320.493 41.7199 320.824 41.5172C321.165 41.3146 321.538 41.1652 321.944 41.0692C322.349 40.9626 322.76 40.9092 323.176 40.9092C324.402 40.9092 325.293 41.2612 325.848 41.9652C326.413 42.6692 326.696 43.6559 326.696 44.9252V49.4692H324.968L324.92 48.3812C324.674 48.7439 324.381 49.0106 324.04 49.1812C323.698 49.3519 323.368 49.4586 323.048 49.5012C322.728 49.5546 322.456 49.5812 322.232 49.5812ZM322.616 47.9972C323.042 47.9972 323.421 47.9172 323.752 47.7572C324.082 47.5972 324.344 47.3732 324.536 47.0852C324.738 46.7972 324.84 46.4666 324.84 46.0932V45.8212H323.304C323.048 45.8212 322.792 45.8319 322.536 45.8532C322.29 45.8639 322.066 45.9066 321.864 45.9812C321.661 46.0452 321.496 46.1466 321.368 46.2852C321.25 46.4239 321.192 46.6212 321.192 46.8772C321.192 47.1332 321.256 47.3412 321.384 47.5012C321.522 47.6612 321.698 47.7839 321.912 47.8692C322.136 47.9546 322.37 47.9972 322.616 47.9972ZM333.316 49.4692V38.1572H337.956C338.479 38.1572 338.959 38.2052 339.396 38.3012C339.844 38.3866 340.228 38.5412 340.548 38.7652C340.879 38.9892 341.135 39.2879 341.316 39.6612C341.498 40.0346 341.588 40.4986 341.588 41.0532C341.588 41.5652 341.471 42.0346 341.236 42.4612C341.002 42.8772 340.655 43.1919 340.196 43.4052C340.815 43.5652 341.29 43.8746 341.62 44.3332C341.951 44.7812 342.116 45.3679 342.116 46.0932C342.116 46.7439 341.994 47.2879 341.748 47.7252C341.514 48.1519 341.183 48.4932 340.756 48.7492C340.34 49.0052 339.855 49.1919 339.3 49.3092C338.746 49.4159 338.154 49.4692 337.524 49.4692H333.316ZM335.316 47.6452H337.7C337.999 47.6452 338.292 47.6239 338.58 47.5812C338.868 47.5386 339.13 47.4639 339.364 47.3572C339.599 47.2506 339.78 47.0959 339.908 46.8932C340.047 46.6799 340.116 46.4079 340.116 46.0772C340.116 45.7786 340.063 45.5332 339.956 45.3412C339.85 45.1492 339.7 44.9999 339.508 44.8932C339.327 44.7759 339.108 44.6959 338.852 44.6532C338.596 44.5999 338.33 44.5732 338.052 44.5732H335.316V47.6452ZM335.316 42.8932H337.428C337.759 42.8932 338.058 42.8612 338.324 42.7972C338.591 42.7332 338.82 42.6372 339.012 42.5092C339.204 42.3706 339.354 42.2052 339.46 42.0132C339.567 41.8106 339.62 41.5652 339.62 41.2772C339.62 40.9039 339.535 40.6266 339.364 40.4452C339.194 40.2532 338.959 40.1306 338.66 40.0772C338.372 40.0132 338.047 39.9812 337.684 39.9812H335.316V42.8932ZM343.715 49.4692V41.0372H345.491L345.603 42.1412C345.817 41.8212 346.057 41.5759 346.323 41.4052C346.601 41.2239 346.894 41.0959 347.203 41.0212C347.523 40.9466 347.843 40.9092 348.163 40.9092C348.281 40.9092 348.387 40.9092 348.483 40.9092C348.59 40.9092 348.675 40.9146 348.739 40.9252V42.7812H348.227C347.673 42.7812 347.203 42.8879 346.819 43.1012C346.435 43.3146 346.147 43.6186 345.955 44.0132C345.763 44.4079 345.667 44.8932 345.667 45.4692V49.4692H343.715ZM353.587 49.5812C352.723 49.5812 351.976 49.4052 351.347 49.0532C350.728 48.7012 350.248 48.1999 349.907 47.5492C349.576 46.8986 349.411 46.1359 349.411 45.2612C349.411 44.3759 349.582 43.6132 349.923 42.9732C350.264 42.3226 350.744 41.8159 351.363 41.4532C351.982 41.0906 352.723 40.9092 353.587 40.9092C354.44 40.9092 355.176 41.0906 355.795 41.4532C356.414 41.8159 356.888 42.3279 357.219 42.9892C357.55 43.6399 357.715 44.4079 357.715 45.2932C357.715 46.1572 357.55 46.9146 357.219 47.5652C356.899 48.2052 356.43 48.7012 355.811 49.0532C355.192 49.4052 354.451 49.5812 353.587 49.5812ZM353.571 47.8052C354.104 47.8052 354.531 47.6879 354.851 47.4532C355.182 47.2186 355.422 46.9092 355.571 46.5252C355.72 46.1412 355.795 45.7252 355.795 45.2772C355.795 44.8292 355.72 44.4079 355.571 44.0132C355.422 43.6186 355.182 43.3039 354.851 43.0692C354.531 42.8239 354.104 42.7012 353.571 42.7012C353.038 42.7012 352.606 42.8239 352.275 43.0692C351.944 43.3039 351.704 43.6186 351.555 44.0132C351.406 44.3972 351.331 44.8186 351.331 45.2772C351.331 45.7252 351.406 46.1466 351.555 46.5412C351.715 46.9252 351.955 47.2346 352.275 47.4692C352.606 47.6932 353.038 47.8052 353.571 47.8052ZM361.054 49.4692L358.414 41.0372H360.574L362.27 47.3252L364.078 41.0372H366.382L368.19 47.3252L369.87 41.0372H371.998L369.358 49.4692H367.022L365.198 43.3892L363.39 49.4692H361.054ZM373.028 49.4692V41.0372H374.852L374.964 42.1092C375.188 41.8106 375.449 41.5759 375.748 41.4052C376.047 41.2346 376.361 41.1119 376.692 41.0372C377.023 40.9519 377.332 40.9092 377.62 40.9092C378.42 40.9092 379.049 41.0852 379.508 41.4372C379.977 41.7892 380.308 42.2586 380.5 42.8452C380.692 43.4319 380.788 44.0879 380.788 44.8132V49.4692H378.836V45.1332C378.836 44.8239 378.815 44.5252 378.772 44.2372C378.729 43.9386 378.644 43.6719 378.516 43.4372C378.399 43.2026 378.228 43.0159 378.004 42.8772C377.78 42.7386 377.481 42.6692 377.108 42.6692C376.649 42.6692 376.26 42.7919 375.94 43.0372C375.62 43.2826 375.38 43.6132 375.22 44.0292C375.06 44.4346 374.98 44.8986 374.98 45.4212V49.4692H373.028ZM153.977 71.4692L151.353 63.0372H153.193L155.049 69.7412L157.001 63.0372H159.065L161.017 69.7412L162.841 63.0372H164.681L162.057 71.4692H159.961L158.009 65.0212L156.073 71.4692H153.977ZM165.826 71.4692V63.0372H167.474V71.4692H165.826ZM166.642 61.9172C166.322 61.9172 166.061 61.8212 165.858 61.6292C165.666 61.4266 165.57 61.1706 165.57 60.8612C165.57 60.5519 165.672 60.3012 165.874 60.1092C166.077 59.9066 166.333 59.8052 166.642 59.8052C166.93 59.8052 167.181 59.9066 167.394 60.1092C167.618 60.3012 167.73 60.5519 167.73 60.8612C167.73 61.1706 167.624 61.4266 167.41 61.6292C167.208 61.8212 166.952 61.9172 166.642 61.9172ZM169.514 71.4692V60.1572H171.162V71.4692H169.514ZM173.201 71.4692V60.1572H174.849V71.4692H173.201ZM185.327 71.5652C184.943 71.5652 184.586 71.5226 184.255 71.4372C183.935 71.3412 183.642 71.2079 183.375 71.0372C183.119 70.8666 182.895 70.6692 182.703 70.4452L182.639 71.4692H181.343V60.1572H182.703V64.2532C182.981 63.8266 183.375 63.5012 183.887 63.2772C184.41 63.0532 184.943 62.9412 185.487 62.9412C186.341 62.9412 187.039 63.1332 187.583 63.5172C188.127 63.8906 188.527 64.4026 188.783 65.0532C189.05 65.6932 189.183 66.4186 189.183 67.2292C189.183 68.0292 189.045 68.7599 188.767 69.4212C188.49 70.0719 188.069 70.5946 187.503 70.9892C186.938 71.3732 186.213 71.5652 185.327 71.5652ZM185.311 70.3652C185.93 70.3652 186.421 70.2266 186.783 69.9492C187.146 69.6612 187.407 69.2826 187.567 68.8132C187.738 68.3439 187.823 67.8266 187.823 67.2612C187.823 66.6852 187.738 66.1626 187.567 65.6932C187.407 65.2239 187.141 64.8506 186.767 64.5732C186.394 64.2959 185.898 64.1572 185.279 64.1572C184.725 64.1572 184.25 64.3119 183.855 64.6212C183.471 64.9306 183.178 65.3252 182.975 65.8052C182.773 66.2852 182.671 66.7759 182.671 67.2772C182.671 67.8212 182.757 68.3279 182.927 68.7972C183.109 69.2666 183.391 69.6452 183.775 69.9332C184.17 70.2212 184.682 70.3652 185.311 70.3652ZM194.648 71.5652C193.752 71.5652 193.01 71.3839 192.424 71.0212C191.837 70.6479 191.4 70.1359 191.112 69.4852C190.824 68.8346 190.68 68.0932 190.68 67.2612C190.68 66.4186 190.829 65.6772 191.128 65.0372C191.437 64.3866 191.885 63.8746 192.472 63.5012C193.058 63.1279 193.778 62.9412 194.632 62.9412C195.293 62.9412 195.858 63.0692 196.328 63.3252C196.808 63.5706 197.202 63.9012 197.512 64.3172C197.821 64.7332 198.045 65.1919 198.184 65.6932C198.322 66.1839 198.381 66.6799 198.36 67.1812C198.349 67.2772 198.338 67.3732 198.328 67.4692C198.328 67.5652 198.322 67.6612 198.312 67.7572H192.056C192.098 68.2479 192.221 68.6906 192.424 69.0852C192.626 69.4799 192.914 69.7946 193.288 70.0292C193.661 70.2532 194.125 70.3652 194.68 70.3652C194.957 70.3652 195.234 70.3332 195.512 70.2692C195.8 70.1946 196.056 70.0719 196.28 69.9012C196.514 69.7306 196.68 69.5012 196.776 69.2132H198.168C198.04 69.7572 197.8 70.2052 197.448 70.5572C197.096 70.8986 196.674 71.1546 196.184 71.3252C195.693 71.4852 195.181 71.5652 194.648 71.5652ZM192.088 66.5732H196.968C196.957 66.0932 196.85 65.6719 196.648 65.3092C196.445 64.9466 196.168 64.6639 195.816 64.4612C195.474 64.2586 195.064 64.1572 194.584 64.1572C194.061 64.1572 193.618 64.2692 193.256 64.4932C192.904 64.7172 192.632 65.0106 192.44 65.3732C192.248 65.7359 192.13 66.1359 192.088 66.5732ZM204.484 71.4692V63.0372H205.796L205.86 64.0452C206.041 63.7892 206.244 63.5812 206.468 63.4212C206.703 63.2612 206.959 63.1439 207.236 63.0692C207.524 62.9839 207.828 62.9412 208.148 62.9412C208.735 62.9412 209.209 63.0692 209.572 63.3252C209.935 63.5706 210.207 63.8959 210.388 64.3012C210.58 64.0132 210.799 63.7679 211.044 63.5652C211.3 63.3626 211.583 63.2079 211.892 63.1012C212.212 62.9946 212.564 62.9412 212.948 62.9412C213.567 62.9412 214.063 63.0746 214.436 63.3412C214.82 63.6079 215.097 63.9706 215.268 64.4292C215.439 64.8772 215.524 65.3839 215.524 65.9492V71.4692H214.164V66.6372C214.164 66.3599 214.148 66.0772 214.116 65.7892C214.095 65.5012 214.031 65.2346 213.924 64.9892C213.817 64.7332 213.657 64.5306 213.444 64.3812C213.241 64.2212 212.953 64.1412 212.58 64.1412C212.228 64.1412 211.929 64.2266 211.684 64.3972C211.449 64.5572 211.257 64.7759 211.108 65.0532C210.959 65.3306 210.852 65.6292 210.788 65.9492C210.724 66.2586 210.692 66.5679 210.692 66.8772V71.4692H209.332V66.6212C209.332 66.3546 209.316 66.0772 209.284 65.7892C209.263 65.5012 209.204 65.2346 209.108 64.9892C209.023 64.7332 208.873 64.5306 208.66 64.3812C208.457 64.2212 208.175 64.1412 207.812 64.1412C207.3 64.1412 206.9 64.2906 206.612 64.5892C206.324 64.8772 206.121 65.2346 206.004 65.6612C205.897 66.0772 205.844 66.4879 205.844 66.8932V71.4692H204.484ZM220.297 71.5652C219.913 71.5652 219.54 71.5172 219.177 71.4212C218.825 71.3146 218.505 71.1599 218.217 70.9572C217.94 70.7439 217.716 70.4826 217.545 70.1732C217.385 69.8532 217.305 69.4852 217.305 69.0692C217.305 68.5892 217.391 68.1839 217.561 67.8532C217.743 67.5226 217.983 67.2612 218.281 67.0692C218.58 66.8772 218.927 66.7386 219.321 66.6532C219.716 66.5679 220.127 66.5252 220.553 66.5252H223.033C223.033 66.0452 222.964 65.6292 222.825 65.2772C222.697 64.9252 222.484 64.6532 222.185 64.4612C221.887 64.2586 221.492 64.1572 221.001 64.1572C220.703 64.1572 220.425 64.1892 220.169 64.2532C219.913 64.3172 219.695 64.4186 219.513 64.5572C219.332 64.6959 219.199 64.8826 219.113 65.1172H217.657C217.732 64.7332 217.876 64.4079 218.089 64.1412C218.313 63.8639 218.58 63.6399 218.889 63.4692C219.209 63.2879 219.551 63.1546 219.913 63.0692C220.276 62.9839 220.639 62.9412 221.001 62.9412C222.217 62.9412 223.081 63.2986 223.593 64.0132C224.105 64.7279 224.361 65.6932 224.361 66.9092V71.4692H223.225L223.145 70.3972C222.911 70.7172 222.628 70.9626 222.297 71.1332C221.967 71.3039 221.625 71.4159 221.273 71.4692C220.932 71.5332 220.607 71.5652 220.297 71.5652ZM220.425 70.3652C220.959 70.3652 221.417 70.2799 221.801 70.1092C222.196 69.9279 222.5 69.6666 222.713 69.3252C222.927 68.9839 223.033 68.5679 223.033 68.0772V67.6612H221.545C221.193 67.6612 220.847 67.6666 220.505 67.6772C220.164 67.6879 219.855 67.7306 219.577 67.8052C219.3 67.8799 219.076 68.0079 218.905 68.1892C218.745 68.3706 218.665 68.6319 218.665 68.9732C218.665 69.2932 218.745 69.5546 218.905 69.7572C219.076 69.9599 219.295 70.1146 219.561 70.2212C219.839 70.3172 220.127 70.3652 220.425 70.3652ZM229.844 71.5652C229.002 71.5652 228.308 71.3786 227.764 71.0052C227.22 70.6212 226.815 70.1092 226.548 69.4692C226.282 68.8186 226.148 68.0879 226.148 67.2772C226.148 66.4666 226.282 65.7359 226.548 65.0852C226.815 64.4239 227.226 63.9012 227.78 63.5172C228.335 63.1332 229.044 62.9412 229.908 62.9412C230.239 62.9412 230.57 62.9839 230.9 63.0692C231.242 63.1439 231.562 63.2666 231.86 63.4372C232.159 63.5972 232.415 63.8159 232.628 64.0932V60.1572H233.988V71.4692H232.692L232.628 70.2052C232.436 70.5252 232.191 70.7866 231.892 70.9892C231.604 71.1812 231.284 71.3252 230.932 71.4212C230.58 71.5172 230.218 71.5652 229.844 71.5652ZM230.036 70.3652C230.602 70.3652 231.076 70.2212 231.46 69.9332C231.844 69.6452 232.138 69.2612 232.34 68.7812C232.543 68.3012 232.644 67.7786 232.644 67.2132C232.644 66.6266 232.543 66.1039 232.34 65.6452C232.148 65.1866 231.86 64.8239 231.476 64.5572C231.092 64.2906 230.607 64.1572 230.02 64.1572C229.412 64.1572 228.922 64.2959 228.548 64.5732C228.186 64.8506 227.919 65.2292 227.748 65.7092C227.588 66.1786 227.508 66.7066 227.508 67.2932C227.508 67.7199 227.551 68.1199 227.636 68.4932C227.732 68.8559 227.876 69.1812 228.068 69.4692C228.271 69.7466 228.532 69.9652 228.852 70.1252C229.172 70.2852 229.567 70.3652 230.036 70.3652ZM239.773 71.5652C238.877 71.5652 238.135 71.3839 237.549 71.0212C236.962 70.6479 236.525 70.1359 236.237 69.4852C235.949 68.8346 235.805 68.0932 235.805 67.2612C235.805 66.4186 235.954 65.6772 236.253 65.0372C236.562 64.3866 237.01 63.8746 237.597 63.5012C238.183 63.1279 238.903 62.9412 239.757 62.9412C240.418 62.9412 240.983 63.0692 241.453 63.3252C241.933 63.5706 242.327 63.9012 242.637 64.3172C242.946 64.7332 243.17 65.1919 243.309 65.6932C243.447 66.1839 243.506 66.6799 243.485 67.1812C243.474 67.2772 243.463 67.3732 243.453 67.4692C243.453 67.5652 243.447 67.6612 243.437 67.7572H237.181C237.223 68.2479 237.346 68.6906 237.549 69.0852C237.751 69.4799 238.039 69.7946 238.413 70.0292C238.786 70.2532 239.25 70.3652 239.805 70.3652C240.082 70.3652 240.359 70.3332 240.637 70.2692C240.925 70.1946 241.181 70.0719 241.405 69.9012C241.639 69.7306 241.805 69.5012 241.901 69.2132H243.293C243.165 69.7572 242.925 70.2052 242.573 70.5572C242.221 70.8986 241.799 71.1546 241.309 71.3252C240.818 71.4852 240.306 71.5652 239.773 71.5652ZM237.213 66.5732H242.093C242.082 66.0932 241.975 65.6719 241.773 65.3092C241.57 64.9466 241.293 64.6639 240.941 64.4612C240.599 64.2586 240.189 64.1572 239.709 64.1572C239.186 64.1572 238.743 64.2692 238.381 64.4932C238.029 64.7172 237.757 65.0106 237.565 65.3732C237.373 65.7359 237.255 66.1359 237.213 66.5732ZM253.289 71.5652C252.404 71.5652 251.662 71.3839 251.065 71.0212C250.468 70.6479 250.02 70.1359 249.721 69.4852C249.433 68.8346 249.289 68.0932 249.289 67.2612C249.289 66.4186 249.438 65.6772 249.737 65.0372C250.036 64.3866 250.484 63.8746 251.081 63.5012C251.678 63.1279 252.425 62.9412 253.321 62.9412C254.206 62.9412 254.942 63.1279 255.529 63.5012C256.126 63.8746 256.569 64.3866 256.857 65.0372C257.156 65.6772 257.305 66.4186 257.305 67.2612C257.305 68.0932 257.156 68.8346 256.857 69.4852C256.558 70.1359 256.11 70.6479 255.513 71.0212C254.926 71.3839 254.185 71.5652 253.289 71.5652ZM253.289 70.3652C253.908 70.3652 254.409 70.2266 254.793 69.9492C255.188 69.6719 255.476 69.2986 255.657 68.8292C255.849 68.3599 255.945 67.8372 255.945 67.2612C255.945 66.6852 255.849 66.1626 255.657 65.6932C255.476 65.2239 255.188 64.8506 254.793 64.5732C254.409 64.2959 253.908 64.1572 253.289 64.1572C252.681 64.1572 252.18 64.2959 251.785 64.5732C251.401 64.8506 251.113 65.2239 250.921 65.6932C250.74 66.1626 250.649 66.6852 250.649 67.2612C250.649 67.8372 250.74 68.3599 250.921 68.8292C251.113 69.2986 251.401 69.6719 251.785 69.9492C252.18 70.2266 252.681 70.3652 253.289 70.3652ZM259.125 71.4692V63.0372H260.437L260.501 64.3172C260.693 64.0079 260.938 63.7519 261.237 63.5492C261.535 63.3466 261.861 63.1972 262.213 63.1012C262.575 62.9946 262.927 62.9412 263.269 62.9412C264.09 62.9412 264.73 63.1119 265.189 63.4532C265.658 63.7946 265.989 64.2586 266.181 64.8452C266.383 65.4212 266.485 66.0772 266.485 66.8132V71.4692H265.125V67.1812C265.125 66.7866 265.098 66.4079 265.045 66.0452C265.002 65.6826 264.906 65.3572 264.757 65.0692C264.618 64.7812 264.415 64.5572 264.149 64.3972C263.882 64.2266 263.525 64.1412 263.077 64.1412C262.522 64.1412 262.047 64.2959 261.653 64.6052C261.269 64.9146 260.975 65.3306 260.773 65.8532C260.581 66.3759 260.485 66.9626 260.485 67.6132V71.4692H259.125ZM276.792 71.5972C276.291 71.5972 275.816 71.5386 275.368 71.4212C274.92 71.2932 274.515 71.1012 274.152 70.8452C273.79 70.5892 273.486 70.2639 273.24 69.8692C273.006 69.4639 272.846 68.9892 272.76 68.4452H274.728C274.814 68.6799 274.952 68.8986 275.144 69.1012C275.347 69.3039 275.587 69.4639 275.864 69.5812C276.152 69.6986 276.462 69.7572 276.792 69.7572C277.24 69.7572 277.624 69.6826 277.944 69.5332C278.264 69.3732 278.515 69.1492 278.696 68.8612C278.878 68.5626 278.968 68.2052 278.968 67.7892C278.968 67.1706 278.776 66.6852 278.392 66.3332C278.019 65.9812 277.507 65.8052 276.856 65.8052C276.472 65.8052 276.115 65.8746 275.784 66.0132C275.454 66.1412 275.144 66.3226 274.856 66.5572H273.08L273.384 60.1572H280.6V61.9812H275.224L275.032 64.6852C275.352 64.4612 275.72 64.2959 276.136 64.1892C276.552 64.0719 277.006 64.0186 277.496 64.0292C278.222 64.0399 278.846 64.1999 279.368 64.5092C279.902 64.8079 280.307 65.2239 280.584 65.7572C280.862 66.2906 281 66.9199 281 67.6452C281 68.4879 280.814 69.2026 280.44 69.7892C280.078 70.3759 279.576 70.8239 278.936 71.1332C278.307 71.4426 277.592 71.5972 276.792 71.5972ZM286.364 71.4692C285.682 71.4692 285.116 71.3786 284.668 71.1972C284.231 71.0159 283.9 70.7226 283.676 70.3172C283.463 69.9119 283.356 69.3679 283.356 68.6852V64.7652H282.06V63.0372H283.356V60.6852H285.308V63.0372H287.276V64.7652H285.308V68.4292C285.308 68.8559 285.383 69.1812 285.532 69.4052C285.682 69.6292 286.018 69.7412 286.54 69.7412H287.212V71.4692H286.364ZM288.575 71.4692V60.1572H290.527V64.1252C290.751 63.8372 291.012 63.6026 291.311 63.4212C291.61 63.2399 291.924 63.1119 292.255 63.0372C292.586 62.9519 292.9 62.9092 293.199 62.9092C293.999 62.9092 294.628 63.0852 295.087 63.4372C295.546 63.7892 295.866 64.2586 296.047 64.8452C296.239 65.4319 296.335 66.0932 296.335 66.8292V71.4692H294.383V67.1652C294.383 66.8772 294.362 66.5839 294.319 66.2852C294.276 65.9866 294.191 65.7199 294.063 65.4852C293.946 65.2399 293.764 65.0426 293.519 64.8932C293.284 64.7439 292.97 64.6692 292.575 64.6692C292.202 64.6692 291.882 64.7492 291.615 64.9092C291.348 65.0586 291.135 65.2666 290.975 65.5332C290.826 65.7999 290.714 66.0932 290.639 66.4132C290.564 66.7332 290.527 67.0532 290.527 67.3732V71.4692H288.575ZM301.742 71.4692L306.078 60.1572H308.462L312.782 71.4692H310.622L309.87 69.3732H304.654L303.886 71.4692H301.742ZM305.294 67.5652H309.214L307.262 62.1732L305.294 67.5652ZM313.794 74.5732V63.0372H315.618L315.714 64.1732C316.044 63.7359 316.439 63.4159 316.898 63.2132C317.356 63.0106 317.863 62.9092 318.418 62.9092C319.25 62.9092 319.938 63.1012 320.482 63.4852C321.026 63.8692 321.431 64.3866 321.698 65.0372C321.964 65.6879 322.098 66.4239 322.098 67.2452C322.098 68.0666 321.959 68.8079 321.682 69.4692C321.404 70.1199 320.983 70.6372 320.418 71.0212C319.863 71.3946 319.164 71.5812 318.322 71.5812C317.927 71.5812 317.564 71.5386 317.234 71.4532C316.914 71.3679 316.626 71.2452 316.37 71.0852C316.124 70.9252 315.916 70.7439 315.746 70.5412V74.5732H313.794ZM318.018 69.8212C318.562 69.8212 318.988 69.7039 319.298 69.4692C319.607 69.2239 319.831 68.9092 319.97 68.5252C320.108 68.1306 320.178 67.7146 320.178 67.2772C320.178 66.8186 320.103 66.3919 319.954 65.9972C319.815 65.6026 319.586 65.2826 319.266 65.0372C318.946 64.7919 318.519 64.6692 317.986 64.6692C317.495 64.6692 317.079 64.7919 316.738 65.0372C316.407 65.2719 316.156 65.5866 315.986 65.9812C315.815 66.3759 315.73 66.8026 315.73 67.2612C315.73 67.7306 315.81 68.1626 315.97 68.5572C316.13 68.9412 316.38 69.2506 316.722 69.4852C317.063 69.7092 317.495 69.8212 318.018 69.8212ZM323.669 71.4692V63.0372H325.445L325.557 64.1412C325.77 63.8212 326.01 63.5759 326.277 63.4052C326.554 63.2239 326.847 63.0959 327.157 63.0212C327.477 62.9466 327.797 62.9092 328.117 62.9092C328.234 62.9092 328.341 62.9092 328.437 62.9092C328.543 62.9092 328.629 62.9146 328.693 62.9252V64.7812H328.181C327.626 64.7812 327.157 64.8879 326.773 65.1012C326.389 65.3146 326.101 65.6186 325.909 66.0132C325.717 66.4079 325.621 66.8932 325.621 67.4692V71.4692H323.669ZM329.84 71.4692V63.0372H331.792V71.4692H329.84ZM330.816 62.0612C330.443 62.0612 330.144 61.9492 329.92 61.7252C329.696 61.5012 329.584 61.2079 329.584 60.8452C329.584 60.4932 329.702 60.2052 329.936 59.9812C330.171 59.7466 330.464 59.6292 330.816 59.6292C331.158 59.6292 331.451 59.7412 331.696 59.9652C331.942 60.1892 332.064 60.4826 332.064 60.8452C332.064 61.2079 331.947 61.5012 331.712 61.7252C331.478 61.9492 331.179 62.0612 330.816 62.0612ZM333.684 71.4692V60.1572H335.636V71.4692H333.684ZM341.421 71.4692V69.8212L344.573 67.1652C344.829 66.9519 345.112 66.7172 345.421 66.4612C345.73 66.2052 346.024 65.9279 346.301 65.6292C346.589 65.3199 346.829 64.9999 347.021 64.6692C347.213 64.3386 347.309 63.9919 347.309 63.6292C347.309 63.0852 347.144 62.6586 346.813 62.3492C346.493 62.0399 346.034 61.8852 345.437 61.8852C344.914 61.8852 344.488 61.9972 344.157 62.2212C343.826 62.4452 343.618 62.7492 343.533 63.1332H341.565C341.64 62.4186 341.869 61.8372 342.253 61.3892C342.648 60.9306 343.133 60.5892 343.709 60.3652C344.285 60.1306 344.888 60.0132 345.517 60.0132C346.232 60.0132 346.872 60.1466 347.437 60.4132C348.002 60.6692 348.45 61.0532 348.781 61.5652C349.122 62.0666 349.293 62.6799 349.293 63.4052C349.293 64.0559 349.165 64.6426 348.909 65.1652C348.664 65.6879 348.328 66.1679 347.901 66.6052C347.485 67.0319 347.026 67.4532 346.525 67.8692L344.365 69.6452H349.325V71.4692H341.421ZM355.317 71.5972C354.496 71.5972 353.797 71.4532 353.221 71.1652C352.645 70.8666 352.181 70.4506 351.829 69.9172C351.477 69.3839 351.216 68.7706 351.045 68.0772C350.885 67.3839 350.805 66.6372 350.805 65.8372C350.805 65.0266 350.885 64.2692 351.045 63.5652C351.216 62.8612 351.477 62.2479 351.829 61.7252C352.192 61.1919 352.661 60.7759 353.237 60.4772C353.813 60.1679 354.512 60.0132 355.333 60.0132C356.176 60.0132 356.885 60.1732 357.461 60.4932C358.048 60.8132 358.512 61.2452 358.853 61.7892C359.205 62.3332 359.456 62.9519 359.605 63.6452C359.765 64.3386 359.845 65.0639 359.845 65.8212C359.845 66.5679 359.765 67.2879 359.605 67.9812C359.456 68.6746 359.205 69.2932 358.853 69.8372C358.501 70.3812 358.032 70.8132 357.445 71.1332C356.869 71.4426 356.16 71.5972 355.317 71.5972ZM355.317 69.7732C355.861 69.7732 356.299 69.6452 356.629 69.3892C356.971 69.1332 357.227 68.8079 357.397 68.4132C357.568 68.0079 357.68 67.5759 357.733 67.1172C357.797 66.6586 357.829 66.2266 357.829 65.8212C357.829 65.4159 357.803 64.9892 357.749 64.5412C357.696 64.0826 357.584 63.6506 357.413 63.2452C357.243 62.8399 356.992 62.5092 356.661 62.2532C356.331 61.9972 355.888 61.8692 355.333 61.8692C354.779 61.8692 354.331 61.9972 353.989 62.2532C353.659 62.5092 353.408 62.8399 353.237 63.2452C353.067 63.6399 352.949 64.0666 352.885 64.5252C352.832 64.9839 352.805 65.4159 352.805 65.8212C352.805 66.2266 352.832 66.6586 352.885 67.1172C352.939 67.5652 353.045 67.9919 353.205 68.3972C353.376 68.8026 353.627 69.1332 353.957 69.3892C354.299 69.6452 354.752 69.7732 355.317 69.7732ZM360.765 71.4692V69.8212L363.917 67.1652C364.173 66.9519 364.456 66.7172 364.765 66.4612C365.074 66.2052 365.368 65.9279 365.645 65.6292C365.933 65.3199 366.173 64.9999 366.365 64.6692C366.557 64.3386 366.653 63.9919 366.653 63.6292C366.653 63.0852 366.488 62.6586 366.157 62.3492C365.837 62.0399 365.378 61.8852 364.781 61.8852C364.258 61.8852 363.832 61.9972 363.501 62.2212C363.17 62.4452 362.962 62.7492 362.877 63.1332H360.909C360.984 62.4186 361.213 61.8372 361.597 61.3892C361.992 60.9306 362.477 60.5892 363.053 60.3652C363.629 60.1306 364.232 60.0132 364.861 60.0132C365.576 60.0132 366.216 60.1466 366.781 60.4132C367.346 60.6692 367.794 61.0532 368.125 61.5652C368.466 62.0666 368.637 62.6799 368.637 63.4052C368.637 64.0559 368.509 64.6426 368.253 65.1652C368.008 65.6879 367.672 66.1679 367.245 66.6052C366.829 67.0319 366.37 67.4532 365.869 67.8692L363.709 69.6452H368.669V71.4692H360.765ZM374.597 71.5972C373.808 71.5972 373.131 71.4479 372.565 71.1492C372 70.8506 371.541 70.4452 371.189 69.9332C370.837 69.4212 370.576 68.8346 370.405 68.1732C370.245 67.5119 370.165 66.8186 370.165 66.0932C370.165 65.2719 370.251 64.4986 370.421 63.7732C370.603 63.0372 370.88 62.3919 371.253 61.8372C371.627 61.2719 372.107 60.8292 372.693 60.5092C373.291 60.1786 373.995 60.0132 374.805 60.0132C375.413 60.0132 375.973 60.1199 376.485 60.3332C377.008 60.5466 377.445 60.8666 377.797 61.2932C378.149 61.7199 378.389 62.2532 378.517 62.8932H376.597C376.448 62.5519 376.203 62.2906 375.861 62.1092C375.531 61.9172 375.163 61.8212 374.757 61.8212C374.341 61.8212 373.979 61.9012 373.669 62.0612C373.371 62.2106 373.115 62.4132 372.901 62.6692C372.688 62.9146 372.517 63.2026 372.389 63.5332C372.261 63.8639 372.165 64.2052 372.101 64.5572C372.037 64.9092 372.005 65.2559 372.005 65.5972C372.261 65.2239 372.555 64.9359 372.885 64.7332C373.216 64.5199 373.563 64.3706 373.925 64.2852C374.288 64.1892 374.629 64.1412 374.949 64.1412C375.707 64.1412 376.352 64.2906 376.885 64.5892C377.429 64.8879 377.851 65.3092 378.149 65.8532C378.448 66.3866 378.597 67.0159 378.597 67.7412C378.597 68.5199 378.427 69.1972 378.085 69.7732C377.744 70.3492 377.269 70.7972 376.661 71.1172C376.064 71.4372 375.376 71.5972 374.597 71.5972ZM374.581 69.7892C374.997 69.7786 375.355 69.6879 375.653 69.5172C375.952 69.3466 376.181 69.1172 376.341 68.8292C376.512 68.5306 376.597 68.2052 376.597 67.8532C376.597 67.4799 376.517 67.1492 376.357 66.8612C376.197 66.5626 375.968 66.3279 375.669 66.1572C375.381 65.9759 375.035 65.8852 374.629 65.8852C374.245 65.8852 373.893 65.9706 373.573 66.1412C373.253 66.3012 372.997 66.5306 372.805 66.8292C372.613 67.1172 372.517 67.4532 372.517 67.8372C372.517 68.1892 372.603 68.5146 372.773 68.8132C372.955 69.1012 373.2 69.3359 373.509 69.5172C373.819 69.6986 374.176 69.7892 374.581 69.7892Z" fill="#495458"/>
</g>
<g filter="url(#filter1_d_618_27924)">
<rect x="22.5" y="83.5308" width="337.291" height="76" rx="24" fill="white" shape-rendering="crispEdges"/>
<path fill-rule="evenodd" clip-rule="evenodd" d="M58.499 112.531C53.5285 112.531 49.499 116.56 49.499 121.531C49.499 126.501 53.5285 130.531 58.499 130.531C63.4696 130.531 67.499 126.501 67.499 121.531C67.499 116.56 63.4696 112.531 58.499 112.531ZM47.499 121.531C47.499 115.456 52.4239 110.531 58.499 110.531C64.5742 110.531 69.499 115.456 69.499 121.531C69.499 127.606 64.5742 132.531 58.499 132.531C52.4239 132.531 47.499 127.606 47.499 121.531Z" fill="#FFCC00"/>
<path fill-rule="evenodd" clip-rule="evenodd" d="M58.5 114.531C59.0523 114.531 59.5 114.978 59.5 115.531V120.531H63C63.5523 120.531 64 120.978 64 121.531C64 122.083 63.5523 122.531 63 122.531H58.5C57.9477 122.531 57.5 122.083 57.5 121.531V115.531C57.5 114.978 57.9477 114.531 58.5 114.531Z" fill="#FFCC00"/>
<path d="M87.892 115.531V104.219H89.668L95.572 113.643V104.219H96.964V115.531H95.22L89.284 106.139V115.531H87.892ZM103.079 115.627C102.183 115.627 101.442 115.445 100.855 115.083C100.269 114.709 99.8314 114.197 99.5434 113.547C99.2554 112.896 99.1114 112.155 99.1114 111.323C99.1114 110.48 99.2607 109.739 99.5594 109.099C99.8687 108.448 100.317 107.936 100.903 107.563C101.49 107.189 102.21 107.003 103.063 107.003C103.725 107.003 104.29 107.131 104.759 107.387C105.239 107.632 105.634 107.963 105.943 108.379C106.253 108.795 106.477 109.253 106.615 109.755C106.754 110.245 106.813 110.741 106.791 111.243C106.781 111.339 106.77 111.435 106.759 111.531C106.759 111.627 106.754 111.723 106.743 111.819H100.487C100.53 112.309 100.653 112.752 100.855 113.147C101.058 113.541 101.346 113.856 101.719 114.091C102.093 114.315 102.557 114.427 103.111 114.427C103.389 114.427 103.666 114.395 103.943 114.331C104.231 114.256 104.487 114.133 104.711 113.963C104.946 113.792 105.111 113.563 105.207 113.275H106.599C106.471 113.819 106.231 114.267 105.879 114.619C105.527 114.96 105.106 115.216 104.615 115.387C104.125 115.547 103.613 115.627 103.079 115.627ZM100.519 110.635H105.399C105.389 110.155 105.282 109.733 105.079 109.371C104.877 109.008 104.599 108.725 104.247 108.523C103.906 108.32 103.495 108.219 103.015 108.219C102.493 108.219 102.05 108.331 101.687 108.555C101.335 108.779 101.063 109.072 100.871 109.435C100.679 109.797 100.562 110.197 100.519 110.635ZM107.599 115.531L110.607 111.227L107.743 107.099H109.375L111.519 110.299L113.599 107.099H115.183L112.335 111.275L115.391 115.531H113.775L111.439 112.315L109.135 115.531H107.599ZM119.849 115.627C118.964 115.627 118.34 115.387 117.977 114.907C117.625 114.427 117.449 113.744 117.449 112.859V108.299H116.073V107.099H117.449V104.571H118.809V107.099H121.401V108.299H118.809V112.683C118.809 113.003 118.836 113.296 118.889 113.563C118.943 113.819 119.055 114.027 119.225 114.187C119.396 114.336 119.652 114.416 119.993 114.427C120.239 114.427 120.452 114.384 120.633 114.299C120.825 114.213 120.985 114.112 121.113 113.995L121.705 114.987C121.524 115.136 121.332 115.259 121.129 115.355C120.937 115.451 120.735 115.52 120.521 115.563C120.319 115.605 120.095 115.627 119.849 115.627ZM127.658 115.531V104.219H131.578C132.41 104.219 133.124 104.357 133.722 104.635C134.319 104.901 134.772 105.312 135.082 105.867C135.402 106.421 135.562 107.125 135.562 107.979C135.562 108.811 135.375 109.515 135.002 110.091C134.639 110.656 134.138 111.083 133.498 111.371C132.858 111.659 132.122 111.803 131.29 111.803H129.05V115.531H127.658ZM129.05 110.539H131.226C132.09 110.539 132.788 110.336 133.322 109.931C133.866 109.515 134.138 108.843 134.138 107.915C134.138 107.104 133.919 106.496 133.482 106.091C133.044 105.685 132.388 105.483 131.514 105.483H129.05V110.539ZM139.807 115.627C139.423 115.627 139.05 115.579 138.687 115.483C138.335 115.376 138.015 115.221 137.727 115.019C137.45 114.805 137.226 114.544 137.055 114.235C136.895 113.915 136.815 113.547 136.815 113.131C136.815 112.651 136.901 112.245 137.071 111.915C137.253 111.584 137.493 111.323 137.791 111.131C138.09 110.939 138.437 110.8 138.831 110.715C139.226 110.629 139.637 110.587 140.063 110.587H142.543C142.543 110.107 142.474 109.691 142.335 109.339C142.207 108.987 141.994 108.715 141.695 108.523C141.397 108.32 141.002 108.219 140.511 108.219C140.213 108.219 139.935 108.251 139.679 108.315C139.423 108.379 139.205 108.48 139.023 108.619C138.842 108.757 138.709 108.944 138.623 109.179H137.167C137.242 108.795 137.386 108.469 137.599 108.203C137.823 107.925 138.09 107.701 138.399 107.531C138.719 107.349 139.061 107.216 139.423 107.131C139.786 107.045 140.149 107.003 140.511 107.003C141.727 107.003 142.591 107.36 143.103 108.075C143.615 108.789 143.871 109.755 143.871 110.971V115.531H142.735L142.655 114.459C142.421 114.779 142.138 115.024 141.807 115.195C141.477 115.365 141.135 115.477 140.783 115.531C140.442 115.595 140.117 115.627 139.807 115.627ZM139.935 114.427C140.469 114.427 140.927 114.341 141.311 114.171C141.706 113.989 142.01 113.728 142.223 113.387C142.437 113.045 142.543 112.629 142.543 112.139V111.723H141.055C140.703 111.723 140.357 111.728 140.015 111.739C139.674 111.749 139.365 111.792 139.087 111.867C138.81 111.941 138.586 112.069 138.415 112.251C138.255 112.432 138.175 112.693 138.175 113.035C138.175 113.355 138.255 113.616 138.415 113.819C138.586 114.021 138.805 114.176 139.071 114.283C139.349 114.379 139.637 114.427 139.935 114.427ZM149.69 119.307C149.04 119.307 148.41 119.216 147.802 119.035C147.205 118.853 146.666 118.539 146.186 118.091L146.778 117.019C147.194 117.349 147.637 117.611 148.106 117.803C148.586 117.995 149.088 118.091 149.61 118.091C150.485 118.091 151.109 117.835 151.482 117.323C151.866 116.821 152.058 116.181 152.058 115.403V114.395C151.866 114.683 151.621 114.923 151.322 115.115C151.034 115.296 150.714 115.435 150.362 115.531C150.01 115.616 149.648 115.659 149.274 115.659C148.442 115.659 147.786 115.493 147.306 115.163C146.826 114.832 146.485 114.373 146.282 113.787C146.08 113.2 145.978 112.523 145.978 111.755V107.099H147.338V111.371C147.338 111.755 147.36 112.133 147.402 112.507C147.456 112.869 147.557 113.2 147.706 113.499C147.856 113.787 148.074 114.021 148.362 114.203C148.65 114.373 149.034 114.459 149.514 114.459C150.122 114.459 150.608 114.309 150.97 114.011C151.344 113.712 151.61 113.312 151.77 112.811C151.941 112.309 152.026 111.755 152.026 111.147V107.099H153.386V115.531C153.386 116.139 153.306 116.677 153.146 117.147C152.986 117.616 152.746 118.011 152.426 118.331C152.106 118.651 151.717 118.891 151.258 119.051C150.81 119.221 150.288 119.307 149.69 119.307ZM155.525 115.531V107.099H156.837L156.901 108.107C157.082 107.851 157.285 107.643 157.509 107.483C157.744 107.323 158 107.205 158.277 107.131C158.565 107.045 158.869 107.003 159.189 107.003C159.776 107.003 160.25 107.131 160.613 107.387C160.976 107.632 161.248 107.957 161.429 108.363C161.621 108.075 161.84 107.829 162.085 107.627C162.341 107.424 162.624 107.269 162.933 107.163C163.253 107.056 163.605 107.003 163.989 107.003C164.608 107.003 165.104 107.136 165.477 107.403C165.861 107.669 166.138 108.032 166.309 108.491C166.48 108.939 166.565 109.445 166.565 110.011V115.531H165.205V110.699C165.205 110.421 165.189 110.139 165.157 109.851C165.136 109.563 165.072 109.296 164.965 109.051C164.858 108.795 164.698 108.592 164.485 108.443C164.282 108.283 163.994 108.203 163.621 108.203C163.269 108.203 162.97 108.288 162.725 108.459C162.49 108.619 162.298 108.837 162.149 109.115C162 109.392 161.893 109.691 161.829 110.011C161.765 110.32 161.733 110.629 161.733 110.939V115.531H160.373V110.683C160.373 110.416 160.357 110.139 160.325 109.851C160.304 109.563 160.245 109.296 160.149 109.051C160.064 108.795 159.914 108.592 159.701 108.443C159.498 108.283 159.216 108.203 158.853 108.203C158.341 108.203 157.941 108.352 157.653 108.651C157.365 108.939 157.162 109.296 157.045 109.723C156.938 110.139 156.885 110.549 156.885 110.955V115.531H155.525ZM172.283 115.627C171.387 115.627 170.645 115.445 170.059 115.083C169.472 114.709 169.035 114.197 168.747 113.547C168.459 112.896 168.315 112.155 168.315 111.323C168.315 110.48 168.464 109.739 168.763 109.099C169.072 108.448 169.52 107.936 170.107 107.563C170.693 107.189 171.413 107.003 172.266 107.003C172.928 107.003 173.493 107.131 173.963 107.387C174.443 107.632 174.837 107.963 175.147 108.379C175.456 108.795 175.68 109.253 175.819 109.755C175.957 110.245 176.016 110.741 175.995 111.243C175.984 111.339 175.973 111.435 175.963 111.531C175.963 111.627 175.957 111.723 175.947 111.819H169.691C169.733 112.309 169.856 112.752 170.059 113.147C170.261 113.541 170.549 113.856 170.923 114.091C171.296 114.315 171.76 114.427 172.315 114.427C172.592 114.427 172.869 114.395 173.147 114.331C173.435 114.256 173.691 114.133 173.915 113.963C174.149 113.792 174.315 113.563 174.411 113.275H175.803C175.675 113.819 175.435 114.267 175.083 114.619C174.731 114.96 174.309 115.216 173.819 115.387C173.328 115.547 172.816 115.627 172.283 115.627ZM169.723 110.635H174.603C174.592 110.155 174.485 109.733 174.283 109.371C174.08 109.008 173.803 108.725 173.451 108.523C173.109 108.32 172.699 108.219 172.219 108.219C171.696 108.219 171.253 108.331 170.891 108.555C170.539 108.779 170.267 109.072 170.075 109.435C169.883 109.797 169.765 110.197 169.723 110.635ZM177.806 115.531V107.099H179.118L179.182 108.379C179.374 108.069 179.62 107.813 179.918 107.611C180.217 107.408 180.542 107.259 180.894 107.163C181.257 107.056 181.609 107.003 181.95 107.003C182.772 107.003 183.412 107.173 183.87 107.515C184.34 107.856 184.67 108.32 184.862 108.907C185.065 109.483 185.166 110.139 185.166 110.875V115.531H183.806V111.243C183.806 110.848 183.78 110.469 183.726 110.107C183.684 109.744 183.588 109.419 183.438 109.131C183.3 108.843 183.097 108.619 182.83 108.459C182.564 108.288 182.206 108.203 181.758 108.203C181.204 108.203 180.729 108.357 180.334 108.667C179.95 108.976 179.657 109.392 179.454 109.915C179.262 110.437 179.166 111.024 179.166 111.675V115.531H177.806ZM190.428 115.627C189.542 115.627 188.918 115.387 188.556 114.907C188.204 114.427 188.028 113.744 188.028 112.859V108.299H186.652V107.099H188.028V104.571H189.388V107.099H191.98V108.299H189.388V112.683C189.388 113.003 189.414 113.296 189.468 113.563C189.521 113.819 189.633 114.027 189.804 114.187C189.974 114.336 190.23 114.416 190.572 114.427C190.817 114.427 191.03 114.384 191.212 114.299C191.404 114.213 191.564 114.112 191.692 113.995L192.284 114.987C192.102 115.136 191.91 115.259 191.708 115.355C191.516 115.451 191.313 115.52 191.1 115.563C190.897 115.605 190.673 115.627 190.428 115.627ZM201.084 115.627C200.198 115.627 199.574 115.387 199.212 114.907C198.86 114.427 198.684 113.744 198.684 112.859V108.299H197.308V107.099H198.684V104.571H200.044V107.099H202.636V108.299H200.044V112.683C200.044 113.003 200.07 113.296 200.124 113.563C200.177 113.819 200.289 114.027 200.46 114.187C200.63 114.336 200.886 114.416 201.228 114.427C201.473 114.427 201.686 114.384 201.868 114.299C202.06 114.213 202.22 114.112 202.348 113.995L202.94 114.987C202.758 115.136 202.566 115.259 202.364 115.355C202.172 115.451 201.969 115.52 201.756 115.563C201.553 115.605 201.329 115.627 201.084 115.627ZM207.94 115.627C207.054 115.627 206.313 115.445 205.716 115.083C205.118 114.709 204.67 114.197 204.372 113.547C204.084 112.896 203.94 112.155 203.94 111.323C203.94 110.48 204.089 109.739 204.388 109.099C204.686 108.448 205.134 107.936 205.732 107.563C206.329 107.189 207.076 107.003 207.972 107.003C208.857 107.003 209.593 107.189 210.18 107.563C210.777 107.936 211.22 108.448 211.508 109.099C211.806 109.739 211.956 110.48 211.956 111.323C211.956 112.155 211.806 112.896 211.508 113.547C211.209 114.197 210.761 114.709 210.164 115.083C209.577 115.445 208.836 115.627 207.94 115.627ZM207.94 114.427C208.558 114.427 209.06 114.288 209.444 114.011C209.838 113.733 210.126 113.36 210.308 112.891C210.5 112.421 210.596 111.899 210.596 111.323C210.596 110.747 210.5 110.224 210.308 109.755C210.126 109.285 209.838 108.912 209.444 108.635C209.06 108.357 208.558 108.219 207.94 108.219C207.332 108.219 206.83 108.357 206.436 108.635C206.052 108.912 205.764 109.285 205.572 109.755C205.39 110.224 205.299 110.747 205.299 111.323C205.299 111.899 205.39 112.421 205.572 112.891C205.764 113.36 206.052 113.733 206.436 114.011C206.83 114.288 207.332 114.427 207.94 114.427ZM218.28 115.531V104.219H226.264V106.043H220.28V109.019H225.48V110.811H220.28V113.707H226.264V115.531H218.28ZM227.85 115.531V107.099H229.642L229.77 108.059C229.984 107.771 230.213 107.552 230.458 107.403C230.714 107.243 230.976 107.131 231.242 107.067C231.52 107.003 231.781 106.971 232.026 106.971C232.56 106.971 233.013 107.077 233.386 107.291C233.77 107.504 234.069 107.824 234.282 108.251C234.496 107.952 234.736 107.712 235.002 107.531C235.269 107.339 235.552 107.2 235.85 107.115C236.149 107.019 236.464 106.971 236.794 106.971C237.445 106.971 237.968 107.109 238.362 107.387C238.757 107.653 239.045 108.027 239.226 108.507C239.408 108.976 239.498 109.515 239.498 110.123V115.531H237.546V110.747C237.546 110.533 237.536 110.309 237.514 110.075C237.493 109.84 237.434 109.621 237.338 109.419C237.253 109.216 237.125 109.051 236.954 108.923C236.784 108.795 236.544 108.731 236.234 108.731C235.925 108.731 235.669 108.8 235.466 108.939C235.274 109.067 235.114 109.243 234.986 109.467C234.869 109.68 234.784 109.92 234.73 110.187C234.688 110.443 234.666 110.699 234.666 110.955V115.531H232.714V110.731C232.714 110.528 232.698 110.315 232.666 110.091C232.645 109.856 232.592 109.637 232.506 109.435C232.432 109.221 232.304 109.051 232.122 108.923C231.952 108.795 231.712 108.731 231.402 108.731C230.954 108.731 230.613 108.853 230.378 109.099C230.154 109.344 230 109.643 229.914 109.995C229.84 110.347 229.802 110.683 229.802 111.003V115.531H227.85ZM241.303 115.531V107.099H243.095L243.223 108.059C243.437 107.771 243.666 107.552 243.911 107.403C244.167 107.243 244.429 107.131 244.695 107.067C244.973 107.003 245.234 106.971 245.479 106.971C246.013 106.971 246.466 107.077 246.839 107.291C247.223 107.504 247.522 107.824 247.735 108.251C247.949 107.952 248.189 107.712 248.455 107.531C248.722 107.339 249.005 107.2 249.303 107.115C249.602 107.019 249.917 106.971 250.247 106.971C250.898 106.971 251.421 107.109 251.815 107.387C252.21 107.653 252.498 108.027 252.679 108.507C252.861 108.976 252.951 109.515 252.951 110.123V115.531H250.999V110.747C250.999 110.533 250.989 110.309 250.967 110.075C250.946 109.84 250.887 109.621 250.791 109.419C250.706 109.216 250.578 109.051 250.407 108.923C250.237 108.795 249.997 108.731 249.687 108.731C249.378 108.731 249.122 108.8 248.919 108.939C248.727 109.067 248.567 109.243 248.439 109.467C248.322 109.68 248.237 109.92 248.183 110.187C248.141 110.443 248.119 110.699 248.119 110.955V115.531H246.167V110.731C246.167 110.528 246.151 110.315 246.119 110.091C246.098 109.856 246.045 109.637 245.959 109.435C245.885 109.221 245.757 109.051 245.575 108.923C245.405 108.795 245.165 108.731 244.855 108.731C244.407 108.731 244.066 108.853 243.831 109.099C243.607 109.344 243.453 109.643 243.367 109.995C243.293 110.347 243.255 110.683 243.255 111.003V115.531H241.303ZM257.445 115.643C257.05 115.643 256.677 115.589 256.325 115.483C255.973 115.376 255.658 115.221 255.381 115.019C255.103 114.805 254.879 114.544 254.709 114.235C254.549 113.915 254.469 113.541 254.469 113.115C254.469 112.571 254.575 112.128 254.789 111.787C255.002 111.435 255.29 111.168 255.653 110.987C256.026 110.805 256.447 110.683 256.917 110.619C257.386 110.544 257.877 110.507 258.389 110.507H260.037C260.037 110.133 259.978 109.813 259.861 109.547C259.743 109.269 259.557 109.051 259.301 108.891C259.055 108.731 258.735 108.651 258.341 108.651C258.085 108.651 257.845 108.683 257.621 108.747C257.407 108.8 257.221 108.891 257.061 109.019C256.911 109.136 256.805 109.291 256.741 109.483H254.741C254.815 109.045 254.965 108.672 255.189 108.363C255.423 108.043 255.706 107.781 256.037 107.579C256.378 107.376 256.751 107.227 257.157 107.131C257.562 107.024 257.973 106.971 258.389 106.971C259.615 106.971 260.506 107.323 261.061 108.027C261.626 108.731 261.909 109.717 261.909 110.987V115.531H260.181L260.133 114.443C259.887 114.805 259.594 115.072 259.253 115.243C258.911 115.413 258.581 115.52 258.261 115.563C257.941 115.616 257.669 115.643 257.445 115.643ZM257.829 114.059C258.255 114.059 258.634 113.979 258.965 113.819C259.295 113.659 259.557 113.435 259.749 113.147C259.951 112.859 260.053 112.528 260.053 112.155V111.883H258.516C258.261 111.883 258.005 111.893 257.749 111.915C257.503 111.925 257.279 111.968 257.077 112.043C256.874 112.107 256.709 112.208 256.581 112.347C256.463 112.485 256.405 112.683 256.405 112.939C256.405 113.195 256.469 113.403 256.597 113.563C256.735 113.723 256.911 113.845 257.125 113.931C257.349 114.016 257.583 114.059 257.829 114.059ZM268.529 115.531V104.219H273.169C273.692 104.219 274.172 104.267 274.609 104.363C275.057 104.448 275.441 104.603 275.761 104.827C276.092 105.051 276.348 105.349 276.529 105.723C276.711 106.096 276.801 106.56 276.801 107.115C276.801 107.627 276.684 108.096 276.449 108.523C276.215 108.939 275.868 109.253 275.409 109.467C276.028 109.627 276.503 109.936 276.833 110.395C277.164 110.843 277.329 111.429 277.329 112.155C277.329 112.805 277.207 113.349 276.961 113.787C276.727 114.213 276.396 114.555 275.969 114.811C275.553 115.067 275.068 115.253 274.513 115.371C273.959 115.477 273.367 115.531 272.737 115.531H268.529ZM270.529 113.707H272.913C273.212 113.707 273.505 113.685 273.793 113.643C274.081 113.6 274.343 113.525 274.577 113.419C274.812 113.312 274.993 113.157 275.121 112.955C275.26 112.741 275.329 112.469 275.329 112.139C275.329 111.84 275.276 111.595 275.169 111.403C275.063 111.211 274.913 111.061 274.721 110.955C274.54 110.837 274.321 110.757 274.065 110.715C273.809 110.661 273.543 110.635 273.265 110.635H270.529V113.707ZM270.529 108.955H272.641C272.972 108.955 273.271 108.923 273.537 108.859C273.804 108.795 274.033 108.699 274.225 108.571C274.417 108.432 274.567 108.267 274.673 108.075C274.78 107.872 274.833 107.627 274.833 107.339C274.833 106.965 274.748 106.688 274.577 106.507C274.407 106.315 274.172 106.192 273.873 106.139C273.585 106.075 273.26 106.043 272.897 106.043H270.529V108.955ZM278.928 115.531V107.099H280.704L280.816 108.203C281.03 107.883 281.27 107.637 281.536 107.467C281.814 107.285 282.107 107.157 282.416 107.083C282.736 107.008 283.056 106.971 283.376 106.971C283.494 106.971 283.6 106.971 283.696 106.971C283.803 106.971 283.888 106.976 283.952 106.987V108.843H283.44C282.886 108.843 282.416 108.949 282.032 109.163C281.648 109.376 281.36 109.68 281.168 110.075C280.976 110.469 280.88 110.955 280.88 111.531V115.531H278.928ZM288.8 115.643C287.936 115.643 287.189 115.467 286.56 115.115C285.941 114.763 285.461 114.261 285.12 113.611C284.789 112.96 284.624 112.197 284.624 111.323C284.624 110.437 284.795 109.675 285.136 109.035C285.477 108.384 285.957 107.877 286.576 107.515C287.195 107.152 287.936 106.971 288.8 106.971C289.653 106.971 290.389 107.152 291.008 107.515C291.627 107.877 292.101 108.389 292.432 109.051C292.763 109.701 292.928 110.469 292.928 111.355C292.928 112.219 292.763 112.976 292.432 113.627C292.112 114.267 291.643 114.763 291.024 115.115C290.405 115.467 289.664 115.643 288.8 115.643ZM288.784 113.867C289.317 113.867 289.744 113.749 290.064 113.515C290.395 113.28 290.635 112.971 290.784 112.587C290.933 112.203 291.008 111.787 291.008 111.339C291.008 110.891 290.933 110.469 290.784 110.075C290.635 109.68 290.395 109.365 290.064 109.131C289.744 108.885 289.317 108.763 288.784 108.763C288.251 108.763 287.819 108.885 287.488 109.131C287.157 109.365 286.917 109.68 286.768 110.075C286.619 110.459 286.544 110.88 286.544 111.339C286.544 111.787 286.619 112.208 286.768 112.603C286.928 112.987 287.168 113.296 287.488 113.531C287.819 113.755 288.251 113.867 288.784 113.867ZM296.267 115.531L293.627 107.099H295.787L297.483 113.387L299.291 107.099H301.595L303.403 113.387L305.083 107.099H307.211L304.571 115.531H302.235L300.411 109.451L298.603 115.531H296.267ZM308.241 115.531V107.099H310.065L310.177 108.171C310.401 107.872 310.662 107.637 310.961 107.467C311.26 107.296 311.574 107.173 311.905 107.099C312.236 107.013 312.545 106.971 312.833 106.971C313.633 106.971 314.262 107.147 314.721 107.499C315.19 107.851 315.521 108.32 315.713 108.907C315.905 109.493 316.001 110.149 316.001 110.875V115.531H314.049V111.195C314.049 110.885 314.028 110.587 313.985 110.299C313.942 110 313.857 109.733 313.729 109.499C313.612 109.264 313.441 109.077 313.217 108.939C312.993 108.8 312.694 108.731 312.321 108.731C311.862 108.731 311.473 108.853 311.153 109.099C310.833 109.344 310.593 109.675 310.433 110.091C310.273 110.496 310.193 110.96 310.193 111.483V115.531H308.241ZM89.316 137.531L86.692 129.099H88.228L90.244 136.219L92.324 129.099H94.164L96.26 136.219L98.244 129.099H99.796L97.172 137.531H95.316L93.236 130.699L91.156 137.531H89.316ZM101.056 137.531V129.099H102.416V137.531H101.056ZM101.728 127.851C101.451 127.851 101.227 127.765 101.056 127.595C100.896 127.424 100.816 127.205 100.816 126.939C100.816 126.672 100.902 126.459 101.072 126.299C101.243 126.128 101.462 126.043 101.728 126.043C101.974 126.043 102.187 126.128 102.368 126.299C102.56 126.469 102.656 126.683 102.656 126.939C102.656 127.205 102.566 127.424 102.384 127.595C102.203 127.765 101.984 127.851 101.728 127.851ZM104.556 137.531V126.219H105.916V137.531H104.556ZM108.056 137.531V126.219H109.416V137.531H108.056ZM119.853 137.627C119.469 137.627 119.112 137.584 118.781 137.499C118.461 137.403 118.168 137.269 117.901 137.099C117.645 136.928 117.421 136.731 117.229 136.507L117.165 137.531H115.869V126.219H117.229V130.315C117.506 129.888 117.901 129.563 118.413 129.339C118.936 129.115 119.469 129.003 120.013 129.003C120.866 129.003 121.565 129.195 122.109 129.579C122.653 129.952 123.053 130.464 123.309 131.115C123.576 131.755 123.709 132.48 123.709 133.291C123.709 134.091 123.57 134.821 123.293 135.483C123.016 136.133 122.594 136.656 122.029 137.051C121.464 137.435 120.738 137.627 119.853 137.627ZM119.837 136.427C120.456 136.427 120.946 136.288 121.309 136.011C121.672 135.723 121.933 135.344 122.093 134.875C122.264 134.405 122.349 133.888 122.349 133.323C122.349 132.747 122.264 132.224 122.093 131.755C121.933 131.285 121.666 130.912 121.293 130.635C120.92 130.357 120.424 130.219 119.805 130.219C119.25 130.219 118.776 130.373 118.381 130.683C117.997 130.992 117.704 131.387 117.501 131.867C117.298 132.347 117.197 132.837 117.197 133.339C117.197 133.883 117.282 134.389 117.453 134.859C117.634 135.328 117.917 135.707 118.301 135.995C118.696 136.283 119.208 136.427 119.837 136.427ZM129.173 137.627C128.277 137.627 127.536 137.445 126.949 137.083C126.362 136.709 125.925 136.197 125.637 135.547C125.349 134.896 125.205 134.155 125.205 133.323C125.205 132.48 125.354 131.739 125.653 131.099C125.962 130.448 126.41 129.936 126.997 129.563C127.584 129.189 128.304 129.003 129.157 129.003C129.818 129.003 130.384 129.131 130.853 129.387C131.333 129.632 131.728 129.963 132.037 130.379C132.346 130.795 132.57 131.253 132.709 131.755C132.848 132.245 132.906 132.741 132.885 133.243C132.874 133.339 132.864 133.435 132.853 133.531C132.853 133.627 132.848 133.723 132.837 133.819H126.581C126.624 134.309 126.746 134.752 126.949 135.147C127.152 135.541 127.44 135.856 127.813 136.091C128.186 136.315 128.65 136.427 129.205 136.427C129.482 136.427 129.76 136.395 130.037 136.331C130.325 136.256 130.581 136.133 130.805 135.963C131.04 135.792 131.205 135.563 131.301 135.275H132.693C132.565 135.819 132.325 136.267 131.973 136.619C131.621 136.96 131.2 137.216 130.709 137.387C130.218 137.547 129.706 137.627 129.173 137.627ZM126.613 132.635H131.493C131.482 132.155 131.376 131.733 131.173 131.371C130.97 131.008 130.693 130.725 130.341 130.523C130 130.32 129.589 130.219 129.109 130.219C128.586 130.219 128.144 130.331 127.781 130.555C127.429 130.779 127.157 131.072 126.965 131.435C126.773 131.797 126.656 132.197 126.613 132.635ZM139.01 137.531V129.099H140.322L140.386 130.107C140.567 129.851 140.77 129.643 140.994 129.483C141.228 129.323 141.484 129.205 141.762 129.131C142.05 129.045 142.354 129.003 142.674 129.003C143.26 129.003 143.735 129.131 144.098 129.387C144.46 129.632 144.732 129.957 144.914 130.363C145.106 130.075 145.324 129.829 145.57 129.627C145.826 129.424 146.108 129.269 146.418 129.163C146.738 129.056 147.09 129.003 147.474 129.003C148.092 129.003 148.588 129.136 148.962 129.403C149.346 129.669 149.623 130.032 149.794 130.491C149.964 130.939 150.05 131.445 150.05 132.011V137.531H148.69V132.699C148.69 132.421 148.674 132.139 148.642 131.851C148.62 131.563 148.556 131.296 148.45 131.051C148.343 130.795 148.183 130.592 147.97 130.443C147.767 130.283 147.479 130.203 147.106 130.203C146.754 130.203 146.455 130.288 146.21 130.459C145.975 130.619 145.783 130.837 145.634 131.115C145.484 131.392 145.378 131.691 145.314 132.011C145.25 132.32 145.218 132.629 145.218 132.939V137.531H143.858V132.683C143.858 132.416 143.842 132.139 143.81 131.851C143.788 131.563 143.73 131.296 143.634 131.051C143.548 130.795 143.399 130.592 143.186 130.443C142.983 130.283 142.7 130.203 142.338 130.203C141.826 130.203 141.426 130.352 141.138 130.651C140.85 130.939 140.647 131.296 140.53 131.723C140.423 132.139 140.37 132.549 140.37 132.955V137.531H139.01ZM154.823 137.627C154.439 137.627 154.066 137.579 153.703 137.483C153.351 137.376 153.031 137.221 152.743 137.019C152.466 136.805 152.242 136.544 152.071 136.235C151.911 135.915 151.831 135.547 151.831 135.131C151.831 134.651 151.916 134.245 152.087 133.915C152.268 133.584 152.508 133.323 152.807 133.131C153.106 132.939 153.452 132.8 153.847 132.715C154.242 132.629 154.652 132.587 155.079 132.587H157.559C157.559 132.107 157.49 131.691 157.351 131.339C157.223 130.987 157.01 130.715 156.711 130.523C156.412 130.32 156.018 130.219 155.527 130.219C155.228 130.219 154.951 130.251 154.695 130.315C154.439 130.379 154.22 130.48 154.039 130.619C153.858 130.757 153.724 130.944 153.639 131.179H152.183C152.258 130.795 152.402 130.469 152.615 130.203C152.839 129.925 153.106 129.701 153.415 129.531C153.735 129.349 154.076 129.216 154.439 129.131C154.802 129.045 155.164 129.003 155.527 129.003C156.743 129.003 157.607 129.36 158.119 130.075C158.631 130.789 158.887 131.755 158.887 132.971V137.531H157.751L157.671 136.459C157.436 136.779 157.154 137.024 156.823 137.195C156.492 137.365 156.151 137.477 155.799 137.531C155.458 137.595 155.132 137.627 154.823 137.627ZM154.951 136.427C155.484 136.427 155.943 136.341 156.327 136.171C156.722 135.989 157.026 135.728 157.239 135.387C157.452 135.045 157.559 134.629 157.559 134.139V133.723H156.071C155.719 133.723 155.372 133.728 155.031 133.739C154.69 133.749 154.38 133.792 154.103 133.867C153.826 133.941 153.602 134.069 153.431 134.251C153.271 134.432 153.191 134.693 153.191 135.035C153.191 135.355 153.271 135.616 153.431 135.819C153.602 136.021 153.82 136.176 154.087 136.283C154.364 136.379 154.652 136.427 154.951 136.427ZM164.37 137.627C163.527 137.627 162.834 137.44 162.29 137.067C161.746 136.683 161.341 136.171 161.074 135.531C160.807 134.88 160.674 134.149 160.674 133.339C160.674 132.528 160.807 131.797 161.074 131.147C161.341 130.485 161.751 129.963 162.306 129.579C162.861 129.195 163.57 129.003 164.434 129.003C164.765 129.003 165.095 129.045 165.426 129.131C165.767 129.205 166.087 129.328 166.386 129.499C166.685 129.659 166.941 129.877 167.154 130.155V126.219H168.514V137.531H167.218L167.154 136.267C166.962 136.587 166.717 136.848 166.418 137.051C166.13 137.243 165.81 137.387 165.458 137.483C165.106 137.579 164.743 137.627 164.37 137.627ZM164.562 136.427C165.127 136.427 165.602 136.283 165.986 135.995C166.37 135.707 166.663 135.323 166.866 134.843C167.069 134.363 167.17 133.84 167.17 133.275C167.17 132.688 167.069 132.165 166.866 131.707C166.674 131.248 166.386 130.885 166.002 130.619C165.618 130.352 165.133 130.219 164.546 130.219C163.938 130.219 163.447 130.357 163.074 130.635C162.711 130.912 162.445 131.291 162.274 131.771C162.114 132.24 162.034 132.768 162.034 133.355C162.034 133.781 162.077 134.181 162.162 134.555C162.258 134.917 162.402 135.243 162.594 135.531C162.797 135.808 163.058 136.027 163.378 136.187C163.698 136.347 164.093 136.427 164.562 136.427ZM174.298 137.627C173.402 137.627 172.661 137.445 172.074 137.083C171.487 136.709 171.05 136.197 170.762 135.547C170.474 134.896 170.33 134.155 170.33 133.323C170.33 132.48 170.479 131.739 170.778 131.099C171.087 130.448 171.535 129.936 172.122 129.563C172.709 129.189 173.429 129.003 174.282 129.003C174.943 129.003 175.509 129.131 175.978 129.387C176.458 129.632 176.853 129.963 177.162 130.379C177.471 130.795 177.695 131.253 177.834 131.755C177.973 132.245 178.031 132.741 178.01 133.243C177.999 133.339 177.989 133.435 177.978 133.531C177.978 133.627 177.973 133.723 177.962 133.819H171.706C171.749 134.309 171.871 134.752 172.074 135.147C172.277 135.541 172.565 135.856 172.938 136.091C173.311 136.315 173.775 136.427 174.33 136.427C174.607 136.427 174.885 136.395 175.162 136.331C175.45 136.256 175.706 136.133 175.93 135.963C176.165 135.792 176.33 135.563 176.426 135.275H177.818C177.69 135.819 177.45 136.267 177.098 136.619C176.746 136.96 176.325 137.216 175.834 137.387C175.343 137.547 174.831 137.627 174.298 137.627ZM171.738 132.635H176.618C176.607 132.155 176.501 131.733 176.298 131.371C176.095 131.008 175.818 130.725 175.466 130.523C175.125 130.32 174.714 130.219 174.234 130.219C173.711 130.219 173.269 130.331 172.906 130.555C172.554 130.779 172.282 131.072 172.09 131.435C171.898 131.797 171.781 132.197 171.738 132.635ZM187.815 137.627C186.929 137.627 186.188 137.445 185.591 137.083C184.993 136.709 184.545 136.197 184.247 135.547C183.959 134.896 183.815 134.155 183.815 133.323C183.815 132.48 183.964 131.739 184.263 131.099C184.561 130.448 185.009 129.936 185.607 129.563C186.204 129.189 186.951 129.003 187.847 129.003C188.732 129.003 189.468 129.189 190.055 129.563C190.652 129.936 191.095 130.448 191.383 131.099C191.681 131.739 191.831 132.48 191.831 133.323C191.831 134.155 191.681 134.896 191.383 135.547C191.084 136.197 190.636 136.709 190.039 137.083C189.452 137.445 188.711 137.627 187.815 137.627ZM187.815 136.427C188.433 136.427 188.935 136.288 189.319 136.011C189.713 135.733 190.001 135.36 190.183 134.891C190.375 134.421 190.471 133.899 190.471 133.323C190.471 132.747 190.375 132.224 190.183 131.755C190.001 131.285 189.713 130.912 189.319 130.635C188.935 130.357 188.433 130.219 187.815 130.219C187.207 130.219 186.705 130.357 186.311 130.635C185.927 130.912 185.639 131.285 185.447 131.755C185.265 132.224 185.174 132.747 185.174 133.323C185.174 133.899 185.265 134.421 185.447 134.891C185.639 135.36 185.927 135.733 186.311 136.011C186.705 136.288 187.207 136.427 187.815 136.427ZM193.65 137.531V129.099H194.962L195.026 130.379C195.218 130.069 195.463 129.813 195.762 129.611C196.061 129.408 196.386 129.259 196.738 129.163C197.101 129.056 197.453 129.003 197.794 129.003C198.615 129.003 199.255 129.173 199.714 129.515C200.183 129.856 200.514 130.32 200.706 130.907C200.909 131.483 201.01 132.139 201.01 132.875V137.531H199.65V133.243C199.65 132.848 199.623 132.469 199.57 132.107C199.527 131.744 199.431 131.419 199.282 131.131C199.143 130.843 198.941 130.619 198.674 130.459C198.407 130.288 198.05 130.203 197.602 130.203C197.047 130.203 196.573 130.357 196.178 130.667C195.794 130.976 195.501 131.392 195.298 131.915C195.106 132.437 195.01 133.024 195.01 133.675V137.531H193.65ZM211.24 137.659C210.738 137.659 210.264 137.6 209.816 137.483C209.368 137.355 208.962 137.163 208.6 136.907C208.237 136.651 207.933 136.325 207.688 135.931C207.453 135.525 207.293 135.051 207.208 134.507H209.176C209.261 134.741 209.4 134.96 209.592 135.163C209.794 135.365 210.034 135.525 210.312 135.643C210.6 135.76 210.909 135.819 211.24 135.819C211.688 135.819 212.072 135.744 212.392 135.595C212.712 135.435 212.962 135.211 213.144 134.923C213.325 134.624 213.416 134.267 213.416 133.851C213.416 133.232 213.224 132.747 212.84 132.395C212.466 132.043 211.954 131.867 211.304 131.867C210.92 131.867 210.562 131.936 210.232 132.075C209.901 132.203 209.592 132.384 209.304 132.619H207.528L207.832 126.219H215.048V128.043H209.672L209.48 130.747C209.8 130.523 210.168 130.357 210.584 130.251C211 130.133 211.453 130.08 211.944 130.091C212.669 130.101 213.293 130.261 213.816 130.571C214.349 130.869 214.754 131.285 215.032 131.819C215.309 132.352 215.448 132.981 215.448 133.707C215.448 134.549 215.261 135.264 214.888 135.851C214.525 136.437 214.024 136.885 213.384 137.195C212.754 137.504 212.04 137.659 211.24 137.659ZM220.812 137.531C220.129 137.531 219.564 137.44 219.116 137.259C218.678 137.077 218.348 136.784 218.124 136.379C217.91 135.973 217.804 135.429 217.804 134.747V130.827H216.508V129.099H217.804V126.747H219.756V129.099H221.724V130.827H219.756V134.491C219.756 134.917 219.83 135.243 219.98 135.467C220.129 135.691 220.465 135.803 220.988 135.803H221.66V137.531H220.812ZM223.022 137.531V126.219H224.974V130.187C225.198 129.899 225.459 129.664 225.758 129.483C226.057 129.301 226.371 129.173 226.702 129.099C227.033 129.013 227.347 128.971 227.646 128.971C228.446 128.971 229.075 129.147 229.534 129.499C229.993 129.851 230.313 130.32 230.494 130.907C230.686 131.493 230.782 132.155 230.782 132.891V137.531H228.83V133.227C228.83 132.939 228.809 132.645 228.766 132.347C228.723 132.048 228.638 131.781 228.51 131.547C228.393 131.301 228.211 131.104 227.966 130.955C227.731 130.805 227.417 130.731 227.022 130.731C226.649 130.731 226.329 130.811 226.062 130.971C225.795 131.12 225.582 131.328 225.422 131.595C225.273 131.861 225.161 132.155 225.086 132.475C225.011 132.795 224.974 133.115 224.974 133.435V137.531H223.022ZM237.389 137.531V126.219H240.125L243.261 131.931L246.365 126.219H249.021V137.531H247.021V128.747L243.645 134.859H242.797L239.389 128.747V137.531H237.389ZM253.913 137.643C253.519 137.643 253.145 137.589 252.793 137.483C252.441 137.376 252.127 137.221 251.849 137.019C251.572 136.805 251.348 136.544 251.177 136.235C251.017 135.915 250.937 135.541 250.937 135.115C250.937 134.571 251.044 134.128 251.257 133.787C251.471 133.435 251.759 133.168 252.121 132.987C252.495 132.805 252.916 132.683 253.385 132.619C253.855 132.544 254.345 132.507 254.857 132.507H256.505C256.505 132.133 256.447 131.813 256.329 131.547C256.212 131.269 256.025 131.051 255.769 130.891C255.524 130.731 255.204 130.651 254.809 130.651C254.553 130.651 254.313 130.683 254.089 130.747C253.876 130.8 253.689 130.891 253.529 131.019C253.38 131.136 253.273 131.291 253.209 131.483H251.209C251.284 131.045 251.433 130.672 251.657 130.363C251.892 130.043 252.175 129.781 252.505 129.579C252.847 129.376 253.22 129.227 253.625 129.131C254.031 129.024 254.441 128.971 254.857 128.971C256.084 128.971 256.975 129.323 257.529 130.027C258.095 130.731 258.377 131.717 258.377 132.987V137.531H256.649L256.601 136.443C256.356 136.805 256.063 137.072 255.721 137.243C255.38 137.413 255.049 137.52 254.729 137.563C254.409 137.616 254.137 137.643 253.913 137.643ZM254.297 136.059C254.724 136.059 255.103 135.979 255.433 135.819C255.764 135.659 256.025 135.435 256.217 135.147C256.42 134.859 256.521 134.528 256.521 134.155V133.883H254.985C254.729 133.883 254.473 133.893 254.217 133.915C253.972 133.925 253.748 133.968 253.545 134.043C253.343 134.107 253.177 134.208 253.049 134.347C252.932 134.485 252.873 134.683 252.873 134.939C252.873 135.195 252.937 135.403 253.065 135.563C253.204 135.723 253.38 135.845 253.593 135.931C253.817 136.016 254.052 136.059 254.297 136.059ZM260.241 137.531V129.099H262.017L262.129 130.203C262.342 129.883 262.582 129.637 262.849 129.467C263.126 129.285 263.42 129.157 263.729 129.083C264.049 129.008 264.369 128.971 264.689 128.971C264.806 128.971 264.913 128.971 265.009 128.971C265.116 128.971 265.201 128.976 265.265 128.987V130.843H264.753C264.198 130.843 263.729 130.949 263.345 131.163C262.961 131.376 262.673 131.68 262.481 132.075C262.289 132.469 262.193 132.955 262.193 133.531V137.531H260.241ZM269.969 137.643C269.094 137.643 268.358 137.467 267.761 137.115C267.163 136.752 266.71 136.245 266.401 135.595C266.091 134.944 265.937 134.192 265.937 133.339C265.937 132.485 266.097 131.733 266.417 131.083C266.737 130.421 267.206 129.904 267.825 129.531C268.443 129.157 269.195 128.971 270.081 128.971C270.731 128.971 271.307 129.083 271.809 129.307C272.321 129.531 272.731 129.861 273.041 130.299C273.361 130.725 273.563 131.259 273.649 131.899H271.729C271.601 131.493 271.387 131.2 271.089 131.019C270.801 130.827 270.454 130.731 270.049 130.731C269.505 130.731 269.073 130.864 268.753 131.131C268.443 131.387 268.219 131.712 268.081 132.107C267.942 132.501 267.873 132.912 267.873 133.339C267.873 133.787 267.947 134.208 268.097 134.603C268.246 134.987 268.475 135.296 268.785 135.531C269.105 135.765 269.515 135.883 270.016 135.883C270.422 135.883 270.785 135.792 271.105 135.611C271.435 135.429 271.649 135.136 271.745 134.731H273.729C273.654 135.381 273.435 135.925 273.073 136.363C272.721 136.789 272.273 137.109 271.729 137.323C271.185 137.536 270.598 137.643 269.969 137.643ZM275.194 137.531V126.219H277.146V130.187C277.37 129.899 277.631 129.664 277.93 129.483C278.229 129.301 278.543 129.173 278.874 129.099C279.205 129.013 279.519 128.971 279.818 128.971C280.618 128.971 281.247 129.147 281.706 129.499C282.165 129.851 282.485 130.32 282.666 130.907C282.858 131.493 282.954 132.155 282.954 132.891V137.531H281.002V133.227C281.002 132.939 280.981 132.645 280.938 132.347C280.895 132.048 280.81 131.781 280.682 131.547C280.565 131.301 280.383 131.104 280.138 130.955C279.903 130.805 279.589 130.731 279.194 130.731C278.821 130.731 278.501 130.811 278.234 130.971C277.967 131.12 277.754 131.328 277.594 131.595C277.445 131.861 277.333 132.155 277.258 132.475C277.183 132.795 277.146 133.115 277.146 133.435V137.531H275.194ZM288.681 137.531V135.883L291.833 133.227C292.089 133.013 292.372 132.779 292.681 132.523C292.99 132.267 293.284 131.989 293.561 131.691C293.849 131.381 294.089 131.061 294.281 130.731C294.473 130.4 294.569 130.053 294.569 129.691C294.569 129.147 294.404 128.72 294.073 128.411C293.753 128.101 293.294 127.947 292.697 127.947C292.174 127.947 291.748 128.059 291.417 128.283C291.086 128.507 290.878 128.811 290.793 129.195H288.825C288.9 128.48 289.129 127.899 289.513 127.451C289.908 126.992 290.393 126.651 290.969 126.427C291.545 126.192 292.148 126.075 292.777 126.075C293.492 126.075 294.132 126.208 294.697 126.475C295.262 126.731 295.71 127.115 296.041 127.627C296.382 128.128 296.553 128.741 296.553 129.467C296.553 130.117 296.425 130.704 296.169 131.227C295.924 131.749 295.588 132.229 295.161 132.667C294.745 133.093 294.286 133.515 293.785 133.931L291.625 135.707H296.585V137.531H288.681ZM302.577 137.659C301.756 137.659 301.057 137.515 300.481 137.227C299.905 136.928 299.441 136.512 299.089 135.979C298.737 135.445 298.476 134.832 298.305 134.139C298.145 133.445 298.065 132.699 298.065 131.899C298.065 131.088 298.145 130.331 298.305 129.627C298.476 128.923 298.737 128.309 299.089 127.787C299.452 127.253 299.921 126.837 300.497 126.539C301.073 126.229 301.772 126.075 302.593 126.075C303.436 126.075 304.145 126.235 304.721 126.555C305.308 126.875 305.772 127.307 306.113 127.851C306.465 128.395 306.716 129.013 306.865 129.707C307.025 130.4 307.105 131.125 307.105 131.883C307.105 132.629 307.025 133.349 306.865 134.043C306.716 134.736 306.465 135.355 306.113 135.899C305.761 136.443 305.292 136.875 304.705 137.195C304.129 137.504 303.42 137.659 302.577 137.659ZM302.577 135.835C303.121 135.835 303.559 135.707 303.889 135.451C304.231 135.195 304.487 134.869 304.657 134.475C304.828 134.069 304.94 133.637 304.993 133.179C305.057 132.72 305.089 132.288 305.089 131.883C305.089 131.477 305.063 131.051 305.009 130.603C304.956 130.144 304.844 129.712 304.673 129.307C304.503 128.901 304.252 128.571 303.921 128.315C303.591 128.059 303.148 127.931 302.593 127.931C302.039 127.931 301.591 128.059 301.249 128.315C300.919 128.571 300.668 128.901 300.497 129.307C300.327 129.701 300.209 130.128 300.145 130.587C300.092 131.045 300.065 131.477 300.065 131.883C300.065 132.288 300.092 132.72 300.145 133.179C300.199 133.627 300.305 134.053 300.465 134.459C300.636 134.864 300.887 135.195 301.217 135.451C301.559 135.707 302.012 135.835 302.577 135.835ZM308.025 137.531V135.883L311.177 133.227C311.433 133.013 311.715 132.779 312.025 132.523C312.334 132.267 312.627 131.989 312.905 131.691C313.193 131.381 313.433 131.061 313.625 130.731C313.817 130.4 313.913 130.053 313.913 129.691C313.913 129.147 313.747 128.72 313.417 128.411C313.097 128.101 312.638 127.947 312.041 127.947C311.518 127.947 311.091 128.059 310.761 128.283C310.43 128.507 310.222 128.811 310.137 129.195H308.169C308.243 128.48 308.473 127.899 308.857 127.451C309.251 126.992 309.737 126.651 310.313 126.427C310.889 126.192 311.491 126.075 312.121 126.075C312.835 126.075 313.475 126.208 314.041 126.475C314.606 126.731 315.054 127.115 315.385 127.627C315.726 128.128 315.897 128.741 315.897 129.467C315.897 130.117 315.769 130.704 315.513 131.227C315.267 131.749 314.931 132.229 314.505 132.667C314.089 133.093 313.63 133.515 313.129 133.931L310.969 135.707H315.929V137.531H308.025ZM321.857 137.659C321.068 137.659 320.39 137.509 319.825 137.211C319.26 136.912 318.801 136.507 318.449 135.995C318.097 135.483 317.836 134.896 317.665 134.235C317.505 133.573 317.425 132.88 317.425 132.155C317.425 131.333 317.51 130.56 317.681 129.835C317.862 129.099 318.14 128.453 318.513 127.899C318.886 127.333 319.366 126.891 319.953 126.571C320.55 126.24 321.254 126.075 322.065 126.075C322.673 126.075 323.233 126.181 323.745 126.395C324.268 126.608 324.705 126.928 325.057 127.355C325.409 127.781 325.649 128.315 325.777 128.955H323.857C323.708 128.613 323.462 128.352 323.121 128.171C322.79 127.979 322.422 127.883 322.017 127.883C321.601 127.883 321.238 127.963 320.929 128.123C320.63 128.272 320.374 128.475 320.161 128.731C319.948 128.976 319.777 129.264 319.649 129.595C319.521 129.925 319.425 130.267 319.361 130.619C319.297 130.971 319.265 131.317 319.265 131.659C319.521 131.285 319.814 130.997 320.145 130.795C320.476 130.581 320.822 130.432 321.185 130.347C321.548 130.251 321.889 130.203 322.209 130.203C322.966 130.203 323.612 130.352 324.145 130.651C324.689 130.949 325.11 131.371 325.409 131.915C325.708 132.448 325.857 133.077 325.857 133.803C325.857 134.581 325.686 135.259 325.345 135.835C325.004 136.411 324.529 136.859 323.921 137.179C323.324 137.499 322.636 137.659 321.857 137.659ZM321.841 135.851C322.257 135.84 322.614 135.749 322.913 135.579C323.212 135.408 323.441 135.179 323.601 134.891C323.772 134.592 323.857 134.267 323.857 133.915C323.857 133.541 323.777 133.211 323.617 132.923C323.457 132.624 323.228 132.389 322.929 132.219C322.641 132.037 322.294 131.947 321.889 131.947C321.505 131.947 321.153 132.032 320.833 132.203C320.513 132.363 320.257 132.592 320.065 132.891C319.873 133.179 319.777 133.515 319.777 133.899C319.777 134.251 319.862 134.576 320.033 134.875C320.214 135.163 320.46 135.397 320.769 135.579C321.078 135.76 321.436 135.851 321.841 135.851Z" fill="#495458"/>
</g>
<defs>
<filter id="filter0_d_618_27924" x="65.509" y="0.769238" width="380.691" height="119.4" filterUnits="userSpaceOnUse" color-interpolation-filters="sRGB">
<feFlood flood-opacity="0" result="BackgroundImageFix"/>
<feColorMatrix in="SourceAlpha" type="matrix" values="0 0 0 0 0 0 0 0 0 0 0 0 0 0 0 0 0 0 127 0" result="hardAlpha"/>
<feOffset dy="5"/>
<feGaussianBlur stdDeviation="10.85"/>
<feComposite in2="hardAlpha" operator="out"/>
<feColorMatrix type="matrix" values="0 0 0 0 0 0 0 0 0 0 0 0 0 0 0 0 0 0 0.05 0"/>
<feBlend mode="normal" in2="BackgroundImageFix" result="effect1_dropShadow_618_27924"/>
<feBlend mode="normal" in="SourceGraphic" in2="effect1_dropShadow_618_27924" result="shape"/>
</filter>
<filter id="filter1_d_618_27924" x="0.799999" y="66.8308" width="380.691" height="119.4" filterUnits="userSpaceOnUse" color-interpolation-filters="sRGB">
<feFlood flood-opacity="0" result="BackgroundImageFix"/>
<feColorMatrix in="SourceAlpha" type="matrix" values="0 0 0 0 0 0 0 0 0 0 0 0 0 0 0 0 0 0 127 0" result="hardAlpha"/>
<feOffset dy="5"/>
<feGaussianBlur stdDeviation="10.85"/>
<feComposite in2="hardAlpha" operator="out"/>
<feColorMatrix type="matrix" values="0 0 0 0 0 0 0 0 0 0 0 0 0 0 0 0 0 0 0.05 0"/>
<feBlend mode="normal" in2="BackgroundImageFix" result="effect1_dropShadow_618_27924"/>
<feBlend mode="normal" in="SourceGraphic" in2="effect1_dropShadow_618_27924" result="shape"/>
</filter>
</defs>
</svg>
