<svg width="591" height="197" viewBox="0 0 591 197" fill="none" xmlns="http://www.w3.org/2000/svg">
<g filter="url(#filter0_d_622_28364)">
<rect x="22.5" y="17.5308" width="546" height="76" rx="24" fill="white"/>
<path fill-rule="evenodd" clip-rule="evenodd" d="M48.7929 58.8237C49.1834 58.4331 49.8166 58.4331 50.2071 58.8237L53.5 62.1165L56.7929 58.8237C57.1834 58.4331 57.8166 58.4331 58.2071 58.8237C58.5976 59.2142 58.5976 59.8473 58.2071 60.2379L54.2071 64.2379C53.8166 64.6284 53.1834 64.6284 52.7929 64.2379L48.7929 60.2379C48.4024 59.8473 48.4024 59.2142 48.7929 58.8237Z" fill="#22AC37"/>
<path fill-rule="evenodd" clip-rule="evenodd" d="M53.5 46.5308C54.0523 46.5308 54.5 46.9785 54.5 47.5308V63.5308C54.5 64.083 54.0523 64.5308 53.5 64.5308C52.9477 64.5308 52.5 64.083 52.5 63.5308V47.5308C52.5 46.9785 52.9477 46.5308 53.5 46.5308Z" fill="#22AC37"/>
<path fill-rule="evenodd" clip-rule="evenodd" d="M62.7929 46.8237C63.1834 46.4331 63.8166 46.4331 64.2071 46.8237L68.2071 50.8237C68.5976 51.2142 68.5976 51.8473 68.2071 52.2379C67.8166 52.6284 67.1834 52.6284 66.7929 52.2379L63.5 48.945L60.2071 52.2379C59.8166 52.6284 59.1834 52.6284 58.7929 52.2379C58.4024 51.8473 58.4024 51.2142 58.7929 50.8237L62.7929 46.8237Z" fill="#22AC37"/>
<path fill-rule="evenodd" clip-rule="evenodd" d="M63.5 46.5308C64.0523 46.5308 64.5 46.9785 64.5 47.5308V63.5308C64.5 64.083 64.0523 64.5308 63.5 64.5308C62.9477 64.5308 62.5 64.083 62.5 63.5308V47.5308C62.5 46.9785 62.9477 46.5308 63.5 46.5308Z" fill="#22AC37"/>
<path d="M90.724 49.5308V45.2908L86.724 38.2188H88.34L91.444 43.8828L94.516 38.2188H96.1L92.116 45.2748V49.5308H90.724ZM99.9551 49.6268C99.0698 49.6268 98.3285 49.4454 97.7311 49.0828C97.1338 48.7094 96.6858 48.1974 96.3871 47.5468C96.0991 46.8961 95.9551 46.1548 95.9551 45.3228C95.9551 44.4801 96.1045 43.7388 96.4031 43.0988C96.7018 42.4481 97.1498 41.9361 97.7471 41.5628C98.3445 41.1894 99.0911 41.0028 99.9871 41.0028C100.872 41.0028 101.608 41.1894 102.195 41.5628C102.792 41.9361 103.235 42.4481 103.523 43.0988C103.822 43.7388 103.971 44.4801 103.971 45.3228C103.971 46.1548 103.822 46.8961 103.523 47.5468C103.224 48.1974 102.776 48.7094 102.179 49.0828C101.592 49.4454 100.851 49.6268 99.9551 49.6268ZM99.9551 48.4268C100.574 48.4268 101.075 48.2881 101.459 48.0108C101.854 47.7334 102.142 47.3601 102.323 46.8908C102.515 46.4214 102.611 45.8988 102.611 45.3228C102.611 44.7468 102.515 44.2241 102.323 43.7548C102.142 43.2854 101.854 42.9121 101.459 42.6348C101.075 42.3574 100.574 42.2188 99.9551 42.2188C99.3471 42.2188 98.8458 42.3574 98.4511 42.6348C98.0671 42.9121 97.7791 43.2854 97.5871 43.7548C97.4058 44.2241 97.3151 44.7468 97.3151 45.3228C97.3151 45.8988 97.4058 46.4214 97.5871 46.8908C97.7791 47.3601 98.0671 47.7334 98.4511 48.0108C98.8458 48.2881 99.3471 48.4268 99.9551 48.4268ZM109.311 49.6268C108.148 49.6268 107.263 49.3174 106.655 48.6988C106.057 48.0801 105.759 47.1308 105.759 45.8508V41.0988H107.119V45.7868C107.119 46.3414 107.199 46.8161 107.359 47.2108C107.519 47.6054 107.759 47.9094 108.079 48.1228C108.409 48.3254 108.82 48.4268 109.311 48.4268C109.823 48.4268 110.244 48.3254 110.575 48.1228C110.905 47.9094 111.145 47.6054 111.295 47.2108C111.455 46.8161 111.535 46.3414 111.535 45.7868V41.0988H112.895V45.8508C112.895 47.1308 112.585 48.0801 111.967 48.6988C111.359 49.3174 110.473 49.6268 109.311 49.6268ZM122.922 49.6268C122.037 49.6268 121.301 49.4454 120.714 49.0828C120.138 48.7094 119.706 48.1974 119.418 47.5468C119.141 46.8961 119.002 46.1601 119.002 45.3388C119.002 44.5388 119.146 43.8134 119.434 43.1628C119.733 42.5014 120.181 41.9788 120.778 41.5948C121.386 41.2001 122.154 41.0028 123.082 41.0028C123.658 41.0028 124.17 41.0988 124.618 41.2908C125.077 41.4828 125.455 41.7654 125.754 42.1388C126.053 42.5014 126.261 42.9601 126.378 43.5148H124.986C124.826 43.0454 124.57 42.7148 124.218 42.5228C123.877 42.3201 123.471 42.2188 123.002 42.2188C122.362 42.2188 121.85 42.3681 121.466 42.6668C121.082 42.9654 120.799 43.3548 120.618 43.8348C120.447 44.3041 120.362 44.8054 120.362 45.3388C120.362 45.8934 120.453 46.4054 120.634 46.8748C120.815 47.3441 121.098 47.7228 121.482 48.0108C121.866 48.2881 122.362 48.4268 122.97 48.4268C123.418 48.4268 123.839 48.3308 124.234 48.1388C124.639 47.9468 124.906 47.6054 125.034 47.1148H126.442C126.335 47.6908 126.106 48.1654 125.754 48.5388C125.413 48.9121 124.991 49.1894 124.49 49.3708C123.999 49.5414 123.477 49.6268 122.922 49.6268ZM131.846 49.6268C130.96 49.6268 130.219 49.4454 129.622 49.0828C129.024 48.7094 128.576 48.1974 128.278 47.5468C127.99 46.8961 127.846 46.1548 127.846 45.3228C127.846 44.4801 127.995 43.7388 128.294 43.0988C128.592 42.4481 129.04 41.9361 129.638 41.5628C130.235 41.1894 130.982 41.0028 131.878 41.0028C132.763 41.0028 133.499 41.1894 134.086 41.5628C134.683 41.9361 135.126 42.4481 135.414 43.0988C135.712 43.7388 135.862 44.4801 135.862 45.3228C135.862 46.1548 135.712 46.8961 135.414 47.5468C135.115 48.1974 134.667 48.7094 134.07 49.0828C133.483 49.4454 132.742 49.6268 131.846 49.6268ZM131.846 48.4268C132.464 48.4268 132.966 48.2881 133.35 48.0108C133.744 47.7334 134.032 47.3601 134.214 46.8908C134.406 46.4214 134.502 45.8988 134.502 45.3228C134.502 44.7468 134.406 44.2241 134.214 43.7548C134.032 43.2854 133.744 42.9121 133.35 42.6348C132.966 42.3574 132.464 42.2188 131.846 42.2188C131.238 42.2188 130.736 42.3574 130.342 42.6348C129.958 42.9121 129.67 43.2854 129.478 43.7548C129.296 44.2241 129.206 44.7468 129.206 45.3228C129.206 45.8988 129.296 46.4214 129.478 46.8908C129.67 47.3601 129.958 47.7334 130.342 48.0108C130.736 48.2881 131.238 48.4268 131.846 48.4268ZM137.681 49.5308V41.0988H138.993L139.057 42.3788C139.249 42.0694 139.495 41.8134 139.793 41.6108C140.092 41.4081 140.417 41.2588 140.769 41.1628C141.132 41.0561 141.484 41.0028 141.825 41.0028C142.647 41.0028 143.287 41.1734 143.745 41.5148C144.215 41.8561 144.545 42.3201 144.737 42.9068C144.94 43.4828 145.041 44.1388 145.041 44.8748V49.5308H143.681V45.2428C143.681 44.8481 143.655 44.4694 143.601 44.1068C143.559 43.7441 143.463 43.4188 143.313 43.1308C143.175 42.8428 142.972 42.6188 142.705 42.4588C142.439 42.2881 142.081 42.2028 141.633 42.2028C141.079 42.2028 140.604 42.3574 140.209 42.6668C139.825 42.9761 139.532 43.3921 139.329 43.9148C139.137 44.4374 139.041 45.0241 139.041 45.6748V49.5308H137.681ZM149.423 49.5308L146.175 41.0988H147.711L150.367 48.2188L152.975 41.0988H154.527L151.279 49.5308H149.423ZM159.361 49.6268C158.465 49.6268 157.723 49.4454 157.137 49.0828C156.55 48.7094 156.113 48.1974 155.825 47.5468C155.537 46.8961 155.393 46.1548 155.393 45.3228C155.393 44.4801 155.542 43.7388 155.841 43.0988C156.15 42.4481 156.598 41.9361 157.185 41.5628C157.771 41.1894 158.491 41.0028 159.345 41.0028C160.006 41.0028 160.571 41.1308 161.041 41.3868C161.521 41.6321 161.915 41.9628 162.225 42.3788C162.534 42.7948 162.758 43.2534 162.897 43.7548C163.035 44.2454 163.094 44.7414 163.073 45.2428C163.062 45.3388 163.051 45.4348 163.041 45.5308C163.041 45.6268 163.035 45.7228 163.025 45.8188H156.769C156.811 46.3094 156.934 46.7521 157.137 47.1468C157.339 47.5414 157.627 47.8561 158.001 48.0908C158.374 48.3148 158.838 48.4268 159.393 48.4268C159.67 48.4268 159.947 48.3948 160.225 48.3308C160.513 48.2561 160.769 48.1334 160.993 47.9628C161.227 47.7921 161.393 47.5628 161.489 47.2748H162.881C162.753 47.8188 162.513 48.2668 162.161 48.6188C161.809 48.9601 161.387 49.2161 160.897 49.3868C160.406 49.5468 159.894 49.6268 159.361 49.6268ZM156.801 44.6348H161.681C161.67 44.1548 161.563 43.7334 161.361 43.3708C161.158 43.0081 160.881 42.7254 160.529 42.5228C160.187 42.3201 159.777 42.2188 159.297 42.2188C158.774 42.2188 158.331 42.3308 157.969 42.5548C157.617 42.7788 157.345 43.0721 157.153 43.4348C156.961 43.7974 156.843 44.1974 156.801 44.6348ZM164.885 49.5308V41.0988H166.197L166.261 42.4108C166.474 42.0801 166.719 41.8134 166.997 41.6108C167.285 41.4081 167.599 41.2588 167.941 41.1628C168.293 41.0561 168.671 41.0028 169.077 41.0028C169.151 41.0028 169.221 41.0028 169.285 41.0028C169.359 41.0028 169.434 41.0028 169.509 41.0028V42.2828H169.013C168.351 42.2828 167.813 42.4268 167.397 42.7148C166.991 42.9921 166.698 43.3708 166.517 43.8508C166.335 44.3201 166.245 44.8428 166.245 45.4188V49.5308H164.885ZM174.021 49.6268C173.136 49.6268 172.512 49.3868 172.149 48.9068C171.797 48.4268 171.621 47.7441 171.621 46.8588V42.2988H170.245V41.0988H171.621V38.5708H172.981V41.0988H175.573V42.2988H172.981V46.6828C172.981 47.0028 173.008 47.2961 173.061 47.5628C173.115 47.8188 173.227 48.0268 173.397 48.1868C173.568 48.3361 173.824 48.4161 174.165 48.4268C174.411 48.4268 174.624 48.3841 174.805 48.2988C174.997 48.2134 175.157 48.1121 175.285 47.9948L175.877 48.9868C175.696 49.1361 175.504 49.2588 175.301 49.3548C175.109 49.4508 174.907 49.5201 174.693 49.5628C174.491 49.6054 174.267 49.6268 174.021 49.6268ZM180.845 49.6268C179.949 49.6268 179.208 49.4454 178.621 49.0828C178.034 48.7094 177.597 48.1974 177.309 47.5468C177.021 46.8961 176.877 46.1548 176.877 45.3228C176.877 44.4801 177.026 43.7388 177.325 43.0988C177.634 42.4481 178.082 41.9361 178.669 41.5628C179.256 41.1894 179.976 41.0028 180.829 41.0028C181.49 41.0028 182.056 41.1308 182.525 41.3868C183.005 41.6321 183.4 41.9628 183.709 42.3788C184.018 42.7948 184.242 43.2534 184.381 43.7548C184.52 44.2454 184.578 44.7414 184.557 45.2428C184.546 45.3388 184.536 45.4348 184.525 45.5308C184.525 45.6268 184.52 45.7228 184.509 45.8188H178.253C178.296 46.3094 178.418 46.7521 178.621 47.1468C178.824 47.5414 179.112 47.8561 179.485 48.0908C179.858 48.3148 180.322 48.4268 180.877 48.4268C181.154 48.4268 181.432 48.3948 181.709 48.3308C181.997 48.2561 182.253 48.1334 182.477 47.9628C182.712 47.7921 182.877 47.5628 182.973 47.2748H184.365C184.237 47.8188 183.997 48.2668 183.645 48.6188C183.293 48.9601 182.872 49.2161 182.381 49.3868C181.89 49.5468 181.378 49.6268 180.845 49.6268ZM178.285 44.6348H183.165C183.154 44.1548 183.048 43.7334 182.845 43.3708C182.642 43.0081 182.365 42.7254 182.013 42.5228C181.672 42.3201 181.261 42.2188 180.781 42.2188C180.258 42.2188 179.816 42.3308 179.453 42.5548C179.101 42.7788 178.829 43.0721 178.637 43.4348C178.445 43.7974 178.328 44.1974 178.285 44.6348ZM189.745 49.6268C188.902 49.6268 188.209 49.4401 187.665 49.0668C187.121 48.6828 186.716 48.1708 186.449 47.5308C186.182 46.8801 186.049 46.1494 186.049 45.3388C186.049 44.5281 186.182 43.7974 186.449 43.1468C186.716 42.4854 187.126 41.9628 187.681 41.5788C188.236 41.1948 188.945 41.0028 189.809 41.0028C190.14 41.0028 190.47 41.0454 190.801 41.1308C191.142 41.2054 191.462 41.3281 191.761 41.4988C192.06 41.6588 192.316 41.8774 192.529 42.1548V38.2188H193.889V49.5308H192.593L192.529 48.2668C192.337 48.5868 192.092 48.8481 191.793 49.0508C191.505 49.2428 191.185 49.3868 190.833 49.4828C190.481 49.5788 190.118 49.6268 189.745 49.6268ZM189.937 48.4268C190.502 48.4268 190.977 48.2828 191.361 47.9948C191.745 47.7068 192.038 47.3228 192.241 46.8428C192.444 46.3628 192.545 45.8401 192.545 45.2748C192.545 44.6881 192.444 44.1654 192.241 43.7068C192.049 43.2481 191.761 42.8854 191.377 42.6188C190.993 42.3521 190.508 42.2188 189.921 42.2188C189.313 42.2188 188.822 42.3574 188.449 42.6348C188.086 42.9121 187.82 43.2908 187.649 43.7708C187.489 44.2401 187.409 44.7681 187.409 45.3548C187.409 45.7814 187.452 46.1814 187.537 46.5548C187.633 46.9174 187.777 47.2428 187.969 47.5308C188.172 47.8081 188.433 48.0268 188.753 48.1868C189.073 48.3468 189.468 48.4268 189.937 48.4268ZM91.268 71.6588C90.7667 71.6588 90.2707 71.6001 89.78 71.4828C89.2893 71.3654 88.8413 71.1841 88.436 70.9388C88.0307 70.6828 87.6893 70.3521 87.412 69.9468C87.1453 69.5414 86.9747 69.0508 86.9 68.4748H88.884C88.98 68.8054 89.1507 69.0668 89.396 69.2588C89.652 69.4508 89.9453 69.5948 90.276 69.6908C90.6067 69.7761 90.9427 69.8188 91.284 69.8188C91.5293 69.8188 91.7747 69.7974 92.02 69.7548C92.2653 69.7121 92.4947 69.6321 92.708 69.5148C92.9213 69.3974 93.092 69.2321 93.22 69.0188C93.348 68.8054 93.412 68.5281 93.412 68.1868C93.412 67.8774 93.3533 67.6214 93.236 67.4188C93.1293 67.2161 92.9747 67.0614 92.772 66.9548C92.58 66.8374 92.356 66.7574 92.1 66.7148C91.8547 66.6614 91.5933 66.6348 91.316 66.6348H90.068V64.9228H90.884C91.1933 64.9228 91.476 64.8908 91.732 64.8268C91.988 64.7628 92.212 64.6721 92.404 64.5548C92.596 64.4268 92.74 64.2668 92.836 64.0748C92.9427 63.8828 92.996 63.6534 92.996 63.3868C92.996 63.0028 92.9107 62.7041 92.74 62.4908C92.58 62.2774 92.3613 62.1281 92.084 62.0428C91.8067 61.9468 91.5027 61.8988 91.172 61.8988C90.8733 61.8988 90.5853 61.9468 90.308 62.0428C90.0307 62.1281 89.7907 62.2614 89.588 62.4428C89.3853 62.6241 89.2573 62.8534 89.204 63.1308H87.252C87.316 62.5974 87.4707 62.1388 87.716 61.7548C87.9613 61.3708 88.2653 61.0561 88.628 60.8108C89.0013 60.5548 89.4173 60.3681 89.876 60.2508C90.3347 60.1334 90.8093 60.0748 91.3 60.0748C91.78 60.0748 92.2387 60.1281 92.676 60.2348C93.124 60.3414 93.5187 60.5174 93.86 60.7628C94.2013 60.9974 94.4733 61.3068 94.676 61.6908C94.8787 62.0748 94.98 62.5441 94.98 63.0988C94.98 63.4508 94.9213 63.7814 94.804 64.0908C94.6867 64.4001 94.516 64.6721 94.292 64.9068C94.0787 65.1414 93.8173 65.3334 93.508 65.4828C93.9347 65.6001 94.292 65.7921 94.58 66.0588C94.868 66.3148 95.0813 66.6241 95.22 66.9868C95.3693 67.3494 95.444 67.7494 95.444 68.1868C95.444 68.8694 95.316 69.4401 95.06 69.8988C94.8147 70.3468 94.484 70.6988 94.068 70.9548C93.6627 71.2108 93.2147 71.3921 92.724 71.4988C92.2333 71.6054 91.748 71.6588 91.268 71.6588ZM100.874 71.6588C100.266 71.6588 99.6904 71.5574 99.1464 71.3548C98.613 71.1414 98.1597 70.8214 97.7864 70.3948C97.413 69.9681 97.1677 69.4348 97.0504 68.7948H99.0504C99.1997 69.1361 99.4557 69.3974 99.8184 69.5788C100.192 69.7494 100.581 69.8348 100.986 69.8348C101.477 69.8348 101.882 69.7388 102.202 69.5468C102.533 69.3441 102.794 69.0774 102.986 68.7468C103.189 68.4054 103.333 68.0321 103.418 67.6268C103.504 67.2108 103.546 66.7894 103.546 66.3628C103.546 66.3094 103.546 66.2561 103.546 66.2028C103.546 66.1494 103.546 66.1014 103.546 66.0588C103.322 66.4321 103.045 66.7254 102.714 66.9388C102.384 67.1414 102.032 67.2908 101.658 67.3868C101.285 67.4721 100.922 67.5148 100.57 67.5148C99.8984 67.5148 99.2904 67.3761 98.7464 67.0988C98.2024 66.8214 97.7704 66.4161 97.4504 65.8828C97.1304 65.3388 96.9704 64.6881 96.9704 63.9308C96.9704 63.1201 97.1517 62.4268 97.5144 61.8508C97.877 61.2748 98.3677 60.8374 98.9864 60.5388C99.6157 60.2294 100.314 60.0748 101.082 60.0748C101.914 60.0748 102.608 60.2454 103.162 60.5868C103.717 60.9281 104.16 61.3868 104.49 61.9628C104.821 62.5281 105.056 63.1574 105.194 63.8508C105.333 64.5441 105.402 65.2481 105.402 65.9628C105.402 66.7521 105.317 67.4934 105.146 68.1868C104.986 68.8694 104.725 69.4721 104.362 69.9948C104.01 70.5174 103.546 70.9281 102.97 71.2268C102.394 71.5148 101.696 71.6588 100.874 71.6588ZM100.986 65.8028C101.402 65.8028 101.765 65.7174 102.074 65.5468C102.394 65.3654 102.64 65.1308 102.81 64.8428C102.981 64.5441 103.061 64.2241 103.05 63.8828C103.05 63.4774 102.96 63.1308 102.778 62.8428C102.608 62.5441 102.368 62.3094 102.058 62.1388C101.749 61.9681 101.402 61.8828 101.018 61.8828C100.602 61.8828 100.24 61.9734 99.9304 62.1548C99.6317 62.3361 99.397 62.5761 99.2264 62.8748C99.0557 63.1734 98.9704 63.4934 98.9704 63.8348C98.9704 64.4214 99.1464 64.8961 99.4984 65.2588C99.8504 65.6214 100.346 65.8028 100.986 65.8028ZM108.16 71.7228C107.819 71.7228 107.526 71.6108 107.28 71.3868C107.046 71.1628 106.928 70.8588 106.928 70.4748C106.928 70.0908 107.051 69.7868 107.296 69.5628C107.542 69.3281 107.835 69.2108 108.176 69.2108C108.518 69.2108 108.806 69.3281 109.04 69.5628C109.275 69.7868 109.392 70.0908 109.392 70.4748C109.392 70.8588 109.275 71.1628 109.04 71.3868C108.806 71.6108 108.512 71.7228 108.16 71.7228ZM116.776 71.5308V69.3868H110.888V67.8828L116.232 60.2188H118.744V67.5788H120.04V69.3868H118.744V71.5308H116.776ZM113.192 67.5788H116.776V62.3148L113.192 67.5788ZM120.884 71.5308V69.8828L124.036 67.2268C124.292 67.0134 124.575 66.7788 124.884 66.5228C125.193 66.2668 125.487 65.9894 125.764 65.6908C126.052 65.3814 126.292 65.0614 126.484 64.7308C126.676 64.4001 126.772 64.0534 126.772 63.6908C126.772 63.1468 126.607 62.7201 126.276 62.4108C125.956 62.1014 125.497 61.9468 124.9 61.9468C124.377 61.9468 123.951 62.0588 123.62 62.2828C123.289 62.5068 123.081 62.8108 122.996 63.1948H121.028C121.103 62.4801 121.332 61.8988 121.716 61.4508C122.111 60.9921 122.596 60.6508 123.172 60.4268C123.748 60.1921 124.351 60.0748 124.98 60.0748C125.695 60.0748 126.335 60.2081 126.9 60.4748C127.465 60.7308 127.913 61.1148 128.244 61.6268C128.585 62.1281 128.756 62.7414 128.756 63.4668C128.756 64.1174 128.628 64.7041 128.372 65.2268C128.127 65.7494 127.791 66.2294 127.364 66.6668C126.948 67.0934 126.489 67.5148 125.988 67.9308L123.828 69.7068H128.788V71.5308H120.884ZM139.81 71.6588C138.732 71.6588 137.847 71.4508 137.154 71.0348C136.46 70.6081 135.948 70.0108 135.618 69.2428C135.287 68.4748 135.122 67.5681 135.122 66.5228V60.2188H137.122V66.5708C137.122 67.1468 137.202 67.6854 137.362 68.1868C137.532 68.6774 137.815 69.0721 138.21 69.3708C138.615 69.6694 139.159 69.8188 139.842 69.8188C140.535 69.8188 141.068 69.6694 141.442 69.3708C141.826 69.0614 142.092 68.6614 142.242 68.1708C142.402 67.6801 142.482 67.1468 142.482 66.5708V60.2188H144.498V66.5228C144.498 67.5574 144.332 68.4588 144.002 69.2268C143.671 69.9948 143.164 70.5921 142.482 71.0188C141.799 71.4454 140.908 71.6588 139.81 71.6588ZM151.16 71.6588C150.402 71.6588 149.688 71.5468 149.016 71.3228C148.354 71.0881 147.8 70.7201 147.352 70.2188C146.904 69.7068 146.61 69.0401 146.472 68.2188H148.504C148.632 68.6348 148.834 68.9601 149.112 69.1948C149.4 69.4294 149.736 69.5948 150.12 69.6908C150.504 69.7761 150.893 69.8188 151.288 69.8188C151.64 69.8188 151.97 69.7761 152.28 69.6908C152.6 69.5948 152.861 69.4401 153.064 69.2268C153.277 69.0134 153.384 68.7308 153.384 68.3788C153.384 68.1121 153.325 67.8988 153.208 67.7388C153.101 67.5681 152.946 67.4294 152.744 67.3228C152.552 67.2054 152.317 67.1148 152.04 67.0508C151.773 66.9654 151.485 66.8908 151.176 66.8268C150.866 66.7628 150.562 66.6934 150.264 66.6188C149.965 66.5441 149.682 66.4481 149.416 66.3308C149.074 66.2134 148.744 66.0801 148.424 65.9308C148.114 65.7708 147.842 65.5788 147.608 65.3548C147.384 65.1308 147.202 64.8534 147.064 64.5228C146.925 64.1921 146.856 63.7974 146.856 63.3388C146.856 62.8161 146.941 62.3681 147.112 61.9948C147.293 61.6108 147.528 61.2961 147.816 61.0508C148.114 60.8054 148.445 60.6134 148.808 60.4748C149.181 60.3361 149.565 60.2348 149.96 60.1708C150.365 60.1068 150.749 60.0748 151.112 60.0748C151.816 60.0748 152.456 60.1921 153.032 60.4268C153.618 60.6614 154.098 61.0241 154.472 61.5148C154.845 62.0054 155.058 62.6348 155.112 63.4028H153.176C153.133 63.0401 153.005 62.7521 152.792 62.5388C152.578 62.3148 152.312 62.1548 151.992 62.0588C151.672 61.9521 151.325 61.8988 150.952 61.8988C150.696 61.8988 150.44 61.9201 150.184 61.9628C149.938 62.0054 149.714 62.0801 149.512 62.1868C149.32 62.2934 149.16 62.4374 149.032 62.6188C148.914 62.7894 148.856 63.0081 148.856 63.2748C148.856 63.5094 148.914 63.7174 149.032 63.8988C149.149 64.0694 149.309 64.2134 149.512 64.3308C149.725 64.4481 149.976 64.5548 150.264 64.6508C150.637 64.8001 151.042 64.9121 151.48 64.9868C151.928 65.0614 152.349 65.1628 152.744 65.2908C153.128 65.3974 153.48 65.5308 153.8 65.6908C154.13 65.8401 154.413 66.0268 154.648 66.2508C154.882 66.4641 155.064 66.7308 155.192 67.0508C155.33 67.3601 155.4 67.7334 155.4 68.1708C155.4 68.8108 155.282 69.3548 155.048 69.8028C154.824 70.2401 154.509 70.5974 154.104 70.8748C153.709 71.1521 153.256 71.3548 152.744 71.4828C152.242 71.6001 151.714 71.6588 151.16 71.6588ZM157.467 71.5308V60.2188H161.643C162.827 60.2188 163.83 60.4481 164.651 60.9068C165.472 61.3548 166.096 62.0054 166.523 62.8588C166.96 63.7014 167.179 64.7148 167.179 65.8988C167.179 67.0614 166.966 68.0641 166.539 68.9068C166.123 69.7494 165.504 70.4001 164.683 70.8588C163.862 71.3068 162.854 71.5308 161.659 71.5308H157.467ZM159.467 69.7068H161.611C162.454 69.7068 163.131 69.5468 163.643 69.2268C164.166 68.8961 164.544 68.4481 164.779 67.8828C165.024 67.3068 165.147 66.6401 165.147 65.8828C165.147 65.1468 165.03 64.4908 164.795 63.9148C164.56 63.3388 164.182 62.8854 163.659 62.5548C163.147 62.2134 162.47 62.0428 161.627 62.0428H159.467V69.7068ZM171.368 71.5308V62.0428H167.832V60.2188H176.888V62.0428H173.352V71.5308H171.368ZM182.635 71.5308V63.0988H183.995V71.5308H182.635ZM183.307 61.8508C183.029 61.8508 182.805 61.7654 182.635 61.5948C182.475 61.4241 182.395 61.2054 182.395 60.9388C182.395 60.6721 182.48 60.4588 182.651 60.2988C182.821 60.1281 183.04 60.0428 183.307 60.0428C183.552 60.0428 183.765 60.1281 183.947 60.2988C184.139 60.4694 184.235 60.6828 184.235 60.9388C184.235 61.2054 184.144 61.4241 183.963 61.5948C183.781 61.7654 183.563 61.8508 183.307 61.8508ZM186.135 71.5308V63.0988H187.447L187.511 64.3788C187.703 64.0694 187.948 63.8134 188.247 63.6108C188.545 63.4081 188.871 63.2588 189.223 63.1628C189.585 63.0561 189.937 63.0028 190.279 63.0028C191.1 63.0028 191.74 63.1734 192.199 63.5148C192.668 63.8561 192.999 64.3201 193.191 64.9068C193.393 65.4828 193.495 66.1388 193.495 66.8748V71.5308H192.135V67.2428C192.135 66.8481 192.108 66.4694 192.055 66.1068C192.012 65.7441 191.916 65.4188 191.767 65.1308C191.628 64.8428 191.425 64.6188 191.159 64.4588C190.892 64.2881 190.535 64.2028 190.087 64.2028C189.532 64.2028 189.057 64.3574 188.663 64.6668C188.279 64.9761 187.985 65.3921 187.783 65.9148C187.591 66.4374 187.495 67.0241 187.495 67.6748V71.5308H186.135ZM198.756 71.6268C197.87 71.6268 197.246 71.3868 196.884 70.9068C196.532 70.4268 196.356 69.7441 196.356 68.8588V64.2988H194.98V63.0988H196.356V60.5708H197.716V63.0988H200.308V64.2988H197.716V68.6828C197.716 69.0028 197.742 69.2961 197.796 69.5628C197.849 69.8188 197.961 70.0268 198.132 70.1868C198.302 70.3361 198.558 70.4161 198.9 70.4268C199.145 70.4268 199.358 70.3841 199.54 70.2988C199.732 70.2134 199.892 70.1121 200.02 69.9948L200.612 70.9868C200.43 71.1361 200.238 71.2588 200.036 71.3548C199.844 71.4508 199.641 71.5201 199.428 71.5628C199.225 71.6054 199.001 71.6268 198.756 71.6268ZM205.611 71.6268C204.726 71.6268 203.985 71.4454 203.387 71.0828C202.79 70.7094 202.342 70.1974 202.043 69.5468C201.755 68.8961 201.611 68.1548 201.611 67.3228C201.611 66.4801 201.761 65.7388 202.059 65.0988C202.358 64.4481 202.806 63.9361 203.403 63.5628C204.001 63.1894 204.747 63.0028 205.643 63.0028C206.529 63.0028 207.265 63.1894 207.851 63.5628C208.449 63.9361 208.891 64.4481 209.179 65.0988C209.478 65.7388 209.627 66.4801 209.627 67.3228C209.627 68.1548 209.478 68.8961 209.179 69.5468C208.881 70.1974 208.433 70.7094 207.835 71.0828C207.249 71.4454 206.507 71.6268 205.611 71.6268ZM205.611 70.4268C206.23 70.4268 206.731 70.2881 207.115 70.0108C207.51 69.7334 207.798 69.3601 207.979 68.8908C208.171 68.4214 208.267 67.8988 208.267 67.3228C208.267 66.7468 208.171 66.2241 207.979 65.7548C207.798 65.2854 207.51 64.9121 207.115 64.6348C206.731 64.3574 206.23 64.2188 205.611 64.2188C205.003 64.2188 204.502 64.3574 204.107 64.6348C203.723 64.9121 203.435 65.2854 203.243 65.7548C203.062 66.2241 202.971 66.7468 202.971 67.3228C202.971 67.8988 203.062 68.4214 203.243 68.8908C203.435 69.3601 203.723 69.7334 204.107 70.0108C204.502 70.2881 205.003 70.4268 205.611 70.4268ZM219.534 71.6588C219.032 71.6588 218.536 71.6001 218.046 71.4828C217.555 71.3654 217.107 71.1841 216.702 70.9388C216.296 70.6828 215.955 70.3521 215.678 69.9468C215.411 69.5414 215.24 69.0508 215.166 68.4748H217.15C217.246 68.8054 217.416 69.0668 217.662 69.2588C217.918 69.4508 218.211 69.5948 218.542 69.6908C218.872 69.7761 219.208 69.8188 219.55 69.8188C219.795 69.8188 220.04 69.7974 220.286 69.7548C220.531 69.7121 220.76 69.6321 220.974 69.5148C221.187 69.3974 221.358 69.2321 221.486 69.0188C221.614 68.8054 221.678 68.5281 221.678 68.1868C221.678 67.8774 221.619 67.6214 221.502 67.4188C221.395 67.2161 221.24 67.0614 221.038 66.9548C220.846 66.8374 220.622 66.7574 220.366 66.7148C220.12 66.6614 219.859 66.6348 219.582 66.6348H218.334V64.9228H219.15C219.459 64.9228 219.742 64.8908 219.998 64.8268C220.254 64.7628 220.478 64.6721 220.67 64.5548C220.862 64.4268 221.006 64.2668 221.102 64.0748C221.208 63.8828 221.262 63.6534 221.262 63.3868C221.262 63.0028 221.176 62.7041 221.006 62.4908C220.846 62.2774 220.627 62.1281 220.35 62.0428C220.072 61.9468 219.768 61.8988 219.438 61.8988C219.139 61.8988 218.851 61.9468 218.574 62.0428C218.296 62.1281 218.056 62.2614 217.854 62.4428C217.651 62.6241 217.523 62.8534 217.47 63.1308H215.518C215.582 62.5974 215.736 62.1388 215.982 61.7548C216.227 61.3708 216.531 61.0561 216.894 60.8108C217.267 60.5548 217.683 60.3681 218.142 60.2508C218.6 60.1334 219.075 60.0748 219.566 60.0748C220.046 60.0748 220.504 60.1281 220.942 60.2348C221.39 60.3414 221.784 60.5174 222.126 60.7628C222.467 60.9974 222.739 61.3068 222.942 61.6908C223.144 62.0748 223.246 62.5441 223.246 63.0988C223.246 63.4508 223.187 63.7814 223.07 64.0908C222.952 64.4001 222.782 64.6721 222.558 64.9068C222.344 65.1414 222.083 65.3334 221.774 65.4828C222.2 65.6001 222.558 65.7921 222.846 66.0588C223.134 66.3148 223.347 66.6241 223.486 66.9868C223.635 67.3494 223.71 67.7494 223.71 68.1868C223.71 68.8694 223.582 69.4401 223.326 69.8988C223.08 70.3468 222.75 70.6988 222.334 70.9548C221.928 71.2108 221.48 71.3921 220.99 71.4988C220.499 71.6054 220.014 71.6588 219.534 71.6588ZM229.14 71.6588C228.532 71.6588 227.956 71.5574 227.412 71.3548C226.879 71.1414 226.425 70.8214 226.052 70.3948C225.679 69.9681 225.433 69.4348 225.316 68.7948H227.316C227.465 69.1361 227.721 69.3974 228.084 69.5788C228.457 69.7494 228.847 69.8348 229.252 69.8348C229.743 69.8348 230.148 69.7388 230.468 69.5468C230.799 69.3441 231.06 69.0774 231.252 68.7468C231.455 68.4054 231.599 68.0321 231.684 67.6268C231.769 67.2108 231.812 66.7894 231.812 66.3628C231.812 66.3094 231.812 66.2561 231.812 66.2028C231.812 66.1494 231.812 66.1014 231.812 66.0588C231.588 66.4321 231.311 66.7254 230.98 66.9388C230.649 67.1414 230.297 67.2908 229.924 67.3868C229.551 67.4721 229.188 67.5148 228.836 67.5148C228.164 67.5148 227.556 67.3761 227.012 67.0988C226.468 66.8214 226.036 66.4161 225.716 65.8828C225.396 65.3388 225.236 64.6881 225.236 63.9308C225.236 63.1201 225.417 62.4268 225.78 61.8508C226.143 61.2748 226.633 60.8374 227.252 60.5388C227.881 60.2294 228.58 60.0748 229.348 60.0748C230.18 60.0748 230.873 60.2454 231.428 60.5868C231.983 60.9281 232.425 61.3868 232.756 61.9628C233.087 62.5281 233.321 63.1574 233.46 63.8508C233.599 64.5441 233.668 65.2481 233.668 65.9628C233.668 66.7521 233.583 67.4934 233.412 68.1868C233.252 68.8694 232.991 69.4721 232.628 69.9948C232.276 70.5174 231.812 70.9281 231.236 71.2268C230.66 71.5148 229.961 71.6588 229.14 71.6588ZM229.252 65.8028C229.668 65.8028 230.031 65.7174 230.34 65.5468C230.66 65.3654 230.905 65.1308 231.076 64.8428C231.247 64.5441 231.327 64.2241 231.316 63.8828C231.316 63.4774 231.225 63.1308 231.044 62.8428C230.873 62.5441 230.633 62.3094 230.324 62.1388C230.015 61.9681 229.668 61.8828 229.284 61.8828C228.868 61.8828 228.505 61.9734 228.196 62.1548C227.897 62.3361 227.663 62.5761 227.492 62.8748C227.321 63.1734 227.236 63.4934 227.236 63.8348C227.236 64.4214 227.412 64.8961 227.764 65.2588C228.116 65.6214 228.612 65.8028 229.252 65.8028ZM236.426 71.7228C236.085 71.7228 235.791 71.6108 235.546 71.3868C235.311 71.1628 235.194 70.8588 235.194 70.4748C235.194 70.0908 235.317 69.7868 235.562 69.5628C235.807 69.3281 236.101 69.2108 236.442 69.2108C236.783 69.2108 237.071 69.3281 237.306 69.5628C237.541 69.7868 237.658 70.0908 237.658 70.4748C237.658 70.8588 237.541 71.1628 237.306 71.3868C237.071 71.6108 236.778 71.7228 236.426 71.7228ZM243.505 71.6588C243.004 71.6588 242.529 71.6001 242.081 71.4828C241.633 71.3548 241.228 71.1628 240.865 70.9068C240.503 70.6508 240.199 70.3254 239.953 69.9308C239.719 69.5254 239.559 69.0508 239.473 68.5068H241.441C241.527 68.7414 241.665 68.9601 241.857 69.1628C242.06 69.3654 242.3 69.5254 242.577 69.6428C242.865 69.7601 243.175 69.8188 243.505 69.8188C243.953 69.8188 244.337 69.7441 244.657 69.5948C244.977 69.4348 245.228 69.2108 245.409 68.9228C245.591 68.6241 245.681 68.2668 245.681 67.8508C245.681 67.2321 245.489 66.7468 245.105 66.3948C244.732 66.0428 244.22 65.8668 243.569 65.8668C243.185 65.8668 242.828 65.9361 242.497 66.0748C242.167 66.2028 241.857 66.3841 241.569 66.6188H239.793L240.097 60.2188H247.313V62.0428H241.937L241.745 64.7468C242.065 64.5228 242.433 64.3574 242.849 64.2508C243.265 64.1334 243.719 64.0801 244.209 64.0908C244.935 64.1014 245.559 64.2614 246.081 64.5708C246.615 64.8694 247.02 65.2854 247.297 65.8188C247.575 66.3521 247.713 66.9814 247.713 67.7068C247.713 68.5494 247.527 69.2641 247.153 69.8508C246.791 70.4374 246.289 70.8854 245.649 71.1948C245.02 71.5041 244.305 71.6588 243.505 71.6588ZM253.685 71.6588C252.896 71.6588 252.218 71.5094 251.653 71.2108C251.088 70.9121 250.629 70.5068 250.277 69.9948C249.925 69.4828 249.664 68.8961 249.493 68.2348C249.333 67.5734 249.253 66.8801 249.253 66.1548C249.253 65.3334 249.338 64.5601 249.509 63.8348C249.69 63.0988 249.968 62.4534 250.341 61.8988C250.714 61.3334 251.194 60.8908 251.781 60.5708C252.378 60.2401 253.082 60.0748 253.893 60.0748C254.501 60.0748 255.061 60.1814 255.573 60.3948C256.096 60.6081 256.533 60.9281 256.885 61.3548C257.237 61.7814 257.477 62.3148 257.605 62.9548H255.685C255.536 62.6134 255.29 62.3521 254.949 62.1708C254.618 61.9788 254.25 61.8828 253.845 61.8828C253.429 61.8828 253.066 61.9628 252.757 62.1228C252.458 62.2721 252.202 62.4748 251.989 62.7308C251.776 62.9761 251.605 63.2641 251.477 63.5948C251.349 63.9254 251.253 64.2668 251.189 64.6188C251.125 64.9708 251.093 65.3174 251.093 65.6588C251.349 65.2854 251.642 64.9974 251.973 64.7948C252.304 64.5814 252.65 64.4321 253.013 64.3468C253.376 64.2508 253.717 64.2028 254.037 64.2028C254.794 64.2028 255.44 64.3521 255.973 64.6508C256.517 64.9494 256.938 65.3708 257.237 65.9148C257.536 66.4481 257.685 67.0774 257.685 67.8028C257.685 68.5814 257.514 69.2588 257.173 69.8348C256.832 70.4108 256.357 70.8588 255.749 71.1788C255.152 71.4988 254.464 71.6588 253.685 71.6588ZM253.669 69.8508C254.085 69.8401 254.442 69.7494 254.741 69.5788C255.04 69.4081 255.269 69.1788 255.429 68.8908C255.6 68.5921 255.685 68.2668 255.685 67.9148C255.685 67.5414 255.605 67.2108 255.445 66.9228C255.285 66.6241 255.056 66.3894 254.757 66.2188C254.469 66.0374 254.122 65.9468 253.717 65.9468C253.333 65.9468 252.981 66.0321 252.661 66.2028C252.341 66.3628 252.085 66.5921 251.893 66.8908C251.701 67.1788 251.605 67.5148 251.605 67.8988C251.605 68.2508 251.69 68.5761 251.861 68.8748C252.042 69.1628 252.288 69.3974 252.597 69.5788C252.906 69.7601 253.264 69.8508 253.669 69.8508ZM268.747 71.6588C267.67 71.6588 266.784 71.4508 266.091 71.0348C265.398 70.6081 264.886 70.0108 264.555 69.2428C264.224 68.4748 264.059 67.5681 264.059 66.5228V60.2188H266.059V66.5708C266.059 67.1468 266.139 67.6854 266.299 68.1868C266.47 68.6774 266.752 69.0721 267.147 69.3708C267.552 69.6694 268.096 69.8188 268.779 69.8188C269.472 69.8188 270.006 69.6694 270.379 69.3708C270.763 69.0614 271.03 68.6614 271.179 68.1708C271.339 67.6801 271.419 67.1468 271.419 66.5708V60.2188H273.435V66.5228C273.435 67.5574 273.27 68.4588 272.939 69.2268C272.608 69.9948 272.102 70.5921 271.419 71.0188C270.736 71.4454 269.846 71.6588 268.747 71.6588ZM280.097 71.6588C279.34 71.6588 278.625 71.5468 277.953 71.3228C277.292 71.0881 276.737 70.7201 276.289 70.2188C275.841 69.7068 275.548 69.0401 275.409 68.2188H277.441C277.569 68.6348 277.772 68.9601 278.049 69.1948C278.337 69.4294 278.673 69.5948 279.057 69.6908C279.441 69.7761 279.83 69.8188 280.225 69.8188C280.577 69.8188 280.908 69.7761 281.217 69.6908C281.537 69.5948 281.798 69.4401 282.001 69.2268C282.214 69.0134 282.321 68.7308 282.321 68.3788C282.321 68.1121 282.262 67.8988 282.145 67.7388C282.038 67.5681 281.884 67.4294 281.681 67.3228C281.489 67.2054 281.254 67.1148 280.977 67.0508C280.71 66.9654 280.422 66.8908 280.113 66.8268C279.804 66.7628 279.5 66.6934 279.201 66.6188C278.902 66.5441 278.62 66.4481 278.353 66.3308C278.012 66.2134 277.681 66.0801 277.361 65.9308C277.052 65.7708 276.78 65.5788 276.545 65.3548C276.321 65.1308 276.14 64.8534 276.001 64.5228C275.862 64.1921 275.793 63.7974 275.793 63.3388C275.793 62.8161 275.878 62.3681 276.049 61.9948C276.23 61.6108 276.465 61.2961 276.753 61.0508C277.052 60.8054 277.382 60.6134 277.745 60.4748C278.118 60.3361 278.502 60.2348 278.897 60.1708C279.302 60.1068 279.686 60.0748 280.049 60.0748C280.753 60.0748 281.393 60.1921 281.969 60.4268C282.556 60.6614 283.036 61.0241 283.409 61.5148C283.782 62.0054 283.996 62.6348 284.049 63.4028H282.113C282.07 63.0401 281.942 62.7521 281.729 62.5388C281.516 62.3148 281.249 62.1548 280.929 62.0588C280.609 61.9521 280.262 61.8988 279.889 61.8988C279.633 61.8988 279.377 61.9201 279.121 61.9628C278.876 62.0054 278.652 62.0801 278.449 62.1868C278.257 62.2934 278.097 62.4374 277.969 62.6188C277.852 62.7894 277.793 63.0081 277.793 63.2748C277.793 63.5094 277.852 63.7174 277.969 63.8988C278.086 64.0694 278.246 64.2134 278.449 64.3308C278.662 64.4481 278.913 64.5548 279.201 64.6508C279.574 64.8001 279.98 64.9121 280.417 64.9868C280.865 65.0614 281.286 65.1628 281.681 65.2908C282.065 65.3974 282.417 65.5308 282.737 65.6908C283.068 65.8401 283.35 66.0268 283.585 66.2508C283.82 66.4641 284.001 66.7308 284.129 67.0508C284.268 67.3601 284.337 67.7334 284.337 68.1708C284.337 68.8108 284.22 69.3548 283.985 69.8028C283.761 70.2401 283.446 70.5974 283.041 70.8748C282.646 71.1521 282.193 71.3548 281.681 71.4828C281.18 71.6001 280.652 71.6588 280.097 71.6588ZM286.405 71.5308V60.2188H290.581C291.765 60.2188 292.767 60.4481 293.589 60.9068C294.41 61.3548 295.034 62.0054 295.461 62.8588C295.898 63.7014 296.117 64.7148 296.117 65.8988C296.117 67.0614 295.903 68.0641 295.477 68.9068C295.061 69.7494 294.442 70.4001 293.621 70.8588C292.799 71.3068 291.791 71.5308 290.597 71.5308H286.405ZM288.405 69.7068H290.549C291.391 69.7068 292.069 69.5468 292.581 69.2268C293.103 68.8961 293.482 68.4481 293.717 67.8828C293.962 67.3068 294.085 66.6401 294.085 65.8828C294.085 65.1468 293.967 64.4908 293.733 63.9148C293.498 63.3388 293.119 62.8854 292.597 62.5548C292.085 62.2134 291.407 62.0428 290.565 62.0428H288.405V69.7068ZM303.016 71.6588C301.843 71.6588 300.856 71.4188 300.056 70.9388C299.256 70.4481 298.653 69.7708 298.248 68.9068C297.843 68.0428 297.64 67.0401 297.64 65.8988C297.64 64.7574 297.848 63.7494 298.264 62.8748C298.68 62.0001 299.288 61.3174 300.088 60.8268C300.888 60.3254 301.864 60.0748 303.016 60.0748C303.869 60.0748 304.621 60.2188 305.272 60.5068C305.923 60.7948 306.451 61.2054 306.856 61.7388C307.272 62.2614 307.539 62.9068 307.656 63.6748H305.72C305.571 63.1308 305.267 62.7041 304.808 62.3948C304.349 62.0854 303.752 61.9308 303.016 61.9308C302.216 61.9308 301.571 62.1174 301.08 62.4908C300.589 62.8641 300.232 63.3441 300.008 63.9308C299.795 64.5174 299.688 65.1468 299.688 65.8188C299.688 66.5121 299.8 67.1628 300.024 67.7708C300.259 68.3788 300.627 68.8694 301.128 69.2428C301.629 69.6161 302.275 69.8028 303.064 69.8028C303.555 69.8028 303.981 69.7334 304.344 69.5948C304.717 69.4561 305.027 69.2588 305.272 69.0028C305.528 68.7361 305.704 68.4268 305.8 68.0748H307.832C307.704 68.8321 307.416 69.4774 306.968 70.0108C306.531 70.5441 305.971 70.9548 305.288 71.2428C304.616 71.5201 303.859 71.6588 303.016 71.6588Z" fill="#495458"/>
<rect x="444.5" y="41.5308" width="100" height="28" rx="14" fill="#B4FFC0"/>
<path d="M453.606 60.5308V50.6328H455.482L460.256 57.8428V50.6328H462.006V60.5308H460.172L455.356 53.3628V60.5308H453.606ZM467.309 60.6288C466.553 60.6288 465.9 60.4748 465.349 60.1668C464.808 59.8588 464.388 59.4201 464.089 58.8508C463.8 58.2814 463.655 57.6141 463.655 56.8488C463.655 56.0741 463.805 55.4068 464.103 54.8468C464.402 54.2774 464.822 53.8341 465.363 53.5168C465.905 53.1994 466.553 53.0408 467.309 53.0408C468.056 53.0408 468.7 53.1994 469.241 53.5168C469.783 53.8341 470.198 54.2821 470.487 54.8608C470.777 55.4301 470.921 56.1021 470.921 56.8768C470.921 57.6328 470.777 58.2954 470.487 58.8648C470.207 59.4248 469.797 59.8588 469.255 60.1668C468.714 60.4748 468.065 60.6288 467.309 60.6288ZM467.295 59.0748C467.762 59.0748 468.135 58.9721 468.415 58.7668C468.705 58.5614 468.915 58.2908 469.045 57.9548C469.176 57.6188 469.241 57.2548 469.241 56.8628C469.241 56.4708 469.176 56.1021 469.045 55.7568C468.915 55.4114 468.705 55.1361 468.415 54.9308C468.135 54.7161 467.762 54.6088 467.295 54.6088C466.829 54.6088 466.451 54.7161 466.161 54.9308C465.872 55.1361 465.662 55.4114 465.531 55.7568C465.401 56.0928 465.335 56.4614 465.335 56.8628C465.335 57.2548 465.401 57.6234 465.531 57.9688C465.671 58.3048 465.881 58.5754 466.161 58.7808C466.451 58.9768 466.829 59.0748 467.295 59.0748ZM480.609 60.6428C479.601 60.6428 478.747 60.4328 478.047 60.0128C477.347 59.5834 476.815 58.9908 476.451 58.2348C476.097 57.4694 475.919 56.5874 475.919 55.5888C475.919 54.8328 476.017 54.1468 476.213 53.5308C476.419 52.9148 476.717 52.3828 477.109 51.9348C477.511 51.4774 478.001 51.1274 478.579 50.8848C479.158 50.6328 479.825 50.5068 480.581 50.5068C481.319 50.5068 481.977 50.6281 482.555 50.8708C483.143 51.1041 483.624 51.4494 483.997 51.9068C484.38 52.3641 484.637 52.9241 484.767 53.5868H482.961C482.887 53.2694 482.742 53.0034 482.527 52.7888C482.322 52.5741 482.061 52.4108 481.743 52.2988C481.426 52.1868 481.062 52.1308 480.651 52.1308C480.119 52.1308 479.667 52.2241 479.293 52.4108C478.92 52.5974 478.617 52.8541 478.383 53.1808C478.15 53.4981 477.977 53.8668 477.865 54.2868C477.763 54.6974 477.711 55.1361 477.711 55.6028C477.711 56.2094 477.809 56.7741 478.005 57.2968C478.211 57.8194 478.528 58.2394 478.957 58.5568C479.396 58.8648 479.965 59.0188 480.665 59.0188C481.16 59.0188 481.594 58.9348 481.967 58.7668C482.35 58.5988 482.649 58.3561 482.863 58.0388C483.087 57.7121 483.209 57.3108 483.227 56.8348H480.343V55.3228H484.991V55.9668C484.991 56.9281 484.823 57.7588 484.487 58.4588C484.151 59.1588 483.657 59.7001 483.003 60.0828C482.359 60.4561 481.561 60.6428 480.609 60.6428ZM488.723 60.6288C488.378 60.6288 488.051 60.5821 487.743 60.4888C487.435 60.3954 487.16 60.2601 486.917 60.0828C486.674 59.8961 486.478 59.6674 486.329 59.3968C486.189 59.1168 486.119 58.7901 486.119 58.4168C486.119 57.9408 486.212 57.5534 486.399 57.2548C486.586 56.9468 486.838 56.7134 487.155 56.5548C487.482 56.3961 487.85 56.2888 488.261 56.2328C488.672 56.1674 489.101 56.1348 489.549 56.1348H490.991C490.991 55.8081 490.94 55.5281 490.837 55.2948C490.734 55.0521 490.571 54.8608 490.347 54.7208C490.132 54.5808 489.852 54.5108 489.507 54.5108C489.283 54.5108 489.073 54.5388 488.877 54.5948C488.69 54.6414 488.527 54.7208 488.387 54.8328C488.256 54.9354 488.163 55.0708 488.107 55.2388H486.357C486.422 54.8561 486.553 54.5294 486.749 54.2588C486.954 53.9788 487.202 53.7501 487.491 53.5728C487.79 53.3954 488.116 53.2648 488.471 53.1808C488.826 53.0874 489.185 53.0408 489.549 53.0408C490.622 53.0408 491.402 53.3488 491.887 53.9648C492.382 54.5808 492.629 55.4441 492.629 56.5548V60.5308H491.117L491.075 59.5788C490.86 59.8961 490.604 60.1294 490.305 60.2788C490.006 60.4281 489.717 60.5214 489.437 60.5588C489.157 60.6054 488.919 60.6288 488.723 60.6288ZM489.059 59.2428C489.432 59.2428 489.764 59.1728 490.053 59.0328C490.342 58.8928 490.571 58.6968 490.739 58.4448C490.916 58.1928 491.005 57.9034 491.005 57.5768V57.3388H489.661C489.437 57.3388 489.213 57.3481 488.989 57.3668C488.774 57.3761 488.578 57.4134 488.401 57.4788C488.224 57.5348 488.079 57.6234 487.967 57.7448C487.864 57.8661 487.813 58.0388 487.813 58.2628C487.813 58.4868 487.869 58.6688 487.981 58.8088C488.102 58.9488 488.256 59.0561 488.443 59.1308C488.639 59.2054 488.844 59.2428 489.059 59.2428ZM497.088 60.6288C496.733 60.6288 496.378 60.5914 496.024 60.5168C495.678 60.4421 495.352 60.3208 495.044 60.1528C494.736 59.9754 494.479 59.7374 494.274 59.4388C494.068 59.1401 493.933 58.7668 493.868 58.3188H495.59C495.664 58.5241 495.781 58.6921 495.94 58.8228C496.108 58.9441 496.299 59.0374 496.514 59.1028C496.738 59.1588 496.957 59.1868 497.172 59.1868C497.302 59.1868 497.442 59.1774 497.592 59.1588C497.75 59.1401 497.895 59.1028 498.026 59.0468C498.166 58.9908 498.278 58.9114 498.362 58.8088C498.446 58.6968 498.488 58.5521 498.488 58.3748C498.488 58.2068 498.441 58.0761 498.348 57.9828C498.254 57.8801 498.128 57.8008 497.97 57.7448C497.811 57.6794 497.62 57.6281 497.396 57.5908C496.994 57.5068 496.565 57.4181 496.108 57.3248C495.65 57.2221 495.254 57.0634 494.918 56.8488C494.778 56.7648 494.656 56.6668 494.554 56.5548C494.451 56.4428 494.362 56.3214 494.288 56.1908C494.222 56.0508 494.171 55.9014 494.134 55.7428C494.106 55.5841 494.092 55.4114 494.092 55.2248C494.092 54.8328 494.171 54.5014 494.33 54.2308C494.498 53.9508 494.717 53.7268 494.988 53.5588C495.268 53.3814 495.585 53.2508 495.94 53.1668C496.294 53.0828 496.658 53.0408 497.032 53.0408C497.536 53.0408 497.993 53.1201 498.404 53.2788C498.814 53.4374 499.155 53.6801 499.426 54.0068C499.706 54.3334 499.874 54.7488 499.93 55.2528H498.306C498.259 55.0194 498.114 54.8328 497.872 54.6928C497.638 54.5528 497.34 54.4828 496.976 54.4828C496.845 54.4828 496.71 54.4968 496.57 54.5248C496.43 54.5434 496.294 54.5808 496.164 54.6368C496.042 54.6834 495.94 54.7581 495.856 54.8608C495.781 54.9634 495.744 55.0894 495.744 55.2388C495.744 55.3788 495.776 55.5001 495.842 55.6028C495.916 55.7054 496.024 55.7941 496.164 55.8688C496.313 55.9341 496.486 55.9901 496.682 56.0368C496.999 56.1021 497.33 56.1674 497.676 56.2328C498.021 56.2981 498.32 56.3634 498.572 56.4288C498.87 56.5128 499.141 56.6341 499.384 56.7928C499.626 56.9421 499.813 57.1428 499.944 57.3948C500.084 57.6374 500.154 57.9501 500.154 58.3328C500.154 58.7808 500.06 59.1541 499.874 59.4528C499.696 59.7514 499.458 59.9848 499.16 60.1528C498.861 60.3208 498.53 60.4421 498.166 60.5168C497.802 60.5914 497.442 60.6288 497.088 60.6288ZM505.586 60.5308V50.6328H512.502V52.2288H507.336V55.1828H511.76V56.7788H507.336V60.5308H505.586ZM516.677 60.6288C515.912 60.6288 515.258 60.4701 514.717 60.1528C514.185 59.8354 513.779 59.3968 513.499 58.8368C513.228 58.2674 513.093 57.6094 513.093 56.8628C513.093 56.1161 513.233 55.4581 513.513 54.8888C513.802 54.3101 514.213 53.8574 514.745 53.5308C515.286 53.2041 515.935 53.0408 516.691 53.0408C517.251 53.0408 517.741 53.1434 518.161 53.3488C518.581 53.5448 518.931 53.8154 519.211 54.1608C519.5 54.5061 519.715 54.8981 519.855 55.3368C519.995 55.7754 520.06 56.2374 520.051 56.7228C520.042 56.8348 520.032 56.9468 520.023 57.0588C520.014 57.1614 520 57.2734 519.981 57.3948H514.801C514.829 57.7214 514.913 58.0201 515.053 58.2908C515.202 58.5614 515.408 58.7761 515.669 58.9348C515.94 59.0934 516.276 59.1728 516.677 59.1728C516.91 59.1728 517.134 59.1448 517.349 59.0888C517.564 59.0234 517.75 58.9301 517.909 58.8088C518.077 58.6874 518.189 58.5334 518.245 58.3468H519.953C519.832 58.8788 519.608 59.3128 519.281 59.6488C518.954 59.9848 518.562 60.2321 518.105 60.3908C517.657 60.5494 517.181 60.6288 516.677 60.6288ZM514.829 56.1208H518.385C518.385 55.8128 518.315 55.5328 518.175 55.2808C518.035 55.0288 517.834 54.8328 517.573 54.6928C517.321 54.5434 517.013 54.4688 516.649 54.4688C516.257 54.4688 515.93 54.5481 515.669 54.7068C515.408 54.8654 515.207 55.0708 515.067 55.3228C514.927 55.5748 514.848 55.8408 514.829 56.1208ZM524.716 60.6288C523.951 60.6288 523.297 60.4701 522.756 60.1528C522.224 59.8354 521.818 59.3968 521.538 58.8368C521.267 58.2674 521.132 57.6094 521.132 56.8628C521.132 56.1161 521.272 55.4581 521.552 54.8888C521.841 54.3101 522.252 53.8574 522.784 53.5308C523.325 53.2041 523.974 53.0408 524.73 53.0408C525.29 53.0408 525.78 53.1434 526.2 53.3488C526.62 53.5448 526.97 53.8154 527.25 54.1608C527.539 54.5061 527.754 54.8981 527.894 55.3368C528.034 55.7754 528.099 56.2374 528.09 56.7228C528.081 56.8348 528.071 56.9468 528.062 57.0588C528.053 57.1614 528.039 57.2734 528.02 57.3948H522.84C522.868 57.7214 522.952 58.0201 523.092 58.2908C523.241 58.5614 523.447 58.7761 523.708 58.9348C523.979 59.0934 524.315 59.1728 524.716 59.1728C524.949 59.1728 525.173 59.1448 525.388 59.0888C525.603 59.0234 525.789 58.9301 525.948 58.8088C526.116 58.6874 526.228 58.5334 526.284 58.3468H527.992C527.871 58.8788 527.647 59.3128 527.32 59.6488C526.993 59.9848 526.601 60.2321 526.144 60.3908C525.696 60.5494 525.22 60.6288 524.716 60.6288ZM522.868 56.1208H526.424C526.424 55.8128 526.354 55.5328 526.214 55.2808C526.074 55.0288 525.873 54.8328 525.612 54.6928C525.36 54.5434 525.052 54.4688 524.688 54.4688C524.296 54.4688 523.969 54.5481 523.708 54.7068C523.447 54.8654 523.246 55.0708 523.106 55.3228C522.966 55.5748 522.887 55.8408 522.868 56.1208ZM532.279 60.6288C531.924 60.6288 531.57 60.5914 531.215 60.5168C530.87 60.4421 530.543 60.3208 530.235 60.1528C529.927 59.9754 529.67 59.7374 529.465 59.4388C529.26 59.1401 529.124 58.7668 529.059 58.3188H530.781C530.856 58.5241 530.972 58.6921 531.131 58.8228C531.299 58.9441 531.49 59.0374 531.705 59.1028C531.929 59.1588 532.148 59.1868 532.363 59.1868C532.494 59.1868 532.634 59.1774 532.783 59.1588C532.942 59.1401 533.086 59.1028 533.217 59.0468C533.357 58.9908 533.469 58.9114 533.553 58.8088C533.637 58.6968 533.679 58.5521 533.679 58.3748C533.679 58.2068 533.632 58.0761 533.539 57.9828C533.446 57.8801 533.32 57.8008 533.161 57.7448C533.002 57.6794 532.811 57.6281 532.587 57.5908C532.186 57.5068 531.756 57.4181 531.299 57.3248C530.842 57.2221 530.445 57.0634 530.109 56.8488C529.969 56.7648 529.848 56.6668 529.745 56.5548C529.642 56.4428 529.554 56.3214 529.479 56.1908C529.414 56.0508 529.362 55.9014 529.325 55.7428C529.297 55.5841 529.283 55.4114 529.283 55.2248C529.283 54.8328 529.362 54.5014 529.521 54.2308C529.689 53.9508 529.908 53.7268 530.179 53.5588C530.459 53.3814 530.776 53.2508 531.131 53.1668C531.486 53.0828 531.85 53.0408 532.223 53.0408C532.727 53.0408 533.184 53.1201 533.595 53.2788C534.006 53.4374 534.346 53.6801 534.617 54.0068C534.897 54.3334 535.065 54.7488 535.121 55.2528H533.497C533.45 55.0194 533.306 54.8328 533.063 54.6928C532.83 54.5528 532.531 54.4828 532.167 54.4828C532.036 54.4828 531.901 54.4968 531.761 54.5248C531.621 54.5434 531.486 54.5808 531.355 54.6368C531.234 54.6834 531.131 54.7581 531.047 54.8608C530.972 54.9634 530.935 55.0894 530.935 55.2388C530.935 55.3788 530.968 55.5001 531.033 55.6028C531.108 55.7054 531.215 55.7941 531.355 55.8688C531.504 55.9341 531.677 55.9901 531.873 56.0368C532.19 56.1021 532.522 56.1674 532.867 56.2328C533.212 56.2981 533.511 56.3634 533.763 56.4288C534.062 56.5128 534.332 56.6341 534.575 56.7928C534.818 56.9421 535.004 57.1428 535.135 57.3948C535.275 57.6374 535.345 57.9501 535.345 58.3328C535.345 58.7808 535.252 59.1541 535.065 59.4528C534.888 59.7514 534.65 59.9848 534.351 60.1528C534.052 60.3208 533.721 60.4421 533.357 60.5168C532.993 60.5914 532.634 60.6288 532.279 60.6288Z" fill="#22AC37"/>
</g>
<g filter="url(#filter1_d_622_28364)">
<rect x="22.5" y="109.531" width="428" height="60" rx="24" fill="white" shape-rendering="crispEdges"/>
<path fill-rule="evenodd" clip-rule="evenodd" d="M52.5 136.531C52.5 135.978 52.9477 135.531 53.5 135.531H63.5C64.0523 135.531 64.5 135.978 64.5 136.531V146.531C64.5 147.083 64.0523 147.531 63.5 147.531C62.9477 147.531 62.5 147.083 62.5 146.531V137.531H53.5C52.9477 137.531 52.5 137.083 52.5 136.531Z" fill="#22AC37"/>
<path fill-rule="evenodd" clip-rule="evenodd" d="M64.2071 135.824C64.5976 136.214 64.5976 136.847 64.2071 137.238L54.2071 147.238C53.8166 147.628 53.1834 147.628 52.7929 147.238C52.4024 146.847 52.4024 146.214 52.7929 145.824L62.7929 135.824C63.1834 135.433 63.8166 135.433 64.2071 135.824Z" fill="#22AC37"/>
<path d="M90.724 146.531V142.291L86.724 135.219H88.34L91.444 140.883L94.516 135.219H96.1L92.116 142.275V146.531H90.724ZM99.9551 146.627C99.0698 146.627 98.3285 146.445 97.7311 146.083C97.1338 145.709 96.6858 145.197 96.3871 144.547C96.0991 143.896 95.9551 143.155 95.9551 142.323C95.9551 141.48 96.1045 140.739 96.4031 140.099C96.7018 139.448 97.1498 138.936 97.7471 138.563C98.3445 138.189 99.0911 138.003 99.9871 138.003C100.872 138.003 101.608 138.189 102.195 138.563C102.792 138.936 103.235 139.448 103.523 140.099C103.822 140.739 103.971 141.48 103.971 142.323C103.971 143.155 103.822 143.896 103.523 144.547C103.224 145.197 102.776 145.709 102.179 146.083C101.592 146.445 100.851 146.627 99.9551 146.627ZM99.9551 145.427C100.574 145.427 101.075 145.288 101.459 145.011C101.854 144.733 102.142 144.36 102.323 143.891C102.515 143.421 102.611 142.899 102.611 142.323C102.611 141.747 102.515 141.224 102.323 140.755C102.142 140.285 101.854 139.912 101.459 139.635C101.075 139.357 100.574 139.219 99.9551 139.219C99.3471 139.219 98.8458 139.357 98.4511 139.635C98.0671 139.912 97.7791 140.285 97.5871 140.755C97.4058 141.224 97.3151 141.747 97.3151 142.323C97.3151 142.899 97.4058 143.421 97.5871 143.891C97.7791 144.36 98.0671 144.733 98.4511 145.011C98.8458 145.288 99.3471 145.427 99.9551 145.427ZM109.311 146.627C108.148 146.627 107.263 146.317 106.655 145.699C106.057 145.08 105.759 144.131 105.759 142.851V138.099H107.119V142.787C107.119 143.341 107.199 143.816 107.359 144.211C107.519 144.605 107.759 144.909 108.079 145.123C108.409 145.325 108.82 145.427 109.311 145.427C109.823 145.427 110.244 145.325 110.575 145.123C110.905 144.909 111.145 144.605 111.295 144.211C111.455 143.816 111.535 143.341 111.535 142.787V138.099H112.895V142.851C112.895 144.131 112.585 145.08 111.967 145.699C111.359 146.317 110.473 146.627 109.311 146.627ZM122.394 146.627C122.01 146.627 121.621 146.589 121.226 146.515C120.842 146.44 120.479 146.312 120.138 146.131C119.807 145.949 119.53 145.704 119.306 145.395C119.082 145.085 118.938 144.701 118.874 144.243H120.25C120.357 144.531 120.527 144.765 120.762 144.947C121.007 145.117 121.279 145.24 121.578 145.315C121.887 145.389 122.181 145.427 122.458 145.427C122.629 145.427 122.826 145.416 123.05 145.395C123.274 145.373 123.487 145.325 123.69 145.251C123.903 145.165 124.074 145.043 124.202 144.883C124.341 144.723 124.41 144.499 124.41 144.211C124.41 143.997 124.362 143.821 124.266 143.683C124.17 143.544 124.037 143.432 123.866 143.347C123.695 143.251 123.487 143.181 123.242 143.139C122.741 143.032 122.202 142.931 121.626 142.835C121.061 142.739 120.559 142.557 120.122 142.291C119.973 142.195 119.834 142.088 119.706 141.971C119.589 141.843 119.487 141.704 119.402 141.555C119.317 141.395 119.247 141.224 119.194 141.043C119.151 140.851 119.13 140.643 119.13 140.419C119.13 140.003 119.21 139.645 119.37 139.347C119.541 139.037 119.775 138.787 120.074 138.595C120.373 138.392 120.714 138.243 121.098 138.147C121.493 138.051 121.914 138.003 122.362 138.003C122.917 138.003 123.413 138.093 123.85 138.275C124.298 138.445 124.666 138.701 124.954 139.043C125.242 139.373 125.413 139.784 125.466 140.275H124.202C124.127 139.965 123.925 139.715 123.594 139.523C123.263 139.32 122.842 139.219 122.33 139.219C122.159 139.219 121.967 139.235 121.754 139.267C121.541 139.288 121.338 139.341 121.146 139.427C120.954 139.501 120.794 139.619 120.666 139.779C120.538 139.928 120.474 140.131 120.474 140.387C120.474 140.621 120.533 140.819 120.65 140.979C120.778 141.139 120.954 141.267 121.178 141.363C121.402 141.459 121.658 141.539 121.946 141.603C122.319 141.677 122.73 141.757 123.178 141.843C123.626 141.917 123.978 141.997 124.234 142.083C124.575 142.189 124.858 142.339 125.082 142.531C125.317 142.723 125.487 142.952 125.594 143.219C125.711 143.485 125.77 143.795 125.77 144.147C125.77 144.648 125.669 145.059 125.466 145.379C125.274 145.699 125.013 145.949 124.682 146.131C124.351 146.312 123.983 146.44 123.578 146.515C123.183 146.589 122.789 146.627 122.394 146.627ZM131.111 146.627C130.215 146.627 129.473 146.445 128.887 146.083C128.3 145.709 127.863 145.197 127.575 144.547C127.287 143.896 127.143 143.155 127.143 142.323C127.143 141.48 127.292 140.739 127.591 140.099C127.9 139.448 128.348 138.936 128.935 138.563C129.521 138.189 130.241 138.003 131.095 138.003C131.756 138.003 132.321 138.131 132.791 138.387C133.271 138.632 133.665 138.963 133.975 139.379C134.284 139.795 134.508 140.253 134.647 140.755C134.785 141.245 134.844 141.741 134.823 142.243C134.812 142.339 134.801 142.435 134.791 142.531C134.791 142.627 134.785 142.723 134.775 142.819H128.519C128.561 143.309 128.684 143.752 128.887 144.147C129.089 144.541 129.377 144.856 129.751 145.091C130.124 145.315 130.588 145.427 131.143 145.427C131.42 145.427 131.697 145.395 131.975 145.331C132.263 145.256 132.519 145.133 132.743 144.963C132.977 144.792 133.143 144.563 133.239 144.275H134.631C134.503 144.819 134.263 145.267 133.911 145.619C133.559 145.96 133.137 146.216 132.647 146.387C132.156 146.547 131.644 146.627 131.111 146.627ZM128.551 141.635H133.431C133.42 141.155 133.313 140.733 133.111 140.371C132.908 140.008 132.631 139.725 132.279 139.523C131.937 139.32 131.527 139.219 131.047 139.219C130.524 139.219 130.081 139.331 129.719 139.555C129.367 139.779 129.095 140.072 128.903 140.435C128.711 140.797 128.593 141.197 128.551 141.635ZM136.635 146.531V138.099H137.947L138.011 139.379C138.203 139.069 138.448 138.813 138.747 138.611C139.045 138.408 139.371 138.259 139.723 138.163C140.085 138.056 140.437 138.003 140.779 138.003C141.6 138.003 142.24 138.173 142.699 138.515C143.168 138.856 143.499 139.32 143.691 139.907C143.893 140.483 143.995 141.139 143.995 141.875V146.531H142.635V142.243C142.635 141.848 142.608 141.469 142.555 141.107C142.512 140.744 142.416 140.419 142.267 140.131C142.128 139.843 141.925 139.619 141.659 139.459C141.392 139.288 141.035 139.203 140.587 139.203C140.032 139.203 139.557 139.357 139.163 139.667C138.779 139.976 138.485 140.392 138.283 140.915C138.091 141.437 137.995 142.024 137.995 142.675V146.531H136.635ZM149.256 146.627C148.37 146.627 147.746 146.387 147.384 145.907C147.032 145.427 146.856 144.744 146.856 143.859V139.299H145.48V138.099H146.856V135.571H148.216V138.099H150.808V139.299H148.216V143.683C148.216 144.003 148.242 144.296 148.296 144.563C148.349 144.819 148.461 145.027 148.632 145.187C148.802 145.336 149.058 145.416 149.4 145.427C149.645 145.427 149.858 145.384 150.04 145.299C150.232 145.213 150.392 145.112 150.52 144.995L151.112 145.987C150.93 146.136 150.738 146.259 150.536 146.355C150.344 146.451 150.141 146.52 149.928 146.563C149.725 146.605 149.501 146.627 149.256 146.627ZM160.088 148.771V146.547C159.491 146.461 158.936 146.291 158.424 146.035C157.912 145.779 157.485 145.421 157.144 144.963C156.813 144.493 156.595 143.912 156.488 143.219H158.52C158.648 143.635 158.851 143.96 159.128 144.195C159.416 144.429 159.747 144.595 160.12 144.691C160.504 144.787 160.899 144.835 161.304 144.835C161.677 144.835 162.019 144.787 162.328 144.691C162.648 144.595 162.904 144.44 163.096 144.227C163.299 144.013 163.4 143.741 163.4 143.411C163.4 143.133 163.336 142.909 163.208 142.739C163.091 142.568 162.925 142.429 162.712 142.323C162.509 142.216 162.269 142.125 161.992 142.051C161.565 141.923 161.149 141.821 160.744 141.747C160.349 141.661 159.971 141.571 159.608 141.475C159.256 141.379 158.92 141.256 158.6 141.107C158.077 140.851 157.656 140.509 157.336 140.083C157.027 139.656 156.872 139.069 156.872 138.323C156.872 137.651 157.027 137.091 157.336 136.643C157.645 136.184 158.051 135.832 158.552 135.587C159.053 135.331 159.592 135.181 160.168 135.139V132.947H162.04V135.171C162.616 135.235 163.133 135.4 163.592 135.667C164.051 135.933 164.419 136.296 164.696 136.755C164.973 137.203 165.117 137.747 165.128 138.387H163.176C163.144 138.035 163.021 137.747 162.808 137.523C162.605 137.299 162.344 137.139 162.024 137.043C161.704 136.936 161.352 136.883 160.968 136.883C160.637 136.883 160.307 136.925 159.976 137.011C159.656 137.085 159.389 137.224 159.176 137.427C158.973 137.619 158.872 137.896 158.872 138.259C158.872 138.483 158.925 138.685 159.032 138.867C159.139 139.037 159.283 139.181 159.464 139.299C159.645 139.416 159.853 139.512 160.088 139.587C160.483 139.736 160.92 139.859 161.4 139.955C161.88 140.051 162.328 140.163 162.744 140.291C163.288 140.44 163.757 140.627 164.152 140.851C164.557 141.064 164.867 141.357 165.08 141.731C165.304 142.093 165.416 142.568 165.416 143.155C165.416 143.901 165.261 144.515 164.952 144.995C164.643 145.475 164.227 145.848 163.704 146.115C163.181 146.381 162.6 146.541 161.96 146.595V148.771H160.088ZM171.018 146.659C170.517 146.659 170.021 146.6 169.53 146.483C169.039 146.365 168.591 146.184 168.186 145.939C167.781 145.683 167.439 145.352 167.162 144.947C166.895 144.541 166.725 144.051 166.65 143.475H168.634C168.73 143.805 168.901 144.067 169.146 144.259C169.402 144.451 169.695 144.595 170.026 144.691C170.357 144.776 170.693 144.819 171.034 144.819C171.279 144.819 171.525 144.797 171.77 144.755C172.015 144.712 172.245 144.632 172.458 144.515C172.671 144.397 172.842 144.232 172.97 144.019C173.098 143.805 173.162 143.528 173.162 143.187C173.162 142.877 173.103 142.621 172.986 142.419C172.879 142.216 172.725 142.061 172.522 141.955C172.33 141.837 172.106 141.757 171.85 141.715C171.605 141.661 171.343 141.635 171.066 141.635H169.818V139.923H170.634C170.943 139.923 171.226 139.891 171.482 139.827C171.738 139.763 171.962 139.672 172.154 139.555C172.346 139.427 172.49 139.267 172.586 139.075C172.693 138.883 172.746 138.653 172.746 138.387C172.746 138.003 172.661 137.704 172.49 137.491C172.33 137.277 172.111 137.128 171.834 137.043C171.557 136.947 171.253 136.899 170.922 136.899C170.623 136.899 170.335 136.947 170.058 137.043C169.781 137.128 169.541 137.261 169.338 137.443C169.135 137.624 169.007 137.853 168.954 138.131H167.002C167.066 137.597 167.221 137.139 167.466 136.755C167.711 136.371 168.015 136.056 168.378 135.811C168.751 135.555 169.167 135.368 169.626 135.251C170.085 135.133 170.559 135.075 171.05 135.075C171.53 135.075 171.989 135.128 172.426 135.235C172.874 135.341 173.269 135.517 173.61 135.763C173.951 135.997 174.223 136.307 174.426 136.691C174.629 137.075 174.73 137.544 174.73 138.099C174.73 138.451 174.671 138.781 174.554 139.091C174.437 139.4 174.266 139.672 174.042 139.907C173.829 140.141 173.567 140.333 173.258 140.483C173.685 140.6 174.042 140.792 174.33 141.059C174.618 141.315 174.831 141.624 174.97 141.987C175.119 142.349 175.194 142.749 175.194 143.187C175.194 143.869 175.066 144.44 174.81 144.899C174.565 145.347 174.234 145.699 173.818 145.955C173.413 146.211 172.965 146.392 172.474 146.499C171.983 146.605 171.498 146.659 171.018 146.659ZM180.624 146.659C180.016 146.659 179.44 146.557 178.896 146.355C178.363 146.141 177.91 145.821 177.536 145.395C177.163 144.968 176.918 144.435 176.8 143.795H178.8C178.95 144.136 179.206 144.397 179.568 144.579C179.942 144.749 180.331 144.835 180.736 144.835C181.227 144.835 181.632 144.739 181.952 144.547C182.283 144.344 182.544 144.077 182.736 143.747C182.939 143.405 183.083 143.032 183.168 142.627C183.254 142.211 183.296 141.789 183.296 141.363C183.296 141.309 183.296 141.256 183.296 141.203C183.296 141.149 183.296 141.101 183.296 141.059C183.072 141.432 182.795 141.725 182.464 141.939C182.134 142.141 181.782 142.291 181.408 142.387C181.035 142.472 180.672 142.515 180.32 142.515C179.648 142.515 179.04 142.376 178.496 142.099C177.952 141.821 177.52 141.416 177.2 140.883C176.88 140.339 176.72 139.688 176.72 138.931C176.72 138.12 176.902 137.427 177.264 136.851C177.627 136.275 178.118 135.837 178.736 135.539C179.366 135.229 180.064 135.075 180.832 135.075C181.664 135.075 182.358 135.245 182.912 135.587C183.467 135.928 183.91 136.387 184.24 136.963C184.571 137.528 184.806 138.157 184.944 138.851C185.083 139.544 185.152 140.248 185.152 140.963C185.152 141.752 185.067 142.493 184.896 143.187C184.736 143.869 184.475 144.472 184.112 144.995C183.76 145.517 183.296 145.928 182.72 146.227C182.144 146.515 181.446 146.659 180.624 146.659ZM180.736 140.803C181.152 140.803 181.515 140.717 181.824 140.547C182.144 140.365 182.39 140.131 182.56 139.843C182.731 139.544 182.811 139.224 182.8 138.883C182.8 138.477 182.71 138.131 182.528 137.843C182.358 137.544 182.118 137.309 181.808 137.139C181.499 136.968 181.152 136.883 180.768 136.883C180.352 136.883 179.99 136.973 179.68 137.155C179.382 137.336 179.147 137.576 178.976 137.875C178.806 138.173 178.72 138.493 178.72 138.835C178.72 139.421 178.896 139.896 179.248 140.259C179.6 140.621 180.096 140.803 180.736 140.803ZM187.91 146.723C187.569 146.723 187.276 146.611 187.03 146.387C186.796 146.163 186.678 145.859 186.678 145.475C186.678 145.091 186.801 144.787 187.046 144.563C187.292 144.328 187.585 144.211 187.926 144.211C188.268 144.211 188.556 144.328 188.79 144.563C189.025 144.787 189.142 145.091 189.142 145.475C189.142 145.859 189.025 146.163 188.79 146.387C188.556 146.611 188.262 146.723 187.91 146.723ZM196.526 146.531V144.387H190.638V142.883L195.982 135.219H198.494V142.579H199.79V144.387H198.494V146.531H196.526ZM192.942 142.579H196.526V137.315L192.942 142.579ZM200.634 146.531V144.883L203.786 142.227C204.042 142.013 204.325 141.779 204.634 141.523C204.943 141.267 205.237 140.989 205.514 140.691C205.802 140.381 206.042 140.061 206.234 139.731C206.426 139.4 206.522 139.053 206.522 138.691C206.522 138.147 206.357 137.72 206.026 137.411C205.706 137.101 205.247 136.947 204.65 136.947C204.127 136.947 203.701 137.059 203.37 137.283C203.039 137.507 202.831 137.811 202.746 138.195H200.778C200.853 137.48 201.082 136.899 201.466 136.451C201.861 135.992 202.346 135.651 202.922 135.427C203.498 135.192 204.101 135.075 204.73 135.075C205.445 135.075 206.085 135.208 206.65 135.475C207.215 135.731 207.663 136.115 207.994 136.627C208.335 137.128 208.506 137.741 208.506 138.467C208.506 139.117 208.378 139.704 208.122 140.227C207.877 140.749 207.541 141.229 207.114 141.667C206.698 142.093 206.239 142.515 205.738 142.931L203.578 144.707H208.538V146.531H200.634ZM217.99 146.627C217.105 146.627 216.481 146.387 216.118 145.907C215.766 145.427 215.59 144.744 215.59 143.859V139.299H214.214V138.099H215.59V135.571H216.95V138.099H219.542V139.299H216.95V143.683C216.95 144.003 216.977 144.296 217.03 144.563C217.083 144.819 217.195 145.027 217.366 145.187C217.537 145.336 217.793 145.416 218.134 145.427C218.379 145.427 218.593 145.384 218.774 145.299C218.966 145.213 219.126 145.112 219.254 144.995L219.846 145.987C219.665 146.136 219.473 146.259 219.27 146.355C219.078 146.451 218.875 146.52 218.662 146.563C218.459 146.605 218.235 146.627 217.99 146.627ZM224.846 146.627C223.96 146.627 223.219 146.445 222.622 146.083C222.024 145.709 221.576 145.197 221.278 144.547C220.99 143.896 220.846 143.155 220.846 142.323C220.846 141.48 220.995 140.739 221.294 140.099C221.592 139.448 222.04 138.936 222.638 138.563C223.235 138.189 223.982 138.003 224.878 138.003C225.763 138.003 226.499 138.189 227.086 138.563C227.683 138.936 228.126 139.448 228.414 140.099C228.712 140.739 228.862 141.48 228.862 142.323C228.862 143.155 228.712 143.896 228.414 144.547C228.115 145.197 227.667 145.709 227.07 146.083C226.483 146.445 225.742 146.627 224.846 146.627ZM224.846 145.427C225.464 145.427 225.966 145.288 226.35 145.011C226.744 144.733 227.032 144.36 227.214 143.891C227.406 143.421 227.502 142.899 227.502 142.323C227.502 141.747 227.406 141.224 227.214 140.755C227.032 140.285 226.744 139.912 226.35 139.635C225.966 139.357 225.464 139.219 224.846 139.219C224.238 139.219 223.736 139.357 223.342 139.635C222.958 139.912 222.67 140.285 222.478 140.755C222.296 141.224 222.206 141.747 222.206 142.323C222.206 142.899 222.296 143.421 222.478 143.891C222.67 144.36 222.958 144.733 223.342 145.011C223.736 145.288 224.238 145.427 224.846 145.427ZM234.064 146.531L238.4 135.219H240.784L245.104 146.531H242.944L242.192 144.435H236.976L236.208 146.531H234.064ZM237.616 142.627H241.536L239.584 137.235L237.616 142.627ZM246.116 146.531V135.219H248.068V139.187C248.292 138.899 248.553 138.664 248.852 138.483C249.151 138.301 249.465 138.173 249.796 138.099C250.127 138.013 250.441 137.971 250.74 137.971C251.54 137.971 252.169 138.147 252.628 138.499C253.087 138.851 253.407 139.32 253.588 139.907C253.78 140.493 253.876 141.155 253.876 141.891V146.531H251.924V142.227C251.924 141.939 251.903 141.645 251.86 141.347C251.817 141.048 251.732 140.781 251.604 140.547C251.487 140.301 251.305 140.104 251.06 139.955C250.825 139.805 250.511 139.731 250.116 139.731C249.743 139.731 249.423 139.811 249.156 139.971C248.889 140.12 248.676 140.328 248.516 140.595C248.367 140.861 248.255 141.155 248.18 141.475C248.105 141.795 248.068 142.115 248.068 142.435V146.531H246.116ZM255.71 146.531V138.099H257.502L257.63 139.059C257.843 138.771 258.072 138.552 258.318 138.403C258.574 138.243 258.835 138.131 259.102 138.067C259.379 138.003 259.64 137.971 259.886 137.971C260.419 137.971 260.872 138.077 261.246 138.291C261.63 138.504 261.928 138.824 262.142 139.251C262.355 138.952 262.595 138.712 262.862 138.531C263.128 138.339 263.411 138.2 263.71 138.115C264.008 138.019 264.323 137.971 264.654 137.971C265.304 137.971 265.827 138.109 266.222 138.387C266.616 138.653 266.904 139.027 267.086 139.507C267.267 139.976 267.358 140.515 267.358 141.123V146.531H265.406V141.747C265.406 141.533 265.395 141.309 265.374 141.075C265.352 140.84 265.294 140.621 265.198 140.419C265.112 140.216 264.984 140.051 264.814 139.923C264.643 139.795 264.403 139.731 264.094 139.731C263.784 139.731 263.528 139.8 263.326 139.939C263.134 140.067 262.974 140.243 262.846 140.467C262.728 140.68 262.643 140.92 262.59 141.187C262.547 141.443 262.526 141.699 262.526 141.955V146.531H260.574V141.731C260.574 141.528 260.558 141.315 260.526 141.091C260.504 140.856 260.451 140.637 260.366 140.435C260.291 140.221 260.163 140.051 259.982 139.923C259.811 139.795 259.571 139.731 259.262 139.731C258.814 139.731 258.472 139.853 258.238 140.099C258.014 140.344 257.859 140.643 257.774 140.995C257.699 141.347 257.662 141.683 257.662 142.003V146.531H255.71ZM272.939 146.643C272.064 146.643 271.317 146.461 270.699 146.099C270.091 145.736 269.627 145.235 269.307 144.595C268.997 143.944 268.843 143.192 268.843 142.339C268.843 141.485 269.003 140.733 269.323 140.083C269.653 139.421 270.123 138.904 270.731 138.531C271.349 138.157 272.091 137.971 272.955 137.971C273.595 137.971 274.155 138.088 274.635 138.323C275.115 138.547 275.515 138.856 275.835 139.251C276.165 139.645 276.411 140.093 276.571 140.595C276.731 141.096 276.805 141.624 276.795 142.179C276.784 142.307 276.773 142.435 276.763 142.563C276.752 142.68 276.736 142.808 276.715 142.947H270.795C270.827 143.32 270.923 143.661 271.083 143.971C271.253 144.28 271.488 144.525 271.787 144.707C272.096 144.888 272.48 144.979 272.939 144.979C273.205 144.979 273.461 144.947 273.707 144.883C273.952 144.808 274.165 144.701 274.347 144.563C274.539 144.424 274.667 144.248 274.731 144.035H276.683C276.544 144.643 276.288 145.139 275.915 145.523C275.541 145.907 275.093 146.189 274.571 146.371C274.059 146.552 273.515 146.643 272.939 146.643ZM270.827 141.491H274.891C274.891 141.139 274.811 140.819 274.651 140.531C274.491 140.243 274.261 140.019 273.963 139.859C273.675 139.688 273.323 139.603 272.907 139.603C272.459 139.603 272.085 139.693 271.787 139.875C271.488 140.056 271.259 140.291 271.099 140.579C270.939 140.867 270.848 141.171 270.827 141.491ZM281.79 146.643C280.937 146.643 280.233 146.451 279.678 146.067C279.124 145.672 278.708 145.149 278.43 144.499C278.164 143.848 278.03 143.123 278.03 142.323C278.03 141.491 278.174 140.749 278.462 140.099C278.75 139.437 279.182 138.92 279.758 138.547C280.334 138.163 281.054 137.971 281.918 137.971C282.238 137.971 282.548 138.008 282.846 138.083C283.156 138.147 283.444 138.253 283.71 138.403C283.988 138.541 284.217 138.728 284.398 138.963V135.219H286.35V146.531H284.462L284.43 145.475C284.228 145.741 283.988 145.96 283.71 146.131C283.444 146.301 283.145 146.429 282.814 146.515C282.484 146.6 282.142 146.643 281.79 146.643ZM282.158 144.883C282.67 144.883 283.092 144.765 283.422 144.531C283.753 144.285 283.998 143.965 284.158 143.571C284.329 143.165 284.414 142.739 284.414 142.291C284.414 141.821 284.329 141.395 284.158 141.011C283.998 140.627 283.753 140.317 283.422 140.083C283.092 139.848 282.67 139.731 282.158 139.731C281.614 139.731 281.182 139.853 280.862 140.099C280.553 140.344 280.324 140.669 280.174 141.075C280.036 141.469 279.966 141.896 279.966 142.355C279.966 142.696 280.004 143.021 280.078 143.331C280.164 143.629 280.292 143.896 280.462 144.131C280.633 144.365 280.857 144.552 281.134 144.691C281.412 144.819 281.753 144.883 282.158 144.883ZM291.814 146.531L296.15 135.219H298.534L302.854 146.531H300.694L299.942 144.435H294.726L293.958 146.531H291.814ZM295.366 142.627H299.286L297.334 137.235L295.366 142.627ZM303.866 146.531V135.219H305.818V146.531H303.866ZM307.71 146.531V138.099H309.662V146.531H307.71ZM308.686 137.123C308.312 137.123 308.014 137.011 307.79 136.787C307.566 136.563 307.454 136.269 307.454 135.907C307.454 135.555 307.571 135.267 307.806 135.043C308.04 134.808 308.334 134.691 308.686 134.691C309.027 134.691 309.32 134.803 309.566 135.027C309.811 135.251 309.934 135.544 309.934 135.907C309.934 136.269 309.816 136.563 309.582 136.787C309.347 137.011 309.048 137.123 308.686 137.123Z" fill="#495458"/>
<rect x="326.5" y="125.531" width="100" height="28" rx="14" fill="#B4FFC0"/>
<path d="M335.606 144.531V134.633H337.482L342.256 141.843V134.633H344.006V144.531H342.172L337.356 137.363V144.531H335.606ZM349.309 144.629C348.553 144.629 347.9 144.475 347.349 144.167C346.808 143.859 346.388 143.42 346.089 142.851C345.8 142.281 345.655 141.614 345.655 140.849C345.655 140.074 345.805 139.407 346.103 138.847C346.402 138.277 346.822 137.834 347.363 137.517C347.905 137.199 348.553 137.041 349.309 137.041C350.056 137.041 350.7 137.199 351.241 137.517C351.783 137.834 352.198 138.282 352.487 138.861C352.777 139.43 352.921 140.102 352.921 140.877C352.921 141.633 352.777 142.295 352.487 142.865C352.207 143.425 351.797 143.859 351.255 144.167C350.714 144.475 350.065 144.629 349.309 144.629ZM349.295 143.075C349.762 143.075 350.135 142.972 350.415 142.767C350.705 142.561 350.915 142.291 351.045 141.955C351.176 141.619 351.241 141.255 351.241 140.863C351.241 140.471 351.176 140.102 351.045 139.757C350.915 139.411 350.705 139.136 350.415 138.931C350.135 138.716 349.762 138.609 349.295 138.609C348.829 138.609 348.451 138.716 348.161 138.931C347.872 139.136 347.662 139.411 347.531 139.757C347.401 140.093 347.335 140.461 347.335 140.863C347.335 141.255 347.401 141.623 347.531 141.969C347.671 142.305 347.881 142.575 348.161 142.781C348.451 142.977 348.829 143.075 349.295 143.075ZM362.609 144.643C361.601 144.643 360.747 144.433 360.047 144.013C359.347 143.583 358.815 142.991 358.451 142.235C358.097 141.469 357.919 140.587 357.919 139.589C357.919 138.833 358.017 138.147 358.213 137.531C358.419 136.915 358.717 136.383 359.109 135.935C359.511 135.477 360.001 135.127 360.579 134.885C361.158 134.633 361.825 134.507 362.581 134.507C363.319 134.507 363.977 134.628 364.555 134.871C365.143 135.104 365.624 135.449 365.997 135.907C366.38 136.364 366.637 136.924 366.767 137.587H364.961C364.887 137.269 364.742 137.003 364.527 136.789C364.322 136.574 364.061 136.411 363.743 136.299C363.426 136.187 363.062 136.131 362.651 136.131C362.119 136.131 361.667 136.224 361.293 136.411C360.92 136.597 360.617 136.854 360.383 137.181C360.15 137.498 359.977 137.867 359.865 138.287C359.763 138.697 359.711 139.136 359.711 139.603C359.711 140.209 359.809 140.774 360.005 141.297C360.211 141.819 360.528 142.239 360.957 142.557C361.396 142.865 361.965 143.019 362.665 143.019C363.16 143.019 363.594 142.935 363.967 142.767C364.35 142.599 364.649 142.356 364.863 142.039C365.087 141.712 365.209 141.311 365.227 140.835H362.343V139.323H366.991V139.967C366.991 140.928 366.823 141.759 366.487 142.459C366.151 143.159 365.657 143.7 365.003 144.083C364.359 144.456 363.561 144.643 362.609 144.643ZM370.723 144.629C370.378 144.629 370.051 144.582 369.743 144.489C369.435 144.395 369.16 144.26 368.917 144.083C368.674 143.896 368.478 143.667 368.329 143.397C368.189 143.117 368.119 142.79 368.119 142.417C368.119 141.941 368.212 141.553 368.399 141.255C368.586 140.947 368.838 140.713 369.155 140.555C369.482 140.396 369.85 140.289 370.261 140.233C370.672 140.167 371.101 140.135 371.549 140.135H372.991C372.991 139.808 372.94 139.528 372.837 139.295C372.734 139.052 372.571 138.861 372.347 138.721C372.132 138.581 371.852 138.511 371.507 138.511C371.283 138.511 371.073 138.539 370.877 138.595C370.69 138.641 370.527 138.721 370.387 138.833C370.256 138.935 370.163 139.071 370.107 139.239H368.357C368.422 138.856 368.553 138.529 368.749 138.259C368.954 137.979 369.202 137.75 369.491 137.573C369.79 137.395 370.116 137.265 370.471 137.181C370.826 137.087 371.185 137.041 371.549 137.041C372.622 137.041 373.402 137.349 373.887 137.965C374.382 138.581 374.629 139.444 374.629 140.555V144.531H373.117L373.075 143.579C372.86 143.896 372.604 144.129 372.305 144.279C372.006 144.428 371.717 144.521 371.437 144.559C371.157 144.605 370.919 144.629 370.723 144.629ZM371.059 143.243C371.432 143.243 371.764 143.173 372.053 143.033C372.342 142.893 372.571 142.697 372.739 142.445C372.916 142.193 373.005 141.903 373.005 141.577V141.339H371.661C371.437 141.339 371.213 141.348 370.989 141.367C370.774 141.376 370.578 141.413 370.401 141.479C370.224 141.535 370.079 141.623 369.967 141.745C369.864 141.866 369.813 142.039 369.813 142.263C369.813 142.487 369.869 142.669 369.981 142.809C370.102 142.949 370.256 143.056 370.443 143.131C370.639 143.205 370.844 143.243 371.059 143.243ZM379.088 144.629C378.733 144.629 378.378 144.591 378.024 144.517C377.678 144.442 377.352 144.321 377.044 144.153C376.736 143.975 376.479 143.737 376.274 143.439C376.068 143.14 375.933 142.767 375.868 142.319H377.59C377.664 142.524 377.781 142.692 377.94 142.823C378.108 142.944 378.299 143.037 378.514 143.103C378.738 143.159 378.957 143.187 379.172 143.187C379.302 143.187 379.442 143.177 379.592 143.159C379.75 143.14 379.895 143.103 380.026 143.047C380.166 142.991 380.278 142.911 380.362 142.809C380.446 142.697 380.488 142.552 380.488 142.375C380.488 142.207 380.441 142.076 380.348 141.983C380.254 141.88 380.128 141.801 379.97 141.745C379.811 141.679 379.62 141.628 379.396 141.591C378.994 141.507 378.565 141.418 378.108 141.325C377.65 141.222 377.254 141.063 376.918 140.849C376.778 140.765 376.656 140.667 376.554 140.555C376.451 140.443 376.362 140.321 376.288 140.191C376.222 140.051 376.171 139.901 376.134 139.743C376.106 139.584 376.092 139.411 376.092 139.225C376.092 138.833 376.171 138.501 376.33 138.231C376.498 137.951 376.717 137.727 376.988 137.559C377.268 137.381 377.585 137.251 377.94 137.167C378.294 137.083 378.658 137.041 379.032 137.041C379.536 137.041 379.993 137.12 380.404 137.279C380.814 137.437 381.155 137.68 381.426 138.007C381.706 138.333 381.874 138.749 381.93 139.253H380.306C380.259 139.019 380.114 138.833 379.872 138.693C379.638 138.553 379.34 138.483 378.976 138.483C378.845 138.483 378.71 138.497 378.57 138.525C378.43 138.543 378.294 138.581 378.164 138.637C378.042 138.683 377.94 138.758 377.856 138.861C377.781 138.963 377.744 139.089 377.744 139.239C377.744 139.379 377.776 139.5 377.842 139.603C377.916 139.705 378.024 139.794 378.164 139.869C378.313 139.934 378.486 139.99 378.682 140.037C378.999 140.102 379.33 140.167 379.676 140.233C380.021 140.298 380.32 140.363 380.572 140.429C380.87 140.513 381.141 140.634 381.384 140.793C381.626 140.942 381.813 141.143 381.944 141.395C382.084 141.637 382.154 141.95 382.154 142.333C382.154 142.781 382.06 143.154 381.874 143.453C381.696 143.751 381.458 143.985 381.16 144.153C380.861 144.321 380.53 144.442 380.166 144.517C379.802 144.591 379.442 144.629 379.088 144.629ZM387.586 144.531V134.633H394.502V136.229H389.336V139.183H393.76V140.779H389.336V144.531H387.586ZM398.677 144.629C397.912 144.629 397.258 144.47 396.717 144.153C396.185 143.835 395.779 143.397 395.499 142.837C395.228 142.267 395.093 141.609 395.093 140.863C395.093 140.116 395.233 139.458 395.513 138.889C395.802 138.31 396.213 137.857 396.745 137.531C397.286 137.204 397.935 137.041 398.691 137.041C399.251 137.041 399.741 137.143 400.161 137.349C400.581 137.545 400.931 137.815 401.211 138.161C401.5 138.506 401.715 138.898 401.855 139.337C401.995 139.775 402.06 140.237 402.051 140.723C402.042 140.835 402.032 140.947 402.023 141.059C402.014 141.161 402 141.273 401.981 141.395H396.801C396.829 141.721 396.913 142.02 397.053 142.291C397.202 142.561 397.408 142.776 397.669 142.935C397.94 143.093 398.276 143.173 398.677 143.173C398.91 143.173 399.134 143.145 399.349 143.089C399.564 143.023 399.75 142.93 399.909 142.809C400.077 142.687 400.189 142.533 400.245 142.347H401.953C401.832 142.879 401.608 143.313 401.281 143.649C400.954 143.985 400.562 144.232 400.105 144.391C399.657 144.549 399.181 144.629 398.677 144.629ZM396.829 140.121H400.385C400.385 139.813 400.315 139.533 400.175 139.281C400.035 139.029 399.834 138.833 399.573 138.693C399.321 138.543 399.013 138.469 398.649 138.469C398.257 138.469 397.93 138.548 397.669 138.707C397.408 138.865 397.207 139.071 397.067 139.323C396.927 139.575 396.848 139.841 396.829 140.121ZM406.716 144.629C405.951 144.629 405.297 144.47 404.756 144.153C404.224 143.835 403.818 143.397 403.538 142.837C403.267 142.267 403.132 141.609 403.132 140.863C403.132 140.116 403.272 139.458 403.552 138.889C403.841 138.31 404.252 137.857 404.784 137.531C405.325 137.204 405.974 137.041 406.73 137.041C407.29 137.041 407.78 137.143 408.2 137.349C408.62 137.545 408.97 137.815 409.25 138.161C409.539 138.506 409.754 138.898 409.894 139.337C410.034 139.775 410.099 140.237 410.09 140.723C410.081 140.835 410.071 140.947 410.062 141.059C410.053 141.161 410.039 141.273 410.02 141.395H404.84C404.868 141.721 404.952 142.02 405.092 142.291C405.241 142.561 405.447 142.776 405.708 142.935C405.979 143.093 406.315 143.173 406.716 143.173C406.949 143.173 407.173 143.145 407.388 143.089C407.603 143.023 407.789 142.93 407.948 142.809C408.116 142.687 408.228 142.533 408.284 142.347H409.992C409.871 142.879 409.647 143.313 409.32 143.649C408.993 143.985 408.601 144.232 408.144 144.391C407.696 144.549 407.22 144.629 406.716 144.629ZM404.868 140.121H408.424C408.424 139.813 408.354 139.533 408.214 139.281C408.074 139.029 407.873 138.833 407.612 138.693C407.36 138.543 407.052 138.469 406.688 138.469C406.296 138.469 405.969 138.548 405.708 138.707C405.447 138.865 405.246 139.071 405.106 139.323C404.966 139.575 404.887 139.841 404.868 140.121ZM414.279 144.629C413.924 144.629 413.57 144.591 413.215 144.517C412.87 144.442 412.543 144.321 412.235 144.153C411.927 143.975 411.67 143.737 411.465 143.439C411.26 143.14 411.124 142.767 411.059 142.319H412.781C412.856 142.524 412.972 142.692 413.131 142.823C413.299 142.944 413.49 143.037 413.705 143.103C413.929 143.159 414.148 143.187 414.363 143.187C414.494 143.187 414.634 143.177 414.783 143.159C414.942 143.14 415.086 143.103 415.217 143.047C415.357 142.991 415.469 142.911 415.553 142.809C415.637 142.697 415.679 142.552 415.679 142.375C415.679 142.207 415.632 142.076 415.539 141.983C415.446 141.88 415.32 141.801 415.161 141.745C415.002 141.679 414.811 141.628 414.587 141.591C414.186 141.507 413.756 141.418 413.299 141.325C412.842 141.222 412.445 141.063 412.109 140.849C411.969 140.765 411.848 140.667 411.745 140.555C411.642 140.443 411.554 140.321 411.479 140.191C411.414 140.051 411.362 139.901 411.325 139.743C411.297 139.584 411.283 139.411 411.283 139.225C411.283 138.833 411.362 138.501 411.521 138.231C411.689 137.951 411.908 137.727 412.179 137.559C412.459 137.381 412.776 137.251 413.131 137.167C413.486 137.083 413.85 137.041 414.223 137.041C414.727 137.041 415.184 137.12 415.595 137.279C416.006 137.437 416.346 137.68 416.617 138.007C416.897 138.333 417.065 138.749 417.121 139.253H415.497C415.45 139.019 415.306 138.833 415.063 138.693C414.83 138.553 414.531 138.483 414.167 138.483C414.036 138.483 413.901 138.497 413.761 138.525C413.621 138.543 413.486 138.581 413.355 138.637C413.234 138.683 413.131 138.758 413.047 138.861C412.972 138.963 412.935 139.089 412.935 139.239C412.935 139.379 412.968 139.5 413.033 139.603C413.108 139.705 413.215 139.794 413.355 139.869C413.504 139.934 413.677 139.99 413.873 140.037C414.19 140.102 414.522 140.167 414.867 140.233C415.212 140.298 415.511 140.363 415.763 140.429C416.062 140.513 416.332 140.634 416.575 140.793C416.818 140.942 417.004 141.143 417.135 141.395C417.275 141.637 417.345 141.95 417.345 142.333C417.345 142.781 417.252 143.154 417.065 143.453C416.888 143.751 416.65 143.985 416.351 144.153C416.052 144.321 415.721 144.442 415.357 144.517C414.993 144.591 414.634 144.629 414.279 144.629Z" fill="#22AC37"/>
</g>
<defs>
<filter id="filter0_d_622_28364" x="0.799999" y="0.830761" width="589.4" height="119.4" filterUnits="userSpaceOnUse" color-interpolation-filters="sRGB">
<feFlood flood-opacity="0" result="BackgroundImageFix"/>
<feColorMatrix in="SourceAlpha" type="matrix" values="0 0 0 0 0 0 0 0 0 0 0 0 0 0 0 0 0 0 127 0" result="hardAlpha"/>
<feOffset dy="5"/>
<feGaussianBlur stdDeviation="10.85"/>
<feComposite in2="hardAlpha" operator="out"/>
<feColorMatrix type="matrix" values="0 0 0 0 0 0 0 0 0 0 0 0 0 0 0 0 0 0 0.05 0"/>
<feBlend mode="normal" in2="BackgroundImageFix" result="effect1_dropShadow_622_28364"/>
<feBlend mode="normal" in="SourceGraphic" in2="effect1_dropShadow_622_28364" result="shape"/>
</filter>
<filter id="filter1_d_622_28364" x="0.799999" y="92.8308" width="471.4" height="103.4" filterUnits="userSpaceOnUse" color-interpolation-filters="sRGB">
<feFlood flood-opacity="0" result="BackgroundImageFix"/>
<feColorMatrix in="SourceAlpha" type="matrix" values="0 0 0 0 0 0 0 0 0 0 0 0 0 0 0 0 0 0 127 0" result="hardAlpha"/>
<feOffset dy="5"/>
<feGaussianBlur stdDeviation="10.85"/>
<feComposite in2="hardAlpha" operator="out"/>
<feColorMatrix type="matrix" values="0 0 0 0 0 0 0 0 0 0 0 0 0 0 0 0 0 0 0.05 0"/>
<feBlend mode="normal" in2="BackgroundImageFix" result="effect1_dropShadow_622_28364"/>
<feBlend mode="normal" in="SourceGraphic" in2="effect1_dropShadow_622_28364" result="shape"/>
</filter>
</defs>
</svg>
