<svg width="458" height="116" viewBox="0 0 458 116" fill="none" xmlns="http://www.w3.org/2000/svg">
<g filter="url(#filter0_d_620_28060)">
<rect x="22.5" y="17.0308" width="72" height="72" rx="36" fill="white" shape-rendering="crispEdges"/>
<path fill-rule="evenodd" clip-rule="evenodd" d="M59.2753 43.7814C60.407 42.6885 61.9226 42.0837 63.4958 42.0974C65.0689 42.1111 66.5738 42.7421 67.6863 43.8545C68.7987 44.967 69.4297 46.4719 69.4434 48.045C69.4571 49.6182 68.8523 51.1338 67.7593 52.2654L67.7472 52.2778L64.7473 55.2777C64.139 55.8862 63.407 56.3567 62.6009 56.6574C61.7948 56.9581 60.9334 57.082 60.0753 57.0205C59.2171 56.959 58.3822 56.7137 57.6272 56.3012C56.8721 55.8887 56.2146 55.3187 55.6993 54.6297C55.3685 54.1875 55.4588 53.5608 55.9011 53.23C56.3433 52.8992 56.97 52.9895 57.3008 53.4317C57.6444 53.8911 58.0827 54.2711 58.5861 54.5461C59.0894 54.8211 59.646 54.9846 60.2181 55.0256C60.7903 55.0666 61.3645 54.984 61.9019 54.7836C62.4393 54.5831 62.9273 54.2694 63.3328 53.8637L63.333 53.8636L66.3265 50.8701C67.0515 50.1163 67.4526 49.1085 67.4435 48.0624C67.4344 47.0136 67.0137 46.0104 66.272 45.2687C65.5304 44.5271 64.5272 44.1064 63.4784 44.0973C62.4319 44.0882 61.4236 44.4896 60.6697 45.2153L58.9551 46.9199C58.5634 47.3093 57.9303 47.3074 57.5409 46.9158C57.1515 46.5241 57.1534 45.8909 57.545 45.5016L59.265 43.7916L59.2753 43.7814Z" fill="#055BF0"/>
<path fill-rule="evenodd" clip-rule="evenodd" d="M54.3994 49.404C55.2055 49.1033 56.0668 48.9795 56.925 49.041C57.7832 49.1024 58.6181 49.3477 59.3731 49.7602C60.1281 50.1727 60.7856 50.7428 61.301 51.4318C61.6318 51.874 61.5414 52.5007 61.0992 52.8315C60.6569 53.1623 60.0302 53.072 59.6994 52.6297C59.3559 52.1704 58.9175 51.7904 58.4142 51.5154C57.9108 51.2404 57.3542 51.0768 56.7821 51.0359C56.21 50.9949 55.6358 51.0774 55.0984 51.2779C54.561 51.4784 54.0729 51.7921 53.6674 52.1977L50.6738 55.1914C49.9488 55.9451 49.5477 56.953 49.5568 57.9991C49.5659 59.0478 49.9866 60.0511 50.7282 60.7927C51.4698 61.5344 52.4731 61.955 53.5219 61.9642C54.5679 61.9732 55.5758 61.5722 56.3296 60.8472L58.0331 59.1436C58.4236 58.7531 59.0568 58.7531 59.4473 59.1436C59.8378 59.5342 59.8378 60.1673 59.4473 60.5578L57.7373 62.2678L57.7249 62.28C56.5933 63.373 55.0777 63.9777 53.5045 63.9641C51.9313 63.9504 50.4264 63.3194 49.314 62.2069C48.2016 61.0945 47.5705 59.5896 47.5569 58.0164C47.5432 56.4433 48.148 54.9276 49.2409 53.796L49.2531 53.7836L52.253 50.7838C52.2529 50.7838 52.253 50.7837 52.253 50.7838C52.8612 50.1753 53.5933 49.7047 54.3994 49.404Z" fill="#055BF0"/>
</g>
<g filter="url(#filter1_d_620_28060)">
<rect x="107.75" y="17.0308" width="72" height="72" rx="36" fill="white" shape-rendering="crispEdges"/>
<path d="M150.076 42.9347H153.45L146.08 51.3582L154.75 62.8207H147.961L142.644 55.8687L136.56 62.8207H133.184L141.067 53.8108L132.75 42.9347H139.711L144.517 49.289L150.076 42.9347ZM148.892 60.8015H150.762L138.695 44.8478H136.689L148.892 60.8015Z" fill="#055BF0"/>
</g>
<g filter="url(#filter2_d_620_28060)">
<rect x="193" y="17.0308" width="72" height="72" rx="36" fill="white" shape-rendering="crispEdges"/>
<path d="M237.317 45.1863C235.787 44.4845 234.147 43.9673 232.432 43.6712C232.401 43.6654 232.369 43.6797 232.353 43.7083C232.142 44.0835 231.909 44.573 231.745 44.9578C229.9 44.6816 228.065 44.6816 226.258 44.9578C226.095 44.5645 225.852 44.0835 225.641 43.7083C225.624 43.6807 225.593 43.6664 225.562 43.6712C223.848 43.9664 222.208 44.4835 220.677 45.1863C220.664 45.192 220.652 45.2016 220.645 45.214C217.533 49.8623 216.681 54.3964 217.099 58.8743C217.101 58.8962 217.113 58.9172 217.13 58.9305C219.183 60.438 221.172 61.3532 223.123 61.9599C223.155 61.9694 223.188 61.958 223.207 61.9323C223.669 61.3018 224.081 60.6371 224.433 59.9381C224.454 59.8971 224.434 59.8485 224.392 59.8324C223.739 59.5847 223.118 59.2829 222.52 58.94C222.472 58.9124 222.469 58.8448 222.512 58.8124C222.638 58.7181 222.764 58.62 222.884 58.521C222.906 58.5029 222.936 58.4991 222.962 58.5105C226.889 60.3038 231.142 60.3038 235.023 58.5105C235.049 58.4981 235.079 58.5019 235.101 58.52C235.222 58.6191 235.347 58.7181 235.474 58.8124C235.518 58.8448 235.515 58.9124 235.468 58.94C234.87 59.2895 234.248 59.5847 233.595 59.8314C233.552 59.8476 233.533 59.8971 233.554 59.9381C233.914 60.6361 234.326 61.3008 234.779 61.9313C234.798 61.958 234.832 61.9694 234.863 61.9599C236.824 61.3532 238.813 60.438 240.865 58.9305C240.883 58.9172 240.895 58.8972 240.897 58.8753C241.397 53.6983 240.058 49.2014 237.348 45.2149C237.342 45.2016 237.33 45.192 237.317 45.1863ZM225.02 56.1477C223.837 56.1477 222.863 55.0621 222.863 53.7288C222.863 52.3955 223.819 51.3099 225.02 51.3099C226.231 51.3099 227.196 52.4051 227.177 53.7288C227.177 55.0621 226.221 56.1477 225.02 56.1477ZM232.995 56.1477C231.812 56.1477 230.838 55.0621 230.838 53.7288C230.838 52.3955 231.793 51.3099 232.995 51.3099C234.206 51.3099 235.171 52.4051 235.152 53.7288C235.152 55.0621 234.206 56.1477 232.995 56.1477Z" fill="#055BF0"/>
</g>
<g filter="url(#filter3_d_620_28060)">
<rect x="278.25" y="17.0308" width="72" height="72" rx="36" fill="white" shape-rendering="crispEdges"/>
<path fill-rule="evenodd" clip-rule="evenodd" d="M306.25 46.0308C305.698 46.0308 305.25 46.4785 305.25 47.0308V59.0308C305.25 59.583 305.698 60.0308 306.25 60.0308H322.25C322.802 60.0308 323.25 59.583 323.25 59.0308V47.0308C323.25 46.4785 322.802 46.0308 322.25 46.0308H306.25ZM303.25 47.0308C303.25 45.3739 304.593 44.0308 306.25 44.0308H322.25C323.907 44.0308 325.25 45.3739 325.25 47.0308V59.0308C325.25 60.6876 323.907 62.0308 322.25 62.0308H306.25C304.593 62.0308 303.25 60.6876 303.25 59.0308V47.0308Z" fill="#055BF0"/>
<path fill-rule="evenodd" clip-rule="evenodd" d="M303.406 47.4944C303.702 47.0283 304.32 46.8906 304.786 47.1868L313.753 52.8847C313.902 52.9776 314.074 53.0268 314.25 53.0268C314.426 53.0268 314.598 52.9776 314.747 52.8847C314.748 52.8843 314.748 52.8838 314.749 52.8833L323.714 47.1868C324.18 46.8906 324.798 47.0283 325.094 47.4944C325.39 47.9606 325.253 48.5786 324.786 48.8748L315.811 54.5782C315.343 54.8713 314.802 55.0268 314.25 55.0268C313.698 55.0268 313.157 54.8713 312.689 54.5782L312.684 54.5748L303.714 48.8748C303.248 48.5786 303.11 47.9606 303.406 47.4944Z" fill="#055BF0"/>
</g>
<g filter="url(#filter4_d_620_28060)">
<rect x="363.5" y="17.0308" width="72" height="72" rx="36" fill="white" shape-rendering="crispEdges"/>
<path fill-rule="evenodd" clip-rule="evenodd" d="M389.5 45.0308C389.5 43.9262 390.395 43.0308 391.5 43.0308H394.5C395.605 43.0308 396.5 43.9262 396.5 45.0308V48.0308C396.5 49.1353 395.605 50.0308 394.5 50.0308H391.5C390.395 50.0308 389.5 49.1353 389.5 48.0308V45.0308ZM394.5 45.0308H391.5V48.0308H394.5V45.0308Z" fill="#055BF0"/>
<path fill-rule="evenodd" clip-rule="evenodd" d="M402.5 45.0308C402.5 43.9262 403.395 43.0308 404.5 43.0308H407.5C408.605 43.0308 409.5 43.9262 409.5 45.0308V48.0308C409.5 49.1353 408.605 50.0308 407.5 50.0308H404.5C403.395 50.0308 402.5 49.1353 402.5 48.0308V45.0308ZM407.5 45.0308H404.5V48.0308H407.5V45.0308Z" fill="#055BF0"/>
<path fill-rule="evenodd" clip-rule="evenodd" d="M389.5 58.0308C389.5 56.9262 390.395 56.0308 391.5 56.0308H394.5C395.605 56.0308 396.5 56.9262 396.5 58.0308V61.0308C396.5 62.1353 395.605 63.0308 394.5 63.0308H391.5C390.395 63.0308 389.5 62.1353 389.5 61.0308V58.0308ZM394.5 58.0308H391.5V61.0308H394.5V58.0308Z" fill="#055BF0"/>
<path fill-rule="evenodd" clip-rule="evenodd" d="M403.379 56.9094C403.941 56.3468 404.704 56.0308 405.5 56.0308H408.5C409.052 56.0308 409.5 56.4785 409.5 57.0308C409.5 57.583 409.052 58.0308 408.5 58.0308H405.5C405.235 58.0308 404.98 58.1361 404.793 58.3237C404.605 58.5112 404.5 58.7655 404.5 59.0308V62.0308C404.5 62.583 404.052 63.0308 403.5 63.0308C402.948 63.0308 402.5 62.583 402.5 62.0308V59.0308C402.5 58.2351 402.816 57.4721 403.379 56.9094Z" fill="#055BF0"/>
<path fill-rule="evenodd" clip-rule="evenodd" d="M408.5 61.0308C409.052 61.0308 409.5 61.4785 409.5 62.0308V62.0408C409.5 62.593 409.052 63.0408 408.5 63.0408C407.948 63.0408 407.5 62.593 407.5 62.0408V62.0308C407.5 61.4785 407.948 61.0308 408.5 61.0308Z" fill="#055BF0"/>
<path fill-rule="evenodd" clip-rule="evenodd" d="M399.5 47.0308C400.052 47.0308 400.5 47.4785 400.5 48.0308V51.0308C400.5 51.8264 400.184 52.5895 399.621 53.1521C399.059 53.7147 398.296 54.0308 397.5 54.0308H394.5C393.948 54.0308 393.5 53.583 393.5 53.0308C393.5 52.4785 393.948 52.0308 394.5 52.0308H397.5C397.765 52.0308 398.02 51.9254 398.207 51.7379C398.395 51.5503 398.5 51.296 398.5 51.0308V48.0308C398.5 47.4785 398.948 47.0308 399.5 47.0308Z" fill="#055BF0"/>
<path fill-rule="evenodd" clip-rule="evenodd" d="M389.5 53.0308C389.5 52.4785 389.948 52.0308 390.5 52.0308H390.51C391.062 52.0308 391.51 52.4785 391.51 53.0308C391.51 53.583 391.062 54.0308 390.51 54.0308H390.5C389.948 54.0308 389.5 53.583 389.5 53.0308Z" fill="#055BF0"/>
<path fill-rule="evenodd" clip-rule="evenodd" d="M398.5 44.0308C398.5 43.4785 398.948 43.0308 399.5 43.0308H399.51C400.062 43.0308 400.51 43.4785 400.51 44.0308C400.51 44.583 400.062 45.0308 399.51 45.0308H399.5C398.948 45.0308 398.5 44.583 398.5 44.0308Z" fill="#055BF0"/>
<path fill-rule="evenodd" clip-rule="evenodd" d="M399.5 56.0308C400.052 56.0308 400.5 56.4785 400.5 57.0308V57.0408C400.5 57.593 400.052 58.0408 399.5 58.0408C398.948 58.0408 398.5 57.593 398.5 57.0408V57.0308C398.5 56.4785 398.948 56.0308 399.5 56.0308Z" fill="#055BF0"/>
<path fill-rule="evenodd" clip-rule="evenodd" d="M402.5 53.0308C402.5 52.4785 402.948 52.0308 403.5 52.0308H404.5C405.052 52.0308 405.5 52.4785 405.5 53.0308C405.5 53.583 405.052 54.0308 404.5 54.0308H403.5C402.948 54.0308 402.5 53.583 402.5 53.0308Z" fill="#055BF0"/>
<path fill-rule="evenodd" clip-rule="evenodd" d="M408.5 52.0308C409.052 52.0308 409.5 52.4785 409.5 53.0308V53.0408C409.5 53.593 409.052 54.0408 408.5 54.0408C407.948 54.0408 407.5 53.593 407.5 53.0408V53.0308C407.5 52.4785 407.948 52.0308 408.5 52.0308Z" fill="#055BF0"/>
<path fill-rule="evenodd" clip-rule="evenodd" d="M399.5 60.0308C400.052 60.0308 400.5 60.4785 400.5 61.0308V62.0308C400.5 62.583 400.052 63.0308 399.5 63.0308C398.948 63.0308 398.5 62.583 398.5 62.0308V61.0308C398.5 60.4785 398.948 60.0308 399.5 60.0308Z" fill="#055BF0"/>
</g>
<defs>
<filter id="filter0_d_620_28060" x="0.799999" y="0.330761" width="115.4" height="115.4" filterUnits="userSpaceOnUse" color-interpolation-filters="sRGB">
<feFlood flood-opacity="0" result="BackgroundImageFix"/>
<feColorMatrix in="SourceAlpha" type="matrix" values="0 0 0 0 0 0 0 0 0 0 0 0 0 0 0 0 0 0 127 0" result="hardAlpha"/>
<feOffset dy="5"/>
<feGaussianBlur stdDeviation="10.85"/>
<feComposite in2="hardAlpha" operator="out"/>
<feColorMatrix type="matrix" values="0 0 0 0 0 0 0 0 0 0 0 0 0 0 0 0 0 0 0.05 0"/>
<feBlend mode="normal" in2="BackgroundImageFix" result="effect1_dropShadow_620_28060"/>
<feBlend mode="normal" in="SourceGraphic" in2="effect1_dropShadow_620_28060" result="shape"/>
</filter>
<filter id="filter1_d_620_28060" x="86.05" y="0.330761" width="115.4" height="115.4" filterUnits="userSpaceOnUse" color-interpolation-filters="sRGB">
<feFlood flood-opacity="0" result="BackgroundImageFix"/>
<feColorMatrix in="SourceAlpha" type="matrix" values="0 0 0 0 0 0 0 0 0 0 0 0 0 0 0 0 0 0 127 0" result="hardAlpha"/>
<feOffset dy="5"/>
<feGaussianBlur stdDeviation="10.85"/>
<feComposite in2="hardAlpha" operator="out"/>
<feColorMatrix type="matrix" values="0 0 0 0 0 0 0 0 0 0 0 0 0 0 0 0 0 0 0.05 0"/>
<feBlend mode="normal" in2="BackgroundImageFix" result="effect1_dropShadow_620_28060"/>
<feBlend mode="normal" in="SourceGraphic" in2="effect1_dropShadow_620_28060" result="shape"/>
</filter>
<filter id="filter2_d_620_28060" x="171.3" y="0.330761" width="115.4" height="115.4" filterUnits="userSpaceOnUse" color-interpolation-filters="sRGB">
<feFlood flood-opacity="0" result="BackgroundImageFix"/>
<feColorMatrix in="SourceAlpha" type="matrix" values="0 0 0 0 0 0 0 0 0 0 0 0 0 0 0 0 0 0 127 0" result="hardAlpha"/>
<feOffset dy="5"/>
<feGaussianBlur stdDeviation="10.85"/>
<feComposite in2="hardAlpha" operator="out"/>
<feColorMatrix type="matrix" values="0 0 0 0 0 0 0 0 0 0 0 0 0 0 0 0 0 0 0.05 0"/>
<feBlend mode="normal" in2="BackgroundImageFix" result="effect1_dropShadow_620_28060"/>
<feBlend mode="normal" in="SourceGraphic" in2="effect1_dropShadow_620_28060" result="shape"/>
</filter>
<filter id="filter3_d_620_28060" x="256.55" y="0.330761" width="115.4" height="115.4" filterUnits="userSpaceOnUse" color-interpolation-filters="sRGB">
<feFlood flood-opacity="0" result="BackgroundImageFix"/>
<feColorMatrix in="SourceAlpha" type="matrix" values="0 0 0 0 0 0 0 0 0 0 0 0 0 0 0 0 0 0 127 0" result="hardAlpha"/>
<feOffset dy="5"/>
<feGaussianBlur stdDeviation="10.85"/>
<feComposite in2="hardAlpha" operator="out"/>
<feColorMatrix type="matrix" values="0 0 0 0 0 0 0 0 0 0 0 0 0 0 0 0 0 0 0.05 0"/>
<feBlend mode="normal" in2="BackgroundImageFix" result="effect1_dropShadow_620_28060"/>
<feBlend mode="normal" in="SourceGraphic" in2="effect1_dropShadow_620_28060" result="shape"/>
</filter>
<filter id="filter4_d_620_28060" x="341.8" y="0.330761" width="115.4" height="115.4" filterUnits="userSpaceOnUse" color-interpolation-filters="sRGB">
<feFlood flood-opacity="0" result="BackgroundImageFix"/>
<feColorMatrix in="SourceAlpha" type="matrix" values="0 0 0 0 0 0 0 0 0 0 0 0 0 0 0 0 0 0 127 0" result="hardAlpha"/>
<feOffset dy="5"/>
<feGaussianBlur stdDeviation="10.85"/>
<feComposite in2="hardAlpha" operator="out"/>
<feColorMatrix type="matrix" values="0 0 0 0 0 0 0 0 0 0 0 0 0 0 0 0 0 0 0.05 0"/>
<feBlend mode="normal" in2="BackgroundImageFix" result="effect1_dropShadow_620_28060"/>
<feBlend mode="normal" in="SourceGraphic" in2="effect1_dropShadow_620_28060" result="shape"/>
</filter>
</defs>
</svg>
