<svg width="60" height="61" viewBox="0 0 60 61" fill="none" xmlns="http://www.w3.org/2000/svg">
<g clip-path="url(#clip0_618_26488)">
<path fill-rule="evenodd" clip-rule="evenodd" d="M10.987 0.950447L0.0469303 27.3669C0.0053001 27.4652 -0.00789226 27.5762 0.00928252 27.6837C0.0264573 27.7912 0.0730982 27.8895 0.142384 27.9644L29.689 60.5115C29.7729 60.604 29.8847 60.6557 30.001 60.6557C30.1173 60.6557 30.229 60.604 30.313 60.5115L59.8596 27.9664C59.9288 27.8916 59.9755 27.7932 59.9927 27.6857C60.0098 27.5782 59.9966 27.4672 59.955 27.369L49.0149 0.952479C48.9796 0.863761 48.9228 0.788606 48.8513 0.735995C48.7799 0.683385 48.6967 0.655544 48.6119 0.655801H11.3936C11.3083 0.654581 11.2246 0.681751 11.1524 0.734033C11.0803 0.786315 11.0228 0.861475 10.987 0.950447Z" fill="#50AF95"/>
<path fill-rule="evenodd" clip-rule="evenodd" d="M33.7956 30.0791C33.5835 30.0974 32.4875 30.1726 30.0428 30.1726C28.0984 30.1726 26.7178 30.1055 26.2335 30.0791C18.7191 29.6991 13.1103 28.1954 13.1103 26.395C13.1103 24.5946 18.7191 23.093 26.2335 22.7069V28.5815C26.7249 28.6221 28.132 28.7176 30.0764 28.7176C32.4097 28.7176 33.5781 28.6059 33.7885 28.5835V22.7109C41.287 23.095 46.8834 24.5987 46.8834 26.395C46.8834 28.1913 41.2887 29.695 33.7885 30.0771L33.7956 30.0791ZM33.7956 22.1034V16.8465H44.2602V8.83008H15.7689V16.8465H26.2317V22.1013C17.7275 22.5504 11.332 24.4869 11.332 26.8075C11.332 29.1281 17.7275 31.0626 26.2317 31.5137V48.3593H33.7938V31.5076C42.2786 31.0585 48.6634 29.124 48.6634 26.8055C48.6634 24.4869 42.2839 22.5524 33.7938 22.1013L33.7956 22.1034Z" fill="white"/>
</g>
<defs>
<clipPath id="clip0_618_26488">
<rect width="60" height="60" fill="white" transform="translate(0 0.655762)"/>
</clipPath>
</defs>
</svg>
