<svg width="60" height="61" viewBox="0 0 60 61" fill="none" xmlns="http://www.w3.org/2000/svg">
<g clip-path="url(#clip0_618_26489)">
<path d="M29.9644 60.6558C46.548 60.6558 59.9288 47.2282 59.9288 30.6911C60 14.0833 46.548 0.655762 29.9644 0.655762C13.452 0.655762 0 14.0833 0 30.6204C0 47.2282 13.452 60.6558 29.9644 60.6558Z" fill="#0071F3"/>
<path d="M34.7325 12.6699H31.4585H24.1987C23.0599 12.6699 21.9923 13.518 21.85 14.7194L21.1382 19.525V19.5957H17.5795C16.6542 19.5957 15.8713 20.3731 15.8713 21.2918C15.8713 22.2812 16.6542 22.9879 17.5795 23.0586H20.5688L20.0706 26.3802V26.6629H16.5119C15.5866 26.6629 14.8037 27.4402 14.8037 28.359C14.8037 29.2777 15.5866 30.0551 16.5119 30.0551H19.5012L17.8642 40.3731L17.366 43.836L17.0813 45.6735C16.8678 47.1576 17.9354 48.4296 19.43 48.4296H21.7076H24.8393H27.4016C28.5404 48.4296 29.5368 47.5816 29.7503 46.3802L31.245 36.9102H32.0991H34.9461C41.6364 36.9102 47.1169 31.3978 46.9745 24.6841C46.9034 17.8289 41.3518 12.6699 34.7325 12.6699ZM24.0564 22.9173L34.7325 22.9879C35.6578 22.9879 36.5119 23.7653 36.5119 24.7547C36.5119 25.7441 35.729 26.5215 34.7325 26.5215H23.487L24.0564 22.9173ZM34.8037 33.2353H33.0244H32.1703H30.3909C29.2521 33.2353 28.2557 34.0833 28.0421 35.2848L26.5475 44.7547H20.64L22.9176 29.9137H34.7325C37.5795 29.9137 39.9283 27.5816 39.9283 24.7547C39.9283 21.9279 37.5795 19.5957 34.7325 19.5957L24.6258 19.525L25.124 16.1328H34.9461C39.7859 16.1328 43.6293 20.0904 43.5582 24.8961C43.4158 29.5604 39.5012 33.2353 34.8037 33.2353Z" fill="white"/>
</g>
<defs>
<clipPath id="clip0_618_26489">
<rect width="60" height="60" fill="white" transform="translate(0 0.655762)"/>
</clipPath>
</defs>
</svg>
