<svg width="60" height="61" viewBox="0 0 60 61" fill="none" xmlns="http://www.w3.org/2000/svg">
<g clip-path="url(#clip0_618_26487)">
<path d="M30 60.6558C46.6251 60.6558 60 47.2809 60 30.6558C60 14.0307 46.6251 0.655762 30 0.655762C13.3749 0.655762 0 14.0307 0 30.6558C0 47.2809 13.3749 60.6558 30 60.6558Z" fill="#2775CA"/>
<path d="M38.2499 35.4053C38.2499 31.0304 35.6249 29.5304 30.3749 28.9055C26.6249 28.4054 25.8749 27.4055 25.8749 25.6553C25.8749 23.9051 27.125 22.7804 29.6249 22.7804C31.8749 22.7804 33.125 23.5304 33.7499 25.4054C33.875 25.7804 34.25 26.0303 34.625 26.0303H36.6248C37.1249 26.0303 37.4999 25.6553 37.4999 25.1555V25.0304C36.9998 22.2803 34.7498 20.1554 31.8749 19.9055V16.9055C31.8749 16.4054 31.4999 16.0304 30.875 15.9053H29C28.4999 15.9053 28.1249 16.2803 27.9998 16.9055V19.7804C24.2498 20.2805 21.875 22.7804 21.875 25.9055C21.875 30.0305 24.3749 31.6553 29.6249 32.2805C33.125 32.9054 34.25 33.6554 34.25 35.6555C34.25 37.6556 32.4998 39.0305 30.125 39.0305C26.8748 39.0305 25.7498 37.6553 25.3748 35.7803C25.25 35.2805 24.875 35.0303 24.5 35.0303H22.3748C21.875 35.0303 21.5 35.4053 21.5 35.9054V36.0305C21.9998 39.1553 23.9999 41.4053 28.1249 42.0305V45.0305C28.1249 45.5303 28.4999 45.9053 29.1248 46.0304H30.9998C31.4999 46.0304 31.8749 45.6554 32 45.0305V42.0305C35.75 41.4053 38.2499 38.7803 38.2499 35.4053Z" fill="white"/>
<path d="M23.6245 48.531C13.8745 45.0312 8.87441 34.1563 12.4996 24.5311C14.3746 19.2811 18.4996 15.2811 23.6245 13.4061C24.1246 13.1562 24.3745 12.7812 24.3745 12.156V10.4061C24.3745 9.90605 24.1246 9.53105 23.6245 9.40625C23.4994 9.40625 23.2495 9.40625 23.1244 9.53105C11.2495 13.281 4.74941 25.9062 8.49941 37.7811C10.7494 44.7811 16.1245 50.1562 23.1244 52.4062C23.6245 52.6561 24.1246 52.4061 24.2494 51.906C24.3745 51.7812 24.3745 51.6562 24.3745 51.4063V49.656C24.3745 49.281 23.9995 48.7812 23.6245 48.531ZM36.8746 9.53105C36.3745 9.28115 35.8744 9.53105 35.7496 10.0311C35.6245 10.1562 35.6245 10.2811 35.6245 10.5313V12.2811C35.6245 12.7812 35.9995 13.2811 36.3745 13.5313C46.1245 17.0311 51.1246 27.9061 47.4994 37.5313C45.6244 42.7813 41.4994 46.7812 36.3745 48.6562C35.8744 48.9061 35.6245 49.2811 35.6245 49.9063V51.6562C35.6245 52.1563 35.8744 52.5312 36.3745 52.656C36.4996 52.656 36.7495 52.6561 36.8746 52.5313C48.7495 48.7813 55.2496 36.1561 51.4996 24.2812C49.2496 17.1561 43.7494 11.781 36.8746 9.53105Z" fill="white"/>
</g>
<defs>
<clipPath id="clip0_618_26487">
<rect width="60" height="60" fill="white" transform="translate(0 0.655762)"/>
</clipPath>
</defs>
</svg>
